SplineFontDB: 3.0
FontName: Cantarell-Bold
FullName: Cantarell Bold
FamilyName: Cantarell
Weight: Bold
Copyright: Copyright (c) 2009-2011, Understanding Limited (dave@understandinglimited.com),\nCopyright (c) 2010-2011, Jakub Steiner (jimmac@gmail.com).\n\nThis Font Software is licensed under the SIL Open Font License, Version 1.1.\nThis license is copied below, and is also available with a FAQ at:\nhttp://scripts.sil.org/OFL
UComments: "Cantarell was originally designed by Dave Crossland and is developed by the GNOME community+AA0ACgAA-dave@understandinglimited.com+AA0ACgAA-http://live.gnome.org/CantarellFonts" 
Version: 0.0.9
ItalicAngle: 0
UnderlinePosition: -113
UnderlineWidth: 56
Ascent: 739
Descent: 261
LayerCount: 3
Layer: 0 0 "Back"  1
Layer: 1 0 "Fore"  0
Layer: 2 0 "temp"  0
NeedsXUIDChange: 1
XUID: [1021 472 1916768597 5236576]
FSType: 0
OS2Version: 0
OS2_WeightWidthSlopeOnly: 0
OS2_UseTypoMetrics: 1
CreationTime: 1236980653
ModificationTime: 1338892720
PfmFamily: 33
TTFWeight: 700
TTFWidth: 5
LineGap: 0
VLineGap: 0
OS2TypoAscent: 739
OS2TypoAOffset: 0
OS2TypoDescent: -261
OS2TypoDOffset: 0
OS2TypoLinegap: 0
OS2WinAscent: 1053
OS2WinAOffset: 0
OS2WinDescent: 286
OS2WinDOffset: 0
HheadAscent: 1053
HheadAOffset: 0
HheadDescent: -286
HheadDOffset: 0
OS2FamilyClass: 2050
OS2Vendor: 'ABAT'
MarkAttachClasses: 1
DEI: 91125
LangName: 1033 "" "" "" "" "" "" "" "" "" "Dave Crossland" "" "http://live.gnome.org/CantarellFonts+AAoA" "http://abattis.org" "This Font Software is licensed under the SIL Open Font License, Version 1.1.+AAoA-This license is copied below, and is also available with a FAQ at:+AAoA-http://scripts.sil.org/OFL" "http://scripts.sil.org/OFL" "" "" "" "" "" "Cantarell" 
Encoding: UnicodeFull
UnicodeInterp: none
NameList: Adobe Glyph List
DisplaySize: -36
AntiAlias: 1
FitToEm: 1
WinInfo: 816 34 24
BeginPrivate: 0
EndPrivate
Grid
-10.2539 694.336 m 29
 798.34 694.336 l 29
-232.91 670.898 m 5
 625.488 670.898 l 5
  Spiro
    -232.91 670.898 {

StartChar: a
Encoding: 97 97 0
Width: 563
VWidth: 1023
Flags: HMW
HStem: 0 90 200 65 400 90
LayerCount: 3
Back
SplineSet
247.761 491.465 m 4
 283.611 491.465 413.789 486.83 431.639 369.76 c 4
 433.781 355.709 434.104 341.463 434.104 327.237 c 4
 434.104 324.928 434.095 322.619 434.084 320.312 c 6
 432.619 0 l 5
 377.443 0 l 5x7c
 358.725 43.9316 l 5
 326.611 14.6221 278.661 -9.75 222.992 -9.75 c 4
 130.12 -9.75 59.9785 56.043 59.9785 127.73 c 4
 59.9785 173.166 88.3984 237.223 188.459 260.229 c 4
 220.403 267.573 262.57 272.259 353.518 273.73 c 5
 353.518 299.316 l 6
 353.518 304.131 353.568 308.966 353.568 313.802 c 4
 353.568 340.277 355.396 425.425 234.946 425.425 c 4xbc
 188.943 425.425 132.189 410.787 105.959 403.32 c 5
 90.8223 461.914 l 5
 149.717 484.057 204.564 491.382 247.761 491.465 c 4
353.518 213.613 m 5
 257.662 212.174 194.621 214.439 158.693 176.758 c 4
 147.237 164.742 139.864 148.457 139.864 131.942 c 4
 139.864 91.2646 186.574 53.1816 244.812 53.1816 c 4
 255.556 53.1816 308.687 53.9922 353.518 102.412 c 5
 353.518 213.613 l 5
EndSplineSet
Fore
SplineSet
274.769 492 m 0
 455.769 492 496.769 409 496.769 316 c 2
 496.769 0 l 1
 406.769 0 l 1
 393.769 32 l 1
 355.769 8 303.769 -10 245.769 -10 c 0
 120.769 -10 42.7686 59 42.7686 133 c 0
 42.7686 274 179.769 283 376.769 283 c 1
 376.769 290 l 2
 376.769 330 367.769 385 258.769 385 c 0
 229.769 385 183.769 381 113.769 364 c 1
 94.7686 358 l 1
 69.7686 455 l 1
 86.7686 460 l 2
 148.769 481 215.769 492 274.769 492 c 0
376.769 125 m 1
 376.769 195 l 1
 364.769 195 l 2
 237.769 195 169.769 193 169.769 142 c 0
 169.769 110 210.769 93 270.769 93 c 0
 281.769 93 331.769 94 376.769 125 c 1
EndSplineSet
EndChar

StartChar: d
Encoding: 100 100 1
Width: 592
VWidth: 1023
Flags: W
HStem: -10 106<227.604 400.609> 0 21G<425.316 522.407> 389 103<226.676 401.158> 673 20G<402.407 522.407>
VStem: 44.9072 119<161.081 327.685> 402.407 120<105.799 380.751 476 693>
LayerCount: 3
Fore
SplineSet
44.9072 233 m 4xbc
 44.9072 402 154.907 492 299.807 492 c 4
 338.507 492 372.707 486 402.407 476 c 5
 402.407 693 l 5
 522.407 693 l 5
 522.407 0 l 5
 434.407 0 l 5x7c
 424.407 22 l 5
 377.207 -1 327.707 -10 285.407 -10 c 4
 175.606 -10 44.9072 50 44.9072 233 c 4xbc
313.307 96 m 4xbc
 347.507 96 379.007 104 402.407 113 c 5
 402.407 375 l 5
 379.007 382 346.606 389 312.407 389 c 4
 253.907 389 163.907 367 163.907 245 c 4
 163.907 122 253.007 96 313.307 96 c 4xbc
EndSplineSet
EndChar

StartChar: e
Encoding: 101 101 2
Width: 562
VWidth: 1023
Flags: HMW
HStem: 0 90 200 65 400 90
LayerCount: 3
Back
SplineSet
295.639 491.729 m 4
 335.815 491.729 444.803 481.807 468.949 342.727 c 4
 474.198 312.496 474.609 281.659 474.609 250.977 c 6
 474.609 203.613 l 5
 143.066 203.613 l 5
 148.102 134.537 205.297 54.1953 324.332 54.1953 c 4
 365.6 54.1953 406.471 63.457 434.082 71.7773 c 5
 448.242 17.0898 l 5
 406.529 2.73438 352.84 -9.75195 293.75 -9.76562 c 4
 109.512 -9.76562 63.4521 116.621 63.4521 225.768 c 4
 63.4521 412.687 182.298 491.729 295.639 491.729 c 4
278.48 422.233 m 4
 188.4 422.233 146.184 341.938 145.02 264.16 c 5
 396.973 264.16 l 5
 397.061 267.328 397.105 270.5 397.105 273.672 c 4
 397.105 402.854 325.931 422.233 278.48 422.233 c 4
EndSplineSet
Fore
SplineSet
483.007 115 m 1
 483.007 12 l 1
 467.007 8 l 2
 415.007 -5 372.907 -9 308.106 -9 c 0
 99.9072 -9 44.9072 115 44.9072 227 c 0
 44.9072 412 155.6 492 300.907 492 c 0
 458.007 492 519.007 348 519.007 246 c 2
 519.007 184 l 1
 173.907 184 l 1
 184.807 141 225.307 98 339.606 98 c 0
 402.007 98 483.007 115 483.007 115 c 1
291.907 388 m 0
 209.6 388 174.907 328 174.907 268 c 1
 399.007 268 l 1
 399.007 351 349.507 388 291.907 388 c 0
EndSplineSet
Layer: 2
SplineSet
333.691 491.699 m 4
 502.344 491.699 562.012 347.168 562.012 245.605 c 6
 562.012 183.594 l 5
 191.895 183.594 l 5
 204.102 140.625 264.16 94.2383 375.977 94.2383 c 4
 420.41 94.2383 461.426 103.027 488.281 110.84 c 6
 508.301 116.699 l 5
 532.227 23.9258 l 5
 514.648 18.0664 l 6
 471.68 3.41797 412.598 -9.76562 340.82 -9.76562 c 4
 118.164 -9.76562 63.4766 114.746 63.4766 226.562 c 4
 63.4766 411.621 191.602 491.699 333.691 491.699 c 4
322.754 382.324 m 4
 243.652 382.324 200.684 335.938 192.871 284.18 c 5
 442.383 284.18 l 5
 437.012 358.398 386.719 382.324 322.754 382.324 c 4
EndSplineSet
EndChar

StartChar: h
Encoding: 104 104 3
Width: 584
VWidth: 1023
Flags: W
HStem: 0 21G<66.291 186.291 397.791 516.791> 380 111<214.967 366.456> 673 20G<66.291 186.291>
VStem: 66.291 120<0 361.306 458 693> 397.791 119<0 348.095>
LayerCount: 3
Back
SplineSet
301.82 420.039 m 4
 276.027 420.039 231.5 412.926 172.852 382.266 c 5
 172.852 0 l 5
 92.7734 0 l 5
 92.7734 737.793 l 5
 172.852 737.793 l 5
 172.852 445.816 l 5
 205.15 462.916 268.846 491.406 332.842 491.406 c 4
 388.896 491.406 483.584 467.354 492.7 331.335 c 4
 493.633 317.381 493.872 303.4 493.872 289.412 c 4
 493.872 278.717 493.73 268.018 493.652 257.324 c 6
 491.699 0 l 5
 411.621 0 l 5
 411.133 290.527 l 6
 411.078 322.608 411.813 391.296 341.021 414.221 c 4
 328.378 418.314 315.131 420.039 301.82 420.039 c 4
EndSplineSet
Fore
SplineSet
300.591 380 m 0
 278.99 380 239.391 375 186.291 353 c 1
 186.291 0 l 1
 66.291 0 l 1
 66.291 693 l 5
 186.291 693 l 5
 186.291 458 l 1
 224.091 474 277.19 491 332.99 491 c 0
 509.791 491 516.791 348 516.791 274 c 2
 516.791 0 l 1
 397.791 0 l 1
 397.791 282 l 2
 397.791 308 394.19 380 300.591 380 c 0
EndSplineSet
EndChar

StartChar: i
Encoding: 105 105 4
Width: 253
VWidth: 1023
Flags: W
HStem: 0 21G<64.7373 184.737> 462 20G<64.7373 184.737> 562 132<57.7373 191.737>
VStem: 57.7373 134<562 694> 64.7373 120<0 482>
LayerCount: 3
Fore
SplineSet
57.7373 694 m 1xf0
 191.737 694 l 1
 191.737 562 l 1
 57.7373 562 l 1
 57.7373 694 l 1xf0
64.7373 482 m 5xe8
 184.737 482 l 5
 184.737 0 l 5
 64.7373 0 l 5
 64.7373 482 l 5xe8
EndSplineSet
EndChar

StartChar: n
Encoding: 110 110 5
Width: 579
VWidth: 1023
Flags: W
HStem: 0 21G<63 183 390.9 511.9> 380 112<215.58 363.707> 462 20G<63 156.697>
VStem: 63 120<0 361.288> 390.9 121<0 354.174>
LayerCount: 3
Back
SplineSet
87.8906 482.422 m 1
 144.043 482.422 l 1
 161.621 441.406 l 1
 236.816 482.422 294.922 492.188 331.543 492.188 c 0
 469.238 492.188 486.816 384.766 486.816 287.598 c 2
 486.816 0 l 25
 406.25 0 l 1
 406.25 290.527 l 2
 406.25 320.801 407.715 419.922 296.875 419.922 c 0
 251.465 419.922 203.613 400.879 167.969 382.324 c 1
 167.969 0 l 1
 87.8906 0 l 1
 87.8906 482.422 l 1
EndSplineSet
Fore
SplineSet
63 482 m 1xb8
 147 482 l 1xb8
 163 449 l 1
 237 483 294.6 492 333.3 492 c 0
 488.9 492 511.9 383 511.9 285 c 2
 511.9 0 l 1
 390.9 0 l 1
 390.9 283 l 2
 390.9 317 387.3 380 297.3 380 c 0xd8
 254.1 380 209.1 364 183 353 c 1
 183 0 l 1
 63 0 l 1
 63 482 l 1xb8
EndSplineSet
EndChar

StartChar: o
Encoding: 111 111 6
Width: 608
VWidth: 1023
Flags: MW
HStem: -10 90<230.691 379.874> 400 90<222.82 374.127>
VStem: 44.9072 119<168.275 325.09> 441.106 118<159.172 317.512>
LayerCount: 3
Fore
SplineSet
305.207 492 m 4
 447.106 492 559.106 406 559.106 250 c 4
 559.106 89 450.106 -10 297.106 -10 c 4
 151.907 -10 44.9072 82 44.9072 236 c 4
 44.9072 393 150.907 492 305.207 492 c 4
298.007 383 m 4
 233.207 383 163.907 340 163.907 249 c 4
 163.907 166 220.606 99 306.106 99 c 4
 380.807 99 441.106 152 441.106 236 c 4
 441.106 335 365.507 383 298.007 383 c 4
EndSplineSet
EndChar

StartChar: s
Encoding: 115 115 7
Width: 524
VWidth: 1023
Flags: HMW
HStem: -10 90<131.439 340.099> 400 90<314.613 433.891>
VStem: 62.9072 127<318.934 371.287> 354.807 129<108.717 162.947>
LayerCount: 3
Fore
SplineSet
354.807 144 m 1
 350.307 205 62.9072 183 62.9072 341 c 0
 62.9072 400 116.907 492 311.407 492 c 0
 380.407 492 410.407 481 444.407 471 c 2
 464.407 465 l 1
 431.407 367 l 1
 412.407 372 l 2
 380.407 381 348.307 389 297.007 389 c 0
 200.707 389 189.907 352 189.907 340 c 0
 189.907 285 485.407 292 483.807 143 c 0
 483.807 80 438.807 -10 242.307 -10 c 0
 199.106 -10 136.907 -2 63.9072 28 c 2
 44.9072 36 l 1
 81.9072 133 l 1
 99.9072 126 l 1
 163.907 102 203.606 93 245.907 93 c 0
 321.507 93 354.807 110 354.807 144 c 1
EndSplineSet
EndChar

StartChar: bar
Encoding: 124 124 8
Width: 365
VWidth: 1023
Flags: W
VStem: 123.553 120<-170 802>
LayerCount: 3
Fore
SplineSet
123.553 802 m 1
 243.553 802 l 1
 243.553 -170 l 1
 123.553 -170 l 1
 123.553 802 l 1
EndSplineSet
EndChar

StartChar: b
Encoding: 98 98 9
Width: 592
VWidth: 1023
Flags: W
HStem: -10 103<186.823 361.644> 0 21G<66.291 161.291> 386 106<187.811 358.41> 674 20G<66.291 186.291>
VStem: 66.291 120<101.249 377.171 471 694> 423.891 118<152.01 320.827>
LayerCount: 3
Fore
SplineSet
66.291 694 m 5x7c
 186.291 694 l 5
 186.291 471 l 5
 219.591 484 258.291 492 301.49 492 c 4
 406.791 492 541.891 436 541.891 247 c 4
 541.891 86 436.891 -10 287.091 -10 c 4xbc
 238.49 -10 194.391 2 161.291 16 c 5
 155.291 0 l 5
 66.291 0 l 5
 66.291 694 l 5x7c
272.69 386 m 4
 246.591 386 217.791 382 186.291 370 c 5
 186.291 107 l 5
 208.791 100 240.291 93 274.49 93 c 4
 334.791 93 423.891 118 423.891 234 c 4
 423.891 362 332.99 386 272.69 386 c 4
EndSplineSet
EndChar

StartChar: l
Encoding: 108 108 10
Width: 322
VWidth: 1023
Flags: W
HStem: -9.90039 104.22<141.5 304.592> 673.75 20G<69.3868 189.4>
VStem: 69 120.145<102.826 693.75>
LayerCount: 3
Back
SplineSet
69.8545 738 m 5
 189.854 738 l 5
 189.854 0 l 5
 69.8545 0 l 5
 69.8545 738 l 5
EndSplineSet
Fore
SplineSet
252.645 94.3193 m 4
 271.645 94.3193 287.895 98.4863 310 105.1 c 5
 310 14.0996 l 5
 292.645 8.09961 277.4 -9.90039 173 -9.90039 c 4
 110 -9.90039 68.9541 37.0928 69 105.1 c 6
 69.4004 693.75 l 5
 189.4 693.75 l 5
 189.145 163.32 l 5
 189.145 126.1 191.046 94.3193 252.645 94.3193 c 4
EndSplineSet
EndChar

StartChar: w
Encoding: 119 119 11
Width: 877
VWidth: 1023
Flags: W
HStem: 0 21G<198.953 322.962 548.564 673.536> 462 20G<20.6709 156.113 381.252 502.59 732.865 869.071>
LayerCount: 3
Back
SplineSet
708.008 482.422 m 1
 793.457 482.422 l 1
 924.316 77.6367 l 1
 1048.34 482.422 l 1
 1126.95 482.422 l 1
 1255.86 78.125 l 1
 1386.72 482.422 l 1
 1472.17 482.422 l 1
 1295.9 0 l 1
 1215.33 0 l 1
 1086.91 391.113 l 1
 959.961 0 l 1
 879.395 0 l 1
 708.008 482.422 l 1
EndSplineSet
Fore
SplineSet
20.6709 482 m 1
 149.671 482 l 1
 264.671 125 l 1
 388.171 482 l 1
 496.171 482 l 1
 611.071 124 l 1
 740.071 482 l 1
 869.071 482 l 1
 665.071 0 l 1
 555.071 0 l 1
 442.171 347 l 1
 315.671 0 l 1
 206.671 0 l 1
 20.6709 482 l 1
EndSplineSet
EndChar

StartChar: exclam
Encoding: 33 33 12
Width: 266
VWidth: 1023
Flags: W
HStem: -20 138<64.7998 202.8>
VStem: 64.7998 138<-20 118> 71.7998 123<204 714>
LayerCount: 3
Fore
SplineSet
64.7998 118 m 1xc0
 202.8 118 l 1
 202.8 -20 l 1
 64.7998 -20 l 1
 64.7998 118 l 1xc0
71.7998 714 m 1xa0
 194.8 714 l 1
 194.8 204 l 1
 71.7998 204 l 1
 71.7998 714 l 1xa0
EndSplineSet
EndChar

StartChar: u
Encoding: 117 117 14
Width: 586
VWidth: 1023
Flags: W
HStem: -10 112<211.106 361.091> 0 21G<419.735 517.826> 462 20G<62.7266 182.727 397.826 517.826>
VStem: 62.7266 120<127.826 482> 397.826 120<120.712 482>
LayerCount: 3
Fore
SplineSet
397.826 482 m 1xb8
 517.826 482 l 1
 517.826 0 l 1
 428.826 0 l 1x78
 413.826 33 l 1
 341.127 -1 281.727 -10 242.127 -10 c 0
 84.7266 -10 62.7266 99 62.7266 197 c 2
 62.7266 482 l 1
 182.727 482 l 1
 182.727 198 l 2
 182.727 166 186.326 102 279.927 102 c 0
 324.026 102 370.826 118 397.826 129 c 1
 397.826 482 l 1xb8
EndSplineSet
EndChar

StartChar: p
Encoding: 112 112 15
Width: 591
VWidth: 1023
Flags: W
HStem: -10 103<188.934 361.733> 385 107<189.98 360.562> 462 20G<62.7266 161.292>
VStem: 62.7266 125<-259 7 102.057 375.31> 422.627 118<154.882 323.631>
LayerCount: 3
Fore
SplineSet
302.927 492 m 0xd8
 407.326 492 540.627 434 540.627 246 c 0
 540.627 85 435.627 -10 288.526 -10 c 0
 249.826 -10 216.526 -3 187.727 7 c 1
 187.727 -259 l 1
 62.7266 -259 l 1
 62.7266 482 l 1
 151.727 482 l 1xb8
 162.727 459 l 1
 212.927 482 261.526 492 302.927 492 c 0xd8
275.026 385 m 0xd8
 248.927 385 219.227 380 187.727 368 c 1
 187.727 108 l 1
 210.227 101 241.727 93 275.927 93 c 0
 335.326 93 422.627 119 422.627 234 c 0
 422.627 362 334.427 385 275.026 385 c 0xd8
EndSplineSet
EndChar

StartChar: q
Encoding: 113 113 16
Width: 584
VWidth: 1023
Flags: W
HStem: -10 107<225.617 394.191> 387 105<219.517 395.226> 462 20G<423.622 518.193>
VStem: 44.1934 119<159.617 327.332> 397.193 121<-259 13 106.69 375.187>
LayerCount: 3
Fore
SplineSet
293.693 492 m 0xd8
 313.493 492 353.093 491 423.193 461 c 1
 432.193 482 l 1
 518.193 482 l 5xb8
 518.193 -259 l 5
 397.193 -259 l 1
 397.193 13 l 1
 364.793 0 325.193 -10 281.993 -10 c 0
 173.993 -10 44.1934 50 44.1934 238 c 0
 44.1934 409 169.493 492 293.693 492 c 0xd8
299.093 387 m 0xd8
 217.193 387 163.193 335 163.193 246 c 0
 163.193 123 251.394 97 310.793 97 c 0
 336.894 97 365.693 102 397.193 114 c 1
 397.193 369 l 1
 351.293 384 319.793 387 299.093 387 c 0xd8
EndSplineSet
EndChar

StartChar: m
Encoding: 109 109 17
Width: 877
VWidth: 1023
Flags: W
HStem: 0 21G<62.7266 182.727 375.326 495.326 688.826 808.826> 378 114<210.385 350.81 508.948 664.799> 462 20G<62.7266 160.759>
VStem: 62.7266 120<0 360.252> 375.326 120<0 350.967> 688.826 120<0 351.278>
LayerCount: 3
Fore
SplineSet
285.326 378 m 0xdc
 263.727 378 238.526 374 182.727 352 c 1
 182.727 0 l 1
 62.7266 0 l 1
 62.7266 482 l 1
 151.727 482 l 1xbc
 165.727 451 l 1
 201.627 469 259.227 492 320.427 492 c 0
 388.326 492 426.326 464 446.326 443 c 1
 490.326 466 553.826 491 625.826 491 c 0
 773.826 491 808.826 398 808.826 286 c 2
 808.826 0 l 1
 688.826 0 l 1
 688.826 285 l 2
 688.826 344 663.627 378 597.026 378 c 0
 562.826 378 525.026 366 491.326 352 c 1
 495.326 330 495.326 306 495.326 283 c 0
 495.326 189 495.326 94 495.326 0 c 1
 375.326 0 l 1
 375.326 287 l 2
 375.326 365 324.927 378 285.326 378 c 0xdc
EndSplineSet
EndChar

StartChar: c
Encoding: 99 99 18
Width: 518
VWidth: 1023
Flags: MW
HStem: -10 90<232.52 435.388> 400 90<221.782 439.724>
VStem: 44.9072 118<159.813 323.276>
LayerCount: 3
Fore
SplineSet
44.9072 231 m 0
 44.9072 427 181.807 491 313.207 491 c 0
 367.207 491 415.207 481 460.207 461 c 2
 478.207 454 l 1
 446.207 358 l 1
 427.207 365 l 2
 395.207 376 361.207 382 324.007 382 c 0
 243.007 382 162.907 355 162.907 246 c 0
 162.907 138 231.307 96 333.907 96 c 0
 365.207 96 394.207 101 421.207 111 c 1
 440.207 118 l 1
 473.207 25 l 1
 455.207 19 l 2
 401.207 -2 348.307 -10 303.307 -10 c 0
 180.007 -10 44.9072 43 44.9072 231 c 0
EndSplineSet
EndChar

StartChar: t
Encoding: 116 116 19
Width: 432
VWidth: 1023
Flags: W
HStem: -10 103<238.605 394.75> 379 103<24.2363 99.2363 219.236 388.336>
VStem: 99.2363 120<112.105 379 482 621>
LayerCount: 3
Back
SplineSet
409.18 8.78906 m 6
 352.539 -5.85938 316.895 -9.76562 289.062 -9.76562 c 4
 129.883 -9.76562 99.1211 69.3359 99.1211 154.785 c 6
 99.1211 379.395 l 5
 34.1797 379.395 l 5
 34.1797 482.422 l 5
 99.1211 482.422 l 5
 99.1211 620.605 l 5
 242.188 620.605 l 5
 242.188 482.422 l 5
 406.25 482.422 l 5
 406.25 379.395 l 5
 242.188 379.395 l 5
 242.188 163.086 l 6
 242.188 133.789 246.582 92.7734 318.359 92.7734 c 4
 331.055 92.7734 337.402 93.75 389.648 102.539 c 6
 408.691 105.957 l 5
 427.734 13.6719 l 5
 409.18 8.78906 l 6
EndSplineSet
Fore
SplineSet
391.336 9 m 6
 334.336 -6 299.336 -10 273.236 -10 c 4
 120.236 -10 99.2363 70 99.2363 155 c 6
 99.2363 379 l 5
 24.2363 379 l 5
 24.2363 482 l 5
 99.2363 482 l 5
 99.2363 621 l 5
 219.236 621 l 5
 219.236 482 l 5
 388.336 482 l 5
 388.336 379 l 5
 219.236 379 l 5
 219.236 163 l 6
 219.236 134 234.536 93 300.336 93 c 4
 313.336 93 320.336 94 372.336 103 c 5
 391.336 106 l 5
 410.336 14 l 5
 391.336 9 l 6
EndSplineSet
EndChar

StartChar: r
Encoding: 114 114 20
Width: 429
VWidth: 1023
Flags: W
HStem: 0 21G<62.7266 182.727> 383 109<187.704 392.666> 462 20G<62.7266 153.927>
VStem: 62.7266 120<0 368.266>
LayerCount: 3
Fore
SplineSet
156.727 457 m 5xb0
 198.927 478 250.227 492 306.326 492 c 4
 340.326 492 374.326 486 406.326 471 c 6
 423.326 463 l 5
 385.326 363 l 5
 366.326 370 l 6
 343.326 379 320.326 383 293.427 383 c 4xd0
 255.627 383 216.927 375 182.727 360 c 5
 182.727 0 l 5
 62.7266 0 l 5
 62.7266 482 l 5
 142.727 482 l 5
 156.727 457 l 5xb0
EndSplineSet
EndChar

StartChar: v
Encoding: 118 118 21
Width: 526
VWidth: 1023
Flags: W
HStem: 0 21G<206.843 339.428> 462 20G<22.8096 167.3 383.02 515.409>
LayerCount: 3
Back
SplineSet
448.242 482.422 m 5
 278.809 0 l 5
 200.684 0 l 5
 31.7383 482.422 l 5
 114.746 482.422 l 5
 239.746 79.5898 l 5
 365.234 482.422 l 5
 448.242 482.422 l 5
EndSplineSet
Fore
SplineSet
515.409 482 m 1
 331.81 0 l 1
 214.81 0 l 1
 22.8096 482 l 1
 160.81 482 l 1
 276.01 127 l 1
 389.409 482 l 1
 515.409 482 l 1
EndSplineSet
EndChar

StartChar: k
Encoding: 107 107 22
Width: 558
VWidth: 1023
Flags: W
HStem: 0 21G<62.7266 182.727 377.427 543.127> 472 20G<370.144 535.127> 674 20G<62.7266 182.727>
VStem: 62.7266 120<0 240 289 694>
LayerCount: 3
Fore
SplineSet
182.727 289 m 1
 390.627 492 l 1
 535.127 492 l 1
 297.026 271 l 1
 543.127 0 l 1
 395.127 0 l 1
 182.727 240 l 1
 182.727 0 l 1
 62.7266 0 l 1
 62.7266 694 l 5
 182.727 694 l 5
 182.727 289 l 1
EndSplineSet
EndChar

StartChar: j
Encoding: 106 106 23
Width: 270
VWidth: 1023
Flags: W
HStem: 462 20G<92.416 212.416> 562 132<84.416 219.416>
VStem: 84.416 135<562 694> 92.416 120<-124.777 482>
LayerCount: 3
Fore
SplineSet
84.416 694 m 1xe0
 219.416 694 l 1
 219.416 562 l 1
 84.416 562 l 1
 84.416 694 l 1xe0
92.416 482 m 1xd0
 212.416 482 l 1
 212.416 -47 l 2
 212.416 -109 207.416 -210 70.416 -260 c 1
 53.416 -266 l 1
 6.41602 -171 l 1
 24.416 -162 l 2
 89.416 -131 92.416 -81 92.416 -55 c 2
 92.416 482 l 1xd0
EndSplineSet
EndChar

StartChar: x
Encoding: 120 120 24
Width: 558
VWidth: 1023
Flags: W
HStem: 0 21G<28.8096 177.231 392.537 549.609> 462 20G<22.8096 179.741 407.891 558.209>
LayerCount: 3
Fore
SplineSet
22.8096 482 m 1
 164.81 482 l 1
 296.209 306 l 1
 422.209 482 l 1
 558.209 482 l 1
 364.409 237 l 1
 549.609 0 l 1
 407.609 0 l 1
 282.51 166 l 1
 162.81 0 l 1
 28.8096 0 l 1
 214.109 237 l 1
 22.8096 482 l 1
EndSplineSet
EndChar

StartChar: z
Encoding: 122 122 25
Width: 546
VWidth: 1023
Flags: W
HStem: 0 103<218.835 490.035> 379 103<52.0352 308.835>
LayerCount: 3
Fore
SplineSet
52.0352 482 m 1
 478.035 482 l 1
 478.035 420 l 1
 218.835 103 l 1
 490.035 103 l 1
 490.035 0 l 1
 52.0352 0 l 1
 52.0352 62 l 1
 308.835 379 l 1
 52.0352 379 l 1
 52.0352 482 l 1
EndSplineSet
EndChar

StartChar: y
Encoding: 121 121 26
Width: 559
VWidth: 1023
Flags: W
HStem: 462 20G<17.1074 162.843 420.801 554.807>
LayerCount: 3
Back
SplineSet
24.4141 482.422 m 5
 107.422 482.422 l 5
 261.719 73.2422 l 5
 405.273 482.422 l 5
 488.281 482.422 l 5
 209.961 -259.277 l 5
 124.512 -259.277 l 5
 223.633 -18.5547 l 5
 24.4141 482.422 l 5
EndSplineSet
Fore
SplineSet
17.1074 482 m 1
 155.107 482 l 1
 298.207 112 l 1
 427.807 482 l 1
 554.807 482 l 1
 259.507 -259 l 1
 125.107 -259 l 1
 235.207 -4 l 1
 17.1074 482 l 1
EndSplineSet
EndChar

StartChar: f
Encoding: 102 102 27
Width: 459
VWidth: 1023
Flags: W
HStem: 0 21G<127.044 247.044> 379 103<47.0439 127.044 247.044 428.044> 591 107<272.764 449.778>
VStem: 127.044 120<0 379 482 567.089>
LayerCount: 3
Back
SplineSet
323.318 630.762 m 4
 210.623 630.762 216.771 541.855 216.797 528.32 c 6
 216.882 482.422 l 5
 378.418 482.422 l 5
 378.418 419.434 l 5
 216.998 419.434 l 5
 217.773 0 l 5
 136.719 0 l 5
 135.947 419.434 l 5
 65.918 419.434 l 5
 65.918 482.422 l 5
 135.832 482.422 l 5
 135.742 531.25 l 6
 135.74 532.319 135.738 533.389 135.738 534.458 c 4
 135.738 562.729 136.691 596.313 154.57 627.739 c 4
 180.199 672.788 231.644 697.729 296.711 697.729 c 4
 339.584 697.729 383.08 687.705 412.598 678.711 c 5
 400.391 619.141 l 5
 385.474 623.262 354.147 630.762 323.318 630.762 c 4
EndSplineSet
Fore
SplineSet
127.044 511 m 6
 127.044 584 129.044 698 323.544 698 c 4
 349.044 698 390.044 696 449.044 678 c 6
 466.044 672 l 5
 446.044 575 l 5
 426.044 580 l 6
 412.044 583 382.044 591 353.044 591 c 4
 277.645 591 247.044 561 247.044 515 c 6
 247.044 482 l 5
 428.044 482 l 5
 428.044 379 l 5
 247.044 379 l 5
 247.044 0 l 5
 127.044 0 l 5
 127.044 379 l 5
 47.0439 379 l 5
 47.0439 482 l 5
 127.044 482 l 5
 127.044 511 l 6
EndSplineSet
EndChar

StartChar: G
Encoding: 71 71 28
Width: 756
VWidth: 1023
Flags: W
HStem: -10 114<342.68 552.176> 278 108<387.34 582.64> 586 113<335.644 555.307>
VStem: 68.04 124<247.869 448.158> 582.64 121<130.36 278>
LayerCount: 3
Fore
SplineSet
703.64 101 m 1
 677.64 73 598.64 -10 431.439 -10 c 0
 182.04 -10 68.04 175 68.04 346 c 0
 68.04 528 196.54 699 429.64 699 c 0
 522.34 699 602.64 671 661.64 638 c 1
 678.64 628 l 1
 627.64 531 l 1
 609.64 541 l 1
 571.84 561 504.34 586 434.14 586 c 0
 310.84 586 192.04 499 192.04 351 c 0
 192.04 207 300.939 104 450.34 104 c 0
 508.84 104 552.04 121 582.64 145 c 1
 582.64 278 l 1
 387.34 278 l 1
 387.34 386 l 1
 703.64 386 l 1
 703.64 101 l 1
EndSplineSet
EndChar

StartChar: H
Encoding: 72 72 29
Width: 759
VWidth: 1023
Flags: W
HStem: 0 21G<90 213 546.899 669.899> 301 114<213 546.899> 674 20G<90 213 546.899 669.899>
VStem: 90 123<0 301 415 694> 546.899 123<0 301 415 694>
LayerCount: 3
Fore
SplineSet
546.899 694 m 1
 669.899 694 l 1
 669.899 0 l 1
 546.899 0 l 1
 546.899 301 l 1
 213 301 l 1
 213 0 l 1
 90 0 l 1
 90 694 l 1
 213 694 l 1
 213 415 l 1
 546.899 415 l 1
 546.899 694 l 1
EndSplineSet
EndChar

StartChar: g
Encoding: 103 103 30
Width: 589
VWidth: 1023
Flags: W
HStem: -264 107<130.489 340.633> -10 106<231.992 400.981> 387 105<227.837 400.947> 462 20G<425.626 522.293>
VStem: 44.1934 125<161.09 328.324> 402.293 120<-92.3037 12 106.606 375.187>
LayerCount: 3
Back
SplineSet
286.684 492.041 m 4xec
 313.293 492.041 352.924 487.618 419.733 453.651 c 5
 430.176 482.422 l 5
 486.328 482.422 l 5xdc
 486.328 -23.4375 l 6
 486.328 -62.5078 491.895 -210.006 326.172 -254.395 c 4
 300.925 -261.156 274.907 -264.252 248.799 -264.252 c 4
 196.57 -264.252 144.227 -251.671 99.6094 -232.91 c 5
 122.07 -174.805 l 5
 163.115 -190.082 203.31 -197.343 238.229 -197.434 c 6
 238.88 -197.434 l 6
 286.901 -197.434 390.503 -182.414 404.046 -57.8594 c 4
 406.107 -38.9043 406.254 -19.8086 406.254 -0.730469 c 6
 406.25 23.25 l 5
 372.193 5.11621 327.293 -9.56543 278.64 -9.56543 c 4
 178.387 -9.56543 62.6016 55.1787 62.6016 239.893 c 4
 62.6016 435.66 205.028 492.041 286.684 492.041 c 4xec
291.559 427.169 m 4xec
 200.986 427.169 140.604 356.376 140.604 248.859 c 4
 140.604 143.656 193.689 56.3145 301.394 56.3145 c 4
 343.336 56.3145 380.688 70.2812 406.25 83.9062 c 5
 406.25 400.048 l 5
 341.643 426.57 302.857 427.169 291.559 427.169 c 4xec
EndSplineSet
Fore
SplineSet
299.693 492 m 0xec
 319.493 492 359.093 491 425.293 461 c 1
 432.293 482 l 1
 522.293 482 l 1xdc
 522.293 -10 l 2
 522.293 -124 472.293 -264 260.993 -264 c 0
 215.993 -264 156.193 -255 94.1934 -231 c 1
 76.1934 -224 l 1
 112.193 -129 l 1
 132.193 -136 l 1
 162.193 -146 204.293 -157 249.293 -157 c 0
 382.493 -157 402.293 -69 402.293 8 c 2
 402.293 12 l 1
 369.894 -1 332.993 -10 291.593 -10 c 0
 179.093 -10 44.1934 56 44.1934 240 c 0
 44.1934 431 203.394 492 299.693 492 c 0xec
304.193 387 m 0xec
 223.193 387 169.193 333 169.193 248 c 0
 169.193 164 216.894 96 314.993 96 c 0
 349.193 96 378.894 105 402.293 114 c 1
 402.293 369 l 1
 357.293 384 323.993 387 304.193 387 c 0xec
EndSplineSet
EndChar

StartChar: O
Encoding: 79 79 31
Width: 801
VWidth: 1023
Flags: W
HStem: -7 112<319.415 505.986> 588 113<313.661 499.714>
VStem: 68.04 126<241.41 466.352> 626.04 126<231.566 456.638>
LayerCount: 3
Fore
SplineSet
410.939 701 m 4
 601.739 701 752.04 568 752.04 354 c 4
 752.04 139 605.34 -7 407.34 -7 c 4
 238.14 -7 68.04 109 68.04 345 c 4
 68.04 562 217.439 701 410.939 701 c 4
406.439 588 m 4
 303.84 588 194.04 518 194.04 355 c 4
 194.04 201 291.239 105 413.64 105 c 4
 514.439 105 626.04 176 626.04 346 c 4
 626.04 518 508.14 588 406.439 588 c 4
EndSplineSet
EndChar

StartChar: A
Encoding: 65 65 32
Width: 690
VWidth: 1023
Flags: W
HStem: 0 21G<40.8242 168.44 547.31 682.024> 182 112<268.824 446.124> 674 20G<292.846 429.323>
LayerCount: 3
Fore
SplineSet
300.324 694 m 1
 421.824 694 l 1
 682.024 0 l 1
 555.024 0 l 1
 484.824 182 l 1
 230.124 182 l 1
 160.824 0 l 1
 40.8242 0 l 1
 300.324 694 l 1
446.124 294 m 1
 357.924 552 l 1
 268.824 294 l 1
 446.124 294 l 1
EndSplineSet
EndChar

StartChar: L
Encoding: 76 76 33
Width: 563
VWidth: 1023
Flags: W
HStem: 0 113<215.016 542.915> 674 20G<92.0156 215.016>
VStem: 92.0156 123<113 694>
LayerCount: 3
Fore
SplineSet
92.0156 694 m 1
 215.016 694 l 1
 215.016 113 l 1
 542.915 113 l 1
 542.915 0 l 1
 92.0156 0 l 1
 92.0156 694 l 1
EndSplineSet
EndChar

StartChar: E
Encoding: 69 69 34
Width: 614
VWidth: 1023
Flags: W
HStem: 0 113<215.016 553.715> 301 113<215.016 527.715> 581 113<215.016 553.715>
VStem: 92.0156 123<113 301 414 581>
LayerCount: 3
Fore
SplineSet
92.0156 0 m 1
 92.0156 694 l 1
 553.715 694 l 1
 553.715 581 l 1
 215.016 581 l 1
 215.016 414 l 1
 527.715 414 l 1
 527.715 301 l 1
 215.016 301 l 1
 215.016 113 l 1
 553.715 113 l 1
 553.715 0 l 1
 92.0156 0 l 1
EndSplineSet
EndChar

StartChar: F
Encoding: 70 70 35
Width: 601
VWidth: 1023
Flags: W
HStem: 0 21G<92.0156 215.016> 301 113<215.016 520.115> 581 113<215.016 550.115>
VStem: 92.0156 123<0 301 414 581>
LayerCount: 3
Fore
SplineSet
215.016 581 m 1
 215.016 414 l 1
 520.115 414 l 1
 520.115 301 l 1
 215.016 301 l 1
 215.016 0 l 1
 92.0156 0 l 1
 92.0156 694 l 1
 550.115 694 l 1
 550.115 581 l 1
 215.016 581 l 1
EndSplineSet
EndChar

StartChar: N
Encoding: 78 78 36
Width: 786
VWidth: 1023
Flags: W
HStem: 0 21G<90 213 546.522 696> 674 20G<90 236.903 573 696>
VStem: 90 123<0 534> 573 123<161 694>
LayerCount: 3
Fore
SplineSet
90 694 m 1
 223.8 694 l 1
 573 161 l 1
 573 694 l 1
 696 694 l 1
 696 0 l 1
 559.5 0 l 1
 213 534 l 1
 213 0 l 1
 90 0 l 1
 90 694 l 1
EndSplineSet
EndChar

StartChar: V
Encoding: 86 86 37
Width: 694
VWidth: 1023
Flags: W
HStem: 0 21G<289.967 450.166> 674 20G<44.0645 189.807 543.94 682.764>
LayerCount: 3
Fore
SplineSet
44.0645 694 m 1
 182.964 694 l 1
 375.264 132 l 1
 550.164 694 l 1
 682.764 694 l 1
 443.264 0 l 1
 297.264 0 l 1
 44.0645 694 l 1
EndSplineSet
EndChar

StartChar: Z
Encoding: 90 90 38
Width: 671
VWidth: 1023
Flags: W
HStem: 0 113<219.647 647.447> 581 113<63.248 455.447>
LayerCount: 3
Fore
SplineSet
63.248 694 m 1
 634.447 694 l 1
 634.447 619 l 1
 219.647 113 l 1
 647.447 113 l 1
 647.447 0 l 1
 49.248 0 l 1
 49.248 76 l 1
 455.447 581 l 1
 63.248 581 l 1
 63.248 694 l 1
EndSplineSet
EndChar

StartChar: T
Encoding: 84 84 39
Width: 630
VWidth: 1023
Flags: W
HStem: 0 21G<265.115 389.115> 581 113<27.2148 265.115 389.115 627.016>
VStem: 265.115 124<0 581>
LayerCount: 3
Fore
SplineSet
27.2148 694 m 5
 627.016 694 l 5
 627.016 581 l 5
 389.115 581 l 5
 389.115 0 l 5
 265.115 0 l 5
 265.115 581 l 5
 27.2148 581 l 5
 27.2148 694 l 5
EndSplineSet
EndChar

StartChar: I
Encoding: 73 73 40
Width: 303
VWidth: 1023
Flags: W
HStem: 0 21G<90 213> 674 20G<90 213>
VStem: 90 123<0 694>
LayerCount: 3
Fore
SplineSet
90 694 m 5
 213 694 l 5
 213 0 l 5
 90 0 l 5
 90 694 l 5
EndSplineSet
EndChar

StartChar: X
Encoding: 88 88 41
Width: 698
VWidth: 1023
Flags: W
HStem: 0 21G<34.9922 199.297 539.887 709.191> 674 20G<64.9922 223.957 526.467 682.191>
LayerCount: 3
Fore
SplineSet
539.691 694 m 1
 682.191 694 l 1
 449.691 363 l 1
 709.191 0 l 1
 553.191 0 l 1
 369.592 276 l 1
 185.992 0 l 1
 34.9922 0 l 1
 297.592 362 l 1
 64.9922 694 l 1
 210.292 694 l 1
 377.691 449 l 1
 539.691 694 l 1
EndSplineSet
EndChar

StartChar: Y
Encoding: 89 89 42
Width: 658
VWidth: 1023
Flags: W
HStem: 0 21G<275.053 413.053> 674 20G<31.752 187.248 512.43 664.452>
VStem: 275.053 138<0 324>
LayerCount: 3
Fore
SplineSet
31.752 694 m 1
 174.252 694 l 1
 349.053 425 l 1
 525.553 694 l 1
 664.452 694 l 1
 413.053 324 l 1
 413.053 0 l 1
 275.053 0 l 1
 275.053 324 l 1
 31.752 694 l 1
EndSplineSet
EndChar

StartChar: K
Encoding: 75 75 43
Width: 691
VWidth: 1023
Flags: W
HStem: 0 21G<92.0156 215.016 496.03 672.815> 674 20G<92.0156 215.016 481.528 655.815>
VStem: 92.0156 123<0 336 376 694>
LayerCount: 3
Fore
SplineSet
215.016 376 m 1
 499.415 694 l 1
 655.815 694 l 1
 341.016 362 l 1
 672.815 0 l 1
 513.815 0 l 1
 215.016 336 l 1
 215.016 0 l 1
 92.0156 0 l 1
 92.0156 694 l 1
 215.016 694 l 1
 215.016 376 l 1
EndSplineSet
EndChar

StartChar: M
Encoding: 77 77 44
Width: 884
VWidth: 1023
Flags: W
HStem: 0 21G<90 213 671.1 794.1> 674 20G<90 246.775 643.444 794.1>
VStem: 90 123<0 519> 671.1 123<0 519>
LayerCount: 3
Fore
SplineSet
90 694 m 1
 236.399 694 l 1
 443.399 295 l 1
 654 694 l 1
 794.1 694 l 1
 794.1 0 l 1
 671.1 0 l 1
 671.1 519 l 1
 493.8 199 l 1
 389.399 199 l 1
 213 519 l 1
 213 0 l 1
 90 0 l 1
 90 694 l 1
EndSplineSet
EndChar

StartChar: hyphen
Encoding: 45 45 45
Width: 553
VWidth: 1023
Flags: W
HStem: 268 107<46.7998 506.8>
LayerCount: 3
Fore
SplineSet
46.7998 375 m 1
 506.8 375 l 1
 506.8 268 l 1
 46.7998 268 l 1
 46.7998 375 l 1
EndSplineSet
EndChar

StartChar: J
Encoding: 74 74 46
Width: 479
VWidth: 1023
Flags: W
HStem: -8 113<52.0469 231.065> 9 108<53.6959 139.007> 674 20G<289.092 412.092>
VStem: 289.092 123<163.703 694>
LayerCount: 3
Fore
SplineSet
289.092 694 m 1xb0
 412.092 694 l 1
 412.092 250 l 2
 412.092 141 384.092 -8 153.992 -8 c 0xb0
 119.992 -8 85.9922 -4 52.9922 4 c 2
 34.9922 9 l 1
 54.9922 117 l 1x70
 75.9922 112 l 2
 96.9922 107 118.992 105 139.992 105 c 0
 282.792 105 289.092 207 289.092 250 c 2
 289.092 694 l 1xb0
EndSplineSet
EndChar

StartChar: R
Encoding: 82 82 47
Width: 693
VWidth: 1023
Flags: W
HStem: 0 21G<92.0156 215.016 482.767 655.815> 269 113<215.016 320.315> 581 113<215.016 433.038>
VStem: 92.0156 123<0 269 382 581> 472.415 128<420.441 544.004>
LayerCount: 3
Fore
SplineSet
600.415 495 m 0
 600.415 410 561.415 324 450.815 290 c 1
 655.815 0 l 1
 495.815 0 l 5
 320.315 269 l 1
 215.016 269 l 1
 215.016 0 l 1
 92.0156 0 l 1
 92.0156 694 l 1
 369.815 694 l 2
 445.415 694 600.415 681 600.415 495 c 0
215.016 581 m 1
 215.016 382 l 1
 316.715 382 l 2
 395.016 382 472.415 394 472.415 484 c 0
 472.415 549 427.415 581 337.415 581 c 2
 215.016 581 l 1
EndSplineSet
EndChar

StartChar: D
Encoding: 68 68 48
Width: 756
VWidth: 0
Flags: W
HStem: 0 113<217.608 443.567> 581 113<217.608 446.655>
VStem: 94.6084 123<113 581> 572.208 123<238.84 455.43>
LayerCount: 3
Back
SplineSet
141.602 693.848 m 5
 335.449 693.848 l 6
 388.852 693.848 706.079 709.16 706.079 367.926 c 4
 706.079 -20.4775 382.459 0 291.992 0 c 6
 141.602 0 l 5
 141.602 693.848 l 5
224.609 620.605 m 5
 224.609 73.2422 l 5
 325.684 73.2422 l 6
 438.754 73.2422 622.764 91.7266 622.764 351.336 c 4
 622.764 466.555 570.088 620.605 359.375 620.605 c 6
 224.609 620.605 l 5
EndSplineSet
Fore
SplineSet
331.008 581 m 2
 217.608 581 l 1
 217.608 113 l 1
 297.708 113 l 2
 374.208 113 484.908 116 541.608 221 c 0
 554.208 244 572.208 286 572.208 351 c 0
 572.208 499 474.108 564 391.309 577 c 0
 372.408 580 351.708 581 331.008 581 c 2
328.309 694 m 2
 615.208 694 695.208 520 695.208 367 c 0
 695.208 226 639.208 61 446.208 15 c 1
 386.809 0 326.508 0 268.008 0 c 2
 94.6084 0 l 5
 94.6084 694 l 5
 328.309 694 l 2
EndSplineSet
EndChar

StartChar: P
Encoding: 80 80 49
Width: 645
VWidth: 1023
Flags: W
HStem: 0 21G<92.0156 215.016> 268 112<215.016 426.107> 581 113<215.016 431.961>
VStem: 92.0156 123<0 270 383 581> 476.915 126<425.702 542.68>
LayerCount: 3
Fore
SplineSet
92.0156 694 m 1
 328.415 694 l 2
 418.415 694 602.915 690 602.915 499 c 0
 602.915 288 419.315 268 269.016 268 c 0
 250.115 268 233.016 269 215.016 270 c 1
 215.016 0 l 1
 92.0156 0 l 1
 92.0156 694 l 1
215.016 581 m 1
 215.016 383 l 1
 235.715 382 255.516 380 276.215 380 c 0
 381.516 380 476.915 389 476.915 485 c 0
 476.915 570 395.016 581 305.915 581 c 2
 215.016 581 l 1
EndSplineSet
EndChar

StartChar: B
Encoding: 66 66 50
Width: 680
VWidth: 1023
Flags: W
HStem: 0 113<215.016 450.252> 320 78<215.016 387.193> 590 104<215.016 410.346>
VStem: 92.0156 123<113 314 398 590> 445.415 136<443.934 558.378> 508.415 123<157.174 266.575>
LayerCount: 3
Fore
SplineSet
316.715 590 m 2xf8
 215.016 590 l 1
 215.016 398 l 1
 316.715 400 445.415 400 445.415 503 c 0
 445.415 538 428.315 590 316.715 590 c 2xf8
323.915 320 m 0
 313.115 320 301.415 318 215.016 314 c 1
 215.016 113 l 1
 313.115 113 l 2
 372.516 113 508.415 115 508.415 212 c 0xf4
 508.415 279 436.415 320 323.915 320 c 0
92.0156 694 m 1
 341.915 694 l 2
 544.415 694 581.415 576 581.415 517 c 0xf8
 581.415 471 553.415 422 518.415 392 c 1
 591.415 362 631.415 294 631.415 218 c 0
 631.415 152 586.415 0 324.815 0 c 2
 92.0156 0 l 1
 92.0156 694 l 1
EndSplineSet
EndChar

StartChar: U
Encoding: 85 85 51
Width: 748
VWidth: 1023
Flags: W
HStem: -10 112<278.836 468.093> 674 20G<90 213 535.199 657.199>
VStem: 90 123<160.884 694> 535.199 123<163.255 694>
LayerCount: 3
Back
SplineSet
141.602 693.848 m 5
 224.609 693.848 l 5
 224.609 244.141 l 6
 224.609 198.398 227.598 155.326 261.23 117.188 c 4
 276.926 99.3896 318.848 62.0117 405.273 62.0117 c 4
 496.265 62.0117 561.855 103.221 580.083 176.818 c 4
 585.513 198.742 585.938 221.554 585.938 244.141 c 6
 585.938 693.848 l 5
 668.945 693.848 l 5
 668.945 302.734 l 6
 668.945 280.773 669.727 258.656 669.727 236.623 c 4
 669.727 156.677 661.968 -10.2539 405.273 -10.2539 c 4
 203.904 -10.2539 161.146 97.8154 149.414 146.484 c 4
 142.311 175.951 140.818 206.203 140.818 236.613 c 4
 140.818 258.65 141.602 280.77 141.602 302.734 c 6
 141.602 693.848 l 5
EndSplineSet
Fore
SplineSet
374.1 -10 m 4
 94 -10 90 160 90 237 c 0
 90 239 90 241 90 243 c 6
 90 694 l 5
 213 694 l 5
 213 254 l 6
 213 212 216.6 177 244.5 147 c 4
 256.199 134 294 102 374.1 102 c 4
 456.899 102 513.6 135 528.899 195 c 4
 533.399 213 535.199 233 535.199 254 c 6
 535.199 694 l 5
 657.199 694 l 5
 657.199 250 658.199 295 658.199 250 c 4
 658.199 166 646.199 -10 374.1 -10 c 4
EndSplineSet
EndChar

StartChar: Q
Encoding: 81 81 52
Width: 816
VWidth: 1023
Flags: W
HStem: -7 112<325.677 516.958> 588 113<313.621 499.291>
VStem: 68.04 126<238.677 466.327> 624.239 128<217.347 456.017>
LayerCount: 3
Fore
SplineSet
410.939 701 m 0
 610.739 701 752.239 561 752.239 346 c 0
 752.239 254 728.239 179 686.239 121 c 1
 775.239 37 l 1
 704.239 -36 l 1
 608.04 53 l 1
 545.939 8 474.84 -7 411.84 -7 c 0
 224.64 -7 68.04 121 68.04 344 c 0
 68.04 563 217.439 701 410.939 701 c 0
403.739 588 m 0
 305.64 588 194.04 520 194.04 353 c 0
 194.04 190 300.239 105 420.84 105 c 0
 466.739 105 502.739 118 525.239 131 c 1
 378.54 263 l 1
 455.939 338 l 1
 597.239 206 l 1
 615.239 240 624.239 282 624.239 335 c 0
 624.239 537 491.939 588 403.739 588 c 0
EndSplineSet
EndChar

StartChar: W
Encoding: 87 87 53
Width: 1115
VWidth: 1023
Flags: W
HStem: 0 21G<266.465 397.708 712.103 843.429> 674 20G<44.0645 180.068 513.662 628.158 964.447 1101.76>
LayerCount: 3
Fore
SplineSet
44.0645 694 m 1
 174.064 694 l 1
 334.064 161 l 1
 520.664 694 l 1
 622.364 694 l 1
 776.764 161 l 1
 971.764 694 l 1
 1101.76 694 l 1
 835.764 0 l 1
 717.764 0 l 1
 567.464 531 l 1
 391.064 0 l 1
 273.064 0 l 1
 44.0645 694 l 1
EndSplineSet
EndChar

StartChar: C
Encoding: 67 67 54
Width: 702
VWidth: 1023
Flags: W
HStem: -10 116<357.873 593.01> 585 114<349.414 584.355>
VStem: 86.832 124<248.993 445.898>
LayerCount: 3
Fore
SplineSet
455.633 699 m 0
 509.633 699 578.133 689 651.133 660 c 1
 669.133 653 l 1
 631.133 547 l 1
 612.133 554 l 1
 534.832 581 484.433 585 452.933 585 c 0
 302.633 585 210.832 472 210.832 347 c 0
 210.832 218 308.933 106 470.933 106 c 0
 515.032 106 567.133 116 621.133 135 c 2
 639.133 141 l 1
 679.133 43 l 1
 661.133 36 l 2
 588.133 5 513.232 -10 449.332 -10 c 0
 224.332 -10 86.832 149 86.832 346 c 0
 86.832 546 230.633 699 455.633 699 c 0
EndSplineSet
EndChar

StartChar: S
Encoding: 83 83 55
Width: 657
VWidth: 1023
Flags: W
HStem: -10 122<204.644 431.037> 558 113<481.914 557.307> 582 118<278.981 526.867>
VStem: 95.8154 134<460.459 540.749> 477.516 132<150.841 238.8>
LayerCount: 3
Fore
SplineSet
393.615 700 m 0xb8
 466.516 700 535.715 683 574.715 671 c 2
 594.715 666 l 1
 554.715 552 l 1
 535.715 558 l 1xd8
 467.415 578 417.016 582 386.415 582 c 0
 302.715 582 229.815 549 229.815 499 c 0
 229.815 380 611.715 423 609.516 200 c 0
 609.516 106 528.516 -10 315.516 -10 c 0
 227.315 -10 160.815 13 93.8154 39 c 1
 75.8154 45 l 1
 117.815 164 l 1
 136.815 156 l 1
 226.415 123 287.615 112 325.415 112 c 0
 415.415 112 477.516 146 477.516 196 c 0
 480.915 328 95.8154 272 95.8154 493 c 0
 95.8154 606 214.815 700 393.615 700 c 0xb8
EndSplineSet
EndChar

StartChar: at
Encoding: 64 64 56
Width: 992
VWidth: 1023
Flags: W
HStem: -229 110<366.19 590.004> -76 106<710.983 783.758> -30 103<434.277 584.433> 390 100<431.299 585.147> 584 119<387.001 659.525>
VStem: 48.96 122<86.8278 354.362> 253.96 115<139.488 323.618> 585.96 116<82.7344 382.024> 836.96 123<105.523 402.705>
LayerCount: 3
Fore
SplineSet
603.96 468 m 1xbf80
 612.96 493 l 1
 701.96 493 l 1
 701.96 123 l 2
 701.96 62 707.96 30 744.96 30 c 0
 770.96 30 836.96 70 836.96 249 c 0
 836.96 431 772.96 584 517.96 584 c 0
 237.96 584 170.96 360 170.96 214 c 0
 170.96 -6 321.96 -119 477.96 -119 c 0
 530.96 -119 574.96 -106 610.96 -88 c 1
 628.96 -80 l 1
 677.96 -173 l 1
 659.96 -182 l 2
 607.96 -209 542.96 -229 464.96 -229 c 0
 329.96 -229 48.96 -165 48.96 197 c 0
 48.96 429 151.96 703 538.96 703 c 0
 896.96 703 959.96 464 959.96 259 c 0
 959.96 -21 810.96 -76 734.96 -76 c 0xdf80
 676.96 -76 629.96 -46 605.96 0 c 1
 563.96 -21 519.96 -30 482.96 -30 c 0
 352.96 -30 253.96 66 253.96 221 c 0
 253.96 378 350.96 490 495.96 490 c 0
 537.96 490 574.96 480 603.96 468 c 1xbf80
506.96 390 m 0
 426.96 390 368.96 335 368.96 232 c 0
 368.96 127 429.96 73 508.96 73 c 0xbf80
 531.96 73 558.96 78 585.96 91 c 1
 585.96 375 l 1
 564.96 383 536.96 390 506.96 390 c 0
EndSplineSet
EndChar

StartChar: question
Encoding: 63 63 57
Width: 486
VWidth: 1023
Flags: W
HStem: -20 138<125.561 263.561> 612 110<75.9303 282.192>
VStem: 125.561 138<-20 118> 132.561 123<171 269.925> 320.561 121<461.034 575.502>
LayerCount: 3
Fore
SplineSet
125.561 118 m 1xe8
 263.561 118 l 1
 263.561 -20 l 1
 125.561 -20 l 1
 125.561 118 l 1xe8
441.561 536 m 0
 441.561 328 255.561 355 255.561 191 c 2
 255.561 171 l 1
 132.561 171 l 1
 132.561 191 l 2xd8
 132.561 407 320.561 401 320.561 522 c 0
 320.561 556 300.561 612 186.561 612 c 0
 149.561 612 101.561 601 75.5605 590 c 2
 56.5605 583 l 1
 16.5605 678 l 1
 33.5605 687 l 2
 85.5605 713 144.561 722 200.561 722 c 0
 346.561 722 441.561 661 441.561 536 c 0
EndSplineSet
EndChar

StartChar: eight
Encoding: 56 56 58
Width: 649
VWidth: 1023
Flags: W
HStem: -10 114<232.886 423.294> 593 110<244.775 408.225>
VStem: 40 126.001<160.431 278.382> 79 128.001<471.105 558.631> 444 126<467.352 559.72> 482 127<156.571 277.446>
LayerCount: 3
Fore
SplineSet
321 593 m 0xd8
 253 593 207.001 554 207.001 516 c 0
 207.001 459 290 434 348 418 c 1
 414 455 444 478 444 511 c 0
 444 566 386 593 321 593 c 0xd8
482 214 m 0xe4
 482 294 402 330 308 354 c 1
 218.001 329 166.001 272 166.001 218 c 0
 166.001 160 227.001 104 332 104 c 0
 427 104 482 155 482 214 c 0xe4
321 703 m 0
 492 703 570 633 570 524 c 0xd8
 570 469 540 428 489 388 c 1
 572 343 609 278 609 208 c 0
 609 100 514 -10 327 -10 c 0
 162.001 -10 40 75 40 199 c 0xe4
 40 272 88.001 342 159.001 385 c 1
 93.001 430 79 491 79 526 c 0xd0
 79 623 166.001 703 321 703 c 0
EndSplineSet
EndChar

StartChar: nine
Encoding: 57 57 59
Width: 668
VWidth: 1023
Flags: W
HStem: -7 112<115.813 339.617> 236 108<253.242 421.689> 595 109<253.933 408.999>
VStem: 60 121<405.369 525.662> 487 121<242.525 519.154>
LayerCount: 3
Fore
SplineSet
343 704 m 0
 456 704 608 654 608 404 c 0
 608 84 414 -7 189 -7 c 0
 166 -7 147 -6 126 -4 c 2
 106 -2 l 1
 116 110 l 1
 136 108 l 2
 153 106 169 105 187 105 c 0
 395 105 445 187 465 272 c 1
 419 247 366 236 316 236 c 0
 164 236 60 330 60 458 c 0
 60 591 172 704 343 704 c 0
331 595 m 0
 251 595 181 530 181 466 c 0
 181 397 255 344 337 344 c 0
 420 344 487 398 487 461 c 0
 487 523 417 595 331 595 c 0
EndSplineSet
EndChar

StartChar: six
Encoding: 54 54 60
Width: 667
VWidth: 1023
Flags: W
HStem: -12 108<258.381 412.346> 367 108<244.187 417.006> 586 113<336.623 552>
VStem: 60 121<171.887 304.497> 487 120<166.829 305.096>
LayerCount: 3
Fore
SplineSet
478 699 m 0
 501 699 521 698 542 696 c 2
 561 694 l 1
 552 582 l 1
 532 583 l 2
 515 585 499 586 481 586 c 0
 290 586 227 513 203 438 c 1
 244 461 295 475 353 475 c 0
 508 475 607 380 607 245 c 0
 607 106 502 -12 326 -12 c 0
 212 -12 60 36 60 285 c 0
 60 608 253 699 478 699 c 0
331 367 m 0
 248 367 181 316 181 242 c 0
 181 170 247 96 337 96 c 0
 419 96 487 160 487 236 c 0
 487 317 412 367 331 367 c 0
EndSplineSet
EndChar

StartChar: seven
Encoding: 55 55 61
Width: 677
VWidth: 0
Flags: W
HStem: 0 21G<124 276.981> 576 118<50 477>
LayerCount: 3
Fore
SplineSet
50 694 m 1
 637 694 l 1
 637 621 l 1
 265 0 l 1
 124 0 l 1
 477 576 l 1
 50 576 l 1
 50 694 l 1
EndSplineSet
EndChar

StartChar: five
Encoding: 53 53 62
Width: 666
VWidth: 1023
Flags: W
HStem: -10 115<79.8125 404.459> 12 113<82.5133 265.142> 343 115<220.574 404.521> 581 113<218.999 593>
VStem: 95 123.999<454 581> 488 128<166.877 279.804>
LayerCount: 3
Fore
SplineSet
95 694 m 1xbc
 593 694 l 1
 593 581 l 1
 218.999 581 l 1
 218.999 454 l 1
 243.999 456 276 458 309 458 c 0
 559 458 616 321 616 231 c 0
 616 135 554 -10 275 -10 c 0xbc
 200.999 -10 136.999 -3 80 8 c 2
 60 12 l 1
 84 125 l 1x7c
 103.999 121 l 1
 147.999 112 206.999 105 268 105 c 0
 449 105 488 177 488 224 c 0
 488 269 446 343 278 343 c 0
 244.999 343 192.999 341 116.999 332 c 1
 95 329 l 1
 95 694 l 1xbc
EndSplineSet
EndChar

StartChar: two
Encoding: 50 50 63
Width: 666
VWidth: 0
Flags: W
HStem: 0 113<211 576> 587 112<141.226 378.085>
VStem: 437 126<449.13 538.233>
LayerCount: 3
Back
SplineSet
96.6797 644.043 m 5
 155.896 673.452 233.834 698.75 313.556 698.75 c 4
 453.259 698.75 540.112 617.007 540.112 520.049 c 4
 540.112 345.451 290.514 308.498 210.875 73.2422 c 5
 552.734 73.2422 l 5
 552.734 0 l 5
 109.863 0 l 5
 109.863 45.4102 l 5
 185.488 281.876 380.651 378.309 430.302 442.562 c 4
 441.684 457.291 453.467 477.879 453.467 505.4 c 4
 453.467 571.147 383.816 627.061 297.678 627.061 c 4
 256.503 627.061 214.643 613.662 194.74 607.529 c 6
 115.723 582.031 l 5
 96.6797 644.043 l 5
EndSplineSet
Fore
SplineSet
53 64 m 1
 149 345 437 397 437 492 c 0
 437 541 370 587 280 587 c 0
 229 587 171 577 86 548 c 2
 67 542 l 1
 30 642 l 1
 47 650 l 1
 112 678 201 699 298 699 c 0
 465 699 563 616 563 513 c 0
 563 344 314 306 211 113 c 1
 576 113 l 1
 576 0 l 1
 53 0 l 1
 53 64 l 1
EndSplineSet
EndChar

StartChar: three
Encoding: 51 51 64
Width: 660
VWidth: 1023
Flags: W
HStem: -22 117<135.565 390.904> 314 111<209 371.798> 587 115<175.419 394.959>
VStem: 430 130<470.228 555.221> 465 125<154.173 256.482>
LayerCount: 3
Fore
SplineSet
85 650 m 6xf0
 131 673 214 702 309 702 c 4
 459 702 560 629 560 527 c 4xf0
 560 466 531 413 483 381 c 5
 560 347 590 287 590 220 c 4
 590 75 466 -22 275 -22 c 4
 208 -22 139 -10 73 17 c 6
 55 24 l 5
 91 127 l 5
 109 123 l 6
 194 101 240 95 276 95 c 4
 378 95 465 139 465 205 c 4xe8
 465 248 426 314 232 314 c 6
 209 314 l 5
 209 425 l 5
 232 425 l 6
 391 425 430 479 430 514 c 4
 430 556 378 587 297 587 c 4
 262 587 203 580 130 548 c 5
 111 540 l 5
 69 642 l 5
 85 650 l 6xf0
EndSplineSet
EndChar

StartChar: one
Encoding: 49 49 65
Width: 594
VWidth: 0
Flags: W
HStem: 0 113<77 252 393 561> 674 20G<196.496 393>
VStem: 252 141<113 573>
LayerCount: 3
Fore
SplineSet
253 694 m 1
 393 694 l 1
 393 113 l 1
 561 113 l 1
 561 0 l 1
 77 0 l 1
 77 113 l 1
 252 113 l 1
 252 573 l 1
 120.6 529.5 l 1
 73.5996 630.5 l 1
 253 694 l 1
EndSplineSet
EndChar

StartChar: zero
Encoding: 48 48 66
Width: 727
VWidth: 1023
Flags: W
HStem: -10 114<286.779 440.64> 588 115<284.672 441.919>
VStem: 60 123<227.02 470.272> 544 123<225.789 469.377>
LayerCount: 3
Fore
SplineSet
363 588 m 0
 291 588 183 535 183 355 c 0
 183 159 291 104 364 104 c 0
 436 104 544 159 544 352 c 0
 544 535 436 588 363 588 c 0
363 703 m 0
 492 703 667 624 667 354 c 0
 667 72 493 -10 364 -10 c 0
 234 -10 60 74 60 355 c 0
 60 624 235 703 363 703 c 0
EndSplineSet
EndChar

StartChar: four
Encoding: 52 52 67
Width: 699
VWidth: 0
Flags: W
HStem: 0 21G<396 516> 148 113<193.999 381 516 637> 674 20G<336.78 516>
VStem: 381 135<261 542> 396 120<0 148>
LayerCount: 3
Fore
SplineSet
350 694 m 1xe8
 516 694 l 1xe8
 516 261 l 1xf0
 637 261 l 1
 637 148 l 1
 516 148 l 1
 516 0 l 1
 396 0 l 1
 396 148 l 1
 40 148 l 1
 40 225 l 1
 350 694 l 1xe8
381 261 m 1xf0
 381 542 l 1
 193.999 261 l 1
 381 261 l 1xf0
EndSplineSet
EndChar

StartChar: period
Encoding: 46 46 68
Width: 239
VWidth: 1023
Flags: W
HStem: -20 143<48.96 190.96>
VStem: 48.96 142<-20 123>
LayerCount: 3
Fore
SplineSet
48.96 123 m 1
 190.96 123 l 1
 190.96 -20 l 1
 48.96 -20 l 1
 48.96 123 l 1
EndSplineSet
EndChar

StartChar: comma
Encoding: 44 44 69
Width: 262
VWidth: 1023
Flags: W
HStem: -127 230<86.5195 124.52>
VStem: -6.48047 224
LayerCount: 3
Fore
SplineSet
86.5195 103 m 1
 217.52 103 l 1
 124.52 -127 l 1
 -6.48047 -127 l 1
 86.5195 103 l 1
EndSplineSet
EndChar

StartChar: bracketleft
Encoding: 91 91 70
Width: 350
VWidth: 1023
Flags: MW
HStem: -220 113<193.439 337.439> 645 113<193.439 337.439>
VStem: 73.4395 120<-107 645>
LayerCount: 3
Fore
SplineSet
73.4395 758 m 1
 337.439 758 l 1
 337.439 645 l 1
 193.439 645 l 1
 193.439 -107 l 1
 337.439 -107 l 1
 337.439 -220 l 1
 73.4395 -220 l 1
 73.4395 758 l 1
EndSplineSet
EndChar

StartChar: bracketright
Encoding: 93 93 71
Width: 346
VWidth: 1023
Flags: HMW
HStem: -220 113<14 158> 645 113<14 158>
VStem: 158 120<-107 645>
LayerCount: 3
Fore
SplineSet
14 758 m 5
 278 758 l 5
 278 -220 l 5
 14 -220 l 5
 14 -107 l 5
 158 -107 l 5
 158 645 l 5
 14 645 l 5
 14 758 l 5
EndSplineSet
EndChar

StartChar: parenleft
Encoding: 40 40 72
Width: 334
VWidth: 1023
Flags: W
VStem: 62.6396 126<111.171 449.732>
LayerCount: 3
Fore
SplineSet
226.64 782 m 1
 326.64 730 l 1
 315.64 712 l 2
 252.64 607 188.64 453 188.64 280 c 0
 188.64 109 252.64 -44 315.64 -148 c 1
 326.64 -165 l 1
 229.64 -227 l 1
 218.64 -209 l 2
 152.64 -100 62.6396 85 62.6396 281 c 0
 62.6396 475 151.64 657 217.64 766 c 2
 226.64 782 l 1
EndSplineSet
EndChar

StartChar: parenright
Encoding: 41 41 73
Width: 334
VWidth: 1023
Flags: W
VStem: 145.92 126<110.359 449.849>
LayerCount: 3
Fore
SplineSet
271.92 281 m 0
 271.92 83 179.92 -104 115.92 -209 c 2
 104.92 -227 l 1
 8.91992 -165 l 1
 18.9199 -148 l 1
 81.9199 -44 145.92 109 145.92 280 c 0
 145.92 453 80.9199 608 18.9199 712 c 2
 7.91992 730 l 1
 107.92 782 l 1
 117.92 766 l 2
 183.92 657 271.92 475 271.92 281 c 0
EndSplineSet
EndChar

StartChar: slash
Encoding: 47 47 74
Width: 361
VWidth: 1023
Flags: W
LayerCount: 3
Fore
SplineSet
249.239 714 m 1
 375.239 714 l 1
 119.239 -64 l 1
 -5.76074 -64 l 1
 249.239 714 l 1
EndSplineSet
EndChar

StartChar: backslash
Encoding: 92 92 75
Width: 361
VWidth: 1023
Flags: W
LayerCount: 3
Fore
SplineSet
-12.96 714 m 1
 112.04 714 l 1
 368.04 -64 l 1
 242.04 -64 l 1
 -12.96 714 l 1
EndSplineSet
EndChar

StartChar: plus
Encoding: 43 43 76
Width: 659
VWidth: 1023
Flags: W
HStem: 268 107<29.5195 274.52 386.52 631.52>
VStem: 274.52 112<21 268 375 622>
LayerCount: 3
Fore
SplineSet
274.52 622 m 1
 386.52 622 l 1
 386.52 375 l 1
 631.52 375 l 1
 631.52 268 l 1
 386.52 268 l 1
 386.52 21 l 1
 274.52 21 l 1
 274.52 268 l 1
 29.5195 268 l 1
 29.5195 375 l 1
 274.52 375 l 1
 274.52 622 l 1
EndSplineSet
EndChar

StartChar: asterisk
Encoding: 42 42 77
Width: 549
VWidth: 1023
Flags: W
LayerCount: 3
Fore
SplineSet
212.2 714 m 1
 337.2 714 l 1
 330.2 577 l 1
 444.2 652 l 1
 507.2 543 l 1
 385.2 482 l 1
 507.2 420 l 1
 444.2 311 l 1
 330.2 386 l 1
 337.2 250 l 1
 212.2 250 l 1
 220.2 386 l 1
 106.2 311 l 1
 43.2002 420 l 1
 166.2 482 l 1
 43.2002 543 l 1
 106.2 652 l 1
 220.2 577 l 1
 212.2 714 l 1
EndSplineSet
EndChar

StartChar: numbersign
Encoding: 35 35 78
Width: 682
VWidth: 1023
Flags: W
HStem: 165 113<2.43945 156.439 274.439 409.439 527.439 682.439> 410 113<1.43945 156.439 274.439 409.439 527.439 682.439>
VStem: 156.439 118<-35 165 278 410 523 714> 409.439 118<-35 165 278 410 523 714>
LayerCount: 3
Fore
SplineSet
156.439 714 m 1
 274.439 714 l 1
 274.439 523 l 1
 409.439 523 l 1
 409.439 714 l 1
 527.439 714 l 1
 527.439 523 l 1
 682.439 523 l 1
 682.439 410 l 1
 527.439 410 l 1
 527.439 278 l 1
 682.439 278 l 1
 682.439 165 l 1
 527.439 165 l 1
 527.439 -35 l 1
 409.439 -35 l 1
 409.439 165 l 1
 274.439 165 l 1
 274.439 -35 l 1
 156.439 -35 l 1
 156.439 165 l 1
 2.43945 165 l 1
 2.43945 278 l 1
 156.439 278 l 1
 156.439 410 l 1
 1.43945 410 l 1
 1.43945 523 l 1
 156.439 523 l 1
 156.439 714 l 1
274.439 410 m 1
 274.439 278 l 1
 409.439 278 l 1
 409.439 410 l 1
 274.439 410 l 1
EndSplineSet
EndChar

StartChar: dollar
Encoding: 36 36 79
Width: 607
VWidth: 1023
Flags: W
HStem: 104 97<160.639 253.92 374.92 392.83> 503 95<377.476 487.515> 520 97<374.92 484.639>
VStem: 96.9199 127<452.027 500.582> 253.92 121<-32 104 617 738> 409.92 129<219.386 278.766>
LayerCount: 3
Fore
SplineSet
223.92 473 m 0xbc
 223.92 412 538.92 422 538.92 265 c 0
 538.92 209 506.92 131 374.92 109 c 1
 374.92 -32 l 1
 253.92 -32 l 1
 253.92 104 l 1
 207.92 106 155.92 117 97.9199 139 c 2
 79.9199 146 l 1
 115.92 239 l 1
 135.92 232 l 1
 196.92 208 230.92 201 278.92 201 c 0
 377.92 201 409.92 220 409.92 256 c 1
 404.92 319 96.9199 297 96.9199 463 c 0
 96.9199 513 131.92 584 253.92 608 c 1
 253.92 738 l 1
 374.92 738 l 1
 374.92 617 l 1xbc
 429.92 616 454.92 610 497.92 598 c 2
 517.92 592 l 1
 484.92 499 l 1
 466.92 503 l 1xdc
 434.92 511 399.92 520 342.92 520 c 0
 257.92 520 223.92 493 223.92 473 c 0xbc
EndSplineSet
EndChar

StartChar: semicolon
Encoding: 59 59 80
Width: 262
VWidth: 1023
Flags: W
HStem: 362 143<70.5195 212.52>
VStem: 70.5195 142<362 505>
LayerCount: 3
Fore
SplineSet
86.5195 103 m 1
 217.52 103 l 1
 124.52 -127 l 1
 -6.48047 -127 l 1
 86.5195 103 l 1
70.5195 505 m 1
 212.52 505 l 1
 212.52 362 l 1
 70.5195 362 l 1
 70.5195 505 l 1
EndSplineSet
EndChar

StartChar: colon
Encoding: 58 58 81
Width: 239
VWidth: 1023
Flags: W
HStem: -20 143<48.96 190.96> 362 143<48.96 190.96>
VStem: 48.96 142<-20 123 362 505>
LayerCount: 3
Fore
SplineSet
48.96 123 m 1
 190.96 123 l 1
 190.96 -20 l 1
 48.96 -20 l 1
 48.96 123 l 1
48.96 505 m 1
 190.96 505 l 1
 190.96 362 l 1
 48.96 362 l 1
 48.96 505 l 1
EndSplineSet
EndChar

StartChar: equal
Encoding: 61 61 82
Width: 634
VWidth: 1023
Flags: W
HStem: 151 114<62.6396 571.64> 373 113<62.6396 571.64>
LayerCount: 3
Fore
SplineSet
62.6396 265 m 1
 571.64 265 l 1
 571.64 151 l 1
 62.6396 151 l 1
 62.6396 265 l 1
62.6396 486 m 1
 571.64 486 l 1
 571.64 373 l 1
 62.6396 373 l 1
 62.6396 486 l 1
EndSplineSet
EndChar

StartChar: quotedbl
Encoding: 34 34 83
Width: 368
VWidth: 1023
Flags: W
HStem: 509 249<24.4805 154.48 214.48 344.48>
VStem: 24.4805 130<509 758> 214.48 130<509 758>
LayerCount: 3
Fore
SplineSet
214.48 758 m 1
 344.48 758 l 1
 344.48 509 l 1
 214.48 509 l 1
 214.48 758 l 1
24.4805 758 m 1
 154.48 758 l 1
 154.48 509 l 1
 24.4805 509 l 1
 24.4805 758 l 1
EndSplineSet
EndChar

StartChar: quotesingle
Encoding: 39 39 84
Width: 177
VWidth: 1023
Flags: W
HStem: 509 249<24.4805 154.48>
VStem: 24.4805 130<509 758>
LayerCount: 3
Fore
SplineSet
24.4805 758 m 1
 154.48 758 l 1
 154.48 509 l 1
 24.4805 509 l 1
 24.4805 758 l 1
EndSplineSet
EndChar

StartChar: underscore
Encoding: 95 95 85
Width: 535
VWidth: 1023
Flags: W
HStem: -20 113<38.1602 498.16>
LayerCount: 3
Fore
SplineSet
38.1602 93 m 1
 498.16 93 l 1
 498.16 -20 l 1
 38.1602 -20 l 1
 38.1602 93 l 1
EndSplineSet
EndChar

StartChar: percent
Encoding: 37 37 86
Width: 712
VWidth: 1023
Flags: W
HStem: 0 21G<30.2393 177.772> 12 86<506.065 581.105> 237 87<505.225 581.84> 374 85<153.531 226.456> 599 87<150.817 228.375> 674 20G<553.706 701.239>
VStem: 54.2393 88<468.603 590.916> 237.239 97<468.845 590.485> 399.239 96<107.006 228.543> 591.239 87<107.239 230.27>
LayerCount: 3
Fore
SplineSet
189.239 599 m 0x3bc0
 151.239 599 142.239 567 142.239 534 c 0
 142.239 497 150.239 459 189.239 459 c 0
 227.239 459 237.239 495 237.239 532 c 0
 237.239 593 209.239 599 189.239 599 c 0x3bc0
189.239 686 m 0
 249.239 686 334.239 657 334.239 533 c 0
 334.239 434 271.239 374 189.239 374 c 0
 121.239 374 54.2393 413 54.2393 534 c 0
 54.2393 636 119.239 686 189.239 686 c 0
543.239 237 m 0
 505.239 237 495.239 205 495.239 172 c 0
 495.239 135 504.239 98 543.239 98 c 0x73c0
 581.239 98 591.239 133 591.239 170 c 0
 591.239 231 563.239 237 543.239 237 c 0
543.239 324 m 0
 603.239 324 678.239 293 678.239 171 c 0
 678.239 72 621.239 12 543.239 12 c 0
 472.239 12 399.239 51 399.239 172 c 0
 399.239 274 470.239 324 543.239 324 c 0
569.239 694 m 1xb7c0
 701.239 694 l 1
 162.239 0 l 1
 30.2393 0 l 1
 569.239 694 l 1xb7c0
EndSplineSet
EndChar

StartChar: braceright
Encoding: 125 125 87
Width: 393
VWidth: 1023
Flags: W
HStem: -223 102<36.1284 81.3581> 655 103<35.8759 84.0895>
LayerCount: 3
Fore
SplineSet
251.256 529 m 4
 253.256 502 255.256 475 258.256 450 c 4
 269.256 366 313.256 329 360.256 321 c 5
 376.256 319 l 5
 376.256 217 l 5
 360.256 215 l 6
 343.256 212 326.256 205 312.256 195 c 4
 250.256 150 258.256 69 251.256 1 c 4
 232.256 -186 100.256 -218 54.2559 -221 c 5
 37.2559 -223 l 5
 14.2559 -121 l 5
 36.2559 -118 l 6
 69.2559 -114 96.2559 -93 112.256 -69 c 4
 166.256 14 108.256 174 219.256 268 c 5
 109.256 362 167.256 521 112.256 605 c 4
 96.2559 629 69.2559 651 36.2559 655 c 6
 14.2559 658 l 5
 37.2559 759 l 5
 54.2559 758 l 6
 108.256 754 233.256 718 251.256 529 c 4
EndSplineSet
EndChar

StartChar: asciitilde
Encoding: 126 126 88
Width: 583
VWidth: 1023
Flags: W
HStem: 284 99<338.29 385.131> 373 99<197.663 244.953>
VStem: 90 93<294.022 366.81> 397 92<386.755 462.472>
LayerCount: 3
Fore
SplineSet
368 383 m 0xb0
 386 383 391 422 397 457 c 2
 400 476 l 1
 493 462 l 1
 489 441 l 1
 478 386 468 284 371 284 c 1xb0
 281 288 241 373 215 373 c 0
 197 373 192 335 186 302 c 2
 183 282 l 1
 90 295 l 1
 94 316 l 2
 105 371 115 472 212 472 c 1x70
 302 468 343 383 368 383 c 0xb0
EndSplineSet
EndChar

StartChar: grave
Encoding: 96 96 89
Width: 487
VWidth: 1023
Flags: W
HStem: 543 259
LayerCount: 3
Fore
SplineSet
132.32 802 m 1
 412.32 630 l 1
 361.32 543 l 1
 76.3203 707 l 1
 132.32 802 l 1
EndSplineSet
EndChar

StartChar: asciicircum
Encoding: 94 94 90
Width: 608
VWidth: 1023
Flags: W
HStem: 541 241
VStem: 135.36 319
LayerCount: 3
Fore
SplineSet
301.36 782 m 1
 454.36 612 l 1
 380.36 541 l 1
 295.36 636 l 1
 208.36 542 l 1
 135.36 607 l 1
 301.36 782 l 1
EndSplineSet
EndChar

StartChar: ampersand
Encoding: 38 38 91
Width: 750
VWidth: 1023
Flags: W
HStem: -43 112<204.935 347.801> 613 110<255.896 372.047>
VStem: 48.96 121<105.02 222.545> 107.96 122<496.391 586.779> 387.96 121<513.122 597.716>
LayerCount: 3
Fore
SplineSet
508.96 574 m 0xd8
 508.96 486 429.96 426 365.96 375 c 1
 505.96 225 l 1
 663.96 397 l 1
 736.96 323 l 1
 579.96 147 l 1
 736.96 -20 l 1
 582.96 -20 l 1
 495.96 70 l 1
 443.96 21 366.96 -43 242.96 -43 c 0
 119.96 -43 48.96 37 48.96 138 c 0xe8
 48.96 261 145.96 339 196.96 378 c 1
 152.96 423 107.96 475 107.96 548 c 0
 107.96 653 206.96 723 325.96 723 c 0
 435.96 723 508.96 659 508.96 574 c 0xd8
317.96 613 m 0
 267.96 613 229.96 579 229.96 544 c 0xd8
 229.96 512 256.96 489 292.96 452 c 1
 352.96 498 387.96 522 387.96 558 c 0
 387.96 584 362.96 613 317.96 613 c 0
272.96 301 m 1
 217.96 258 169.96 218 169.96 160 c 0xe8
 169.96 111 211.96 69 270.96 69 c 0
 331.96 69 381.96 109 420.96 146 c 1
 272.96 301 l 1
EndSplineSet
EndChar

StartChar: less
Encoding: 60 60 92
Width: 506
VWidth: 1023
Flags: W
LayerCount: 3
Fore
SplineSet
486.88 583 m 1
 486.88 463 l 1
 170.88 304 l 1
 486.88 152 l 1
 486.88 27 l 1
 20.8799 248 l 1
 20.8799 354 l 1
 486.88 583 l 1
EndSplineSet
EndChar

StartChar: greater
Encoding: 62 62 93
Width: 506
VWidth: 1023
Flags: W
LayerCount: 3
Fore
SplineSet
20.8799 583 m 1
 486.88 354 l 1
 486.88 248 l 1
 20.8799 27 l 1
 20.8799 152 l 1
 336.88 304 l 1
 20.8799 463 l 1
 20.8799 583 l 1
EndSplineSet
EndChar

StartChar: braceleft
Encoding: 123 123 94
Width: 393
VWidth: 1023
Flags: W
HStem: 655 103<311.508 359.448>
LayerCount: 3
Back
SplineSet
43.9453 302.246 m 5
 99.6973 311.622 150.392 354.225 162.771 447.896 c 4
 166.273 474.408 166.975 501.206 169.434 527.832 c 4
 186.06 707.827 304.289 734.995 347.656 738.281 c 5
 362.305 675.293 l 5
 325.494 670.21 291.863 647.773 271.484 616.699 c 4
 208.237 520.254 278.531 353.778 147.328 268.599 c 5
 278.488 183.775 209.525 16.2109 271.484 -79.1016 c 4
 291.751 -110.277 325.446 -132.784 362.305 -137.695 c 5
 347.656 -200.684 l 5
 309.929 -197.559 187.201 -172.471 169.434 3.41797 c 4
 162.809 68.998 170.144 160.436 99.7871 211.615 c 4
 83.3301 223.586 64.04 231.648 43.9453 234.863 c 5
 43.9453 302.246 l 5
  Spiro
    43.9453 302.246 v
    96.731 323.325 o
    138.886 370.648 o
    162.771 447.897 o
    165.506 474.46 o
    167.394 501.191 o
    169.434 527.832 o
    213.327 661.567 o
    285.945 722.29 o
    347.656 738.281 v
    362.305 675.293 v
    326.96 664.766 o
    295.879 644.546 o
    271.484 616.699 o
    240.354 502.642 o
    223.74 375.15 o
    147.328 268.599 v
    224.007 162.059 o
    240.917 34.4282 o
    271.484 -79.1016 o
    295.819 -107.033 o
    326.915 -127.265 o
    362.305 -137.695 v
    347.656 -200.684 v
    288.704 -185.498 o
    215.085 -126.886 o
    169.434 3.41797 o
    164.075 75.0933 o
    147.612 149.536 o
    99.7871 211.615 o
    82.479 222.239 o
    63.6772 230.074 o
    43.9453 234.863 v
    0 0 z
  EndSpiro
EndSplineSet
Fore
SplineSet
138.008 450 m 0
 141.008 475 142.008 502 144.008 529 c 0
 162.008 719 288.008 754 341.008 758 c 2
 358.008 759 l 1
 382.008 658 l 1
 360.008 655 l 2
 327.008 651 299.008 629 283.008 605 c 0
 228.008 521 286.008 362 176.008 268 c 1
 287.008 174 229.008 14 283.008 -69 c 0
 299.008 -93 327.008 -114 360.008 -118 c 2
 382.008 -121 l 1
 358.008 -223 l 1
 341.008 -221 l 1
 295.008 -218 163.008 -186 144.008 1 c 0
 137.008 69 145.008 150 83.0078 195 c 0
 69.0078 205 53.0078 212 36.0078 215 c 2
 19.0078 217 l 1
 19.0078 319 l 1
 36.0078 321 l 1
 83.0078 329 127.008 366 138.008 450 c 0
EndSplineSet
EndChar

StartChar: sterling
Encoding: 163 163 95
Width: 634
VWidth: 1023
Flags: W
HStem: -20 106<54 173 293 581> 303 106<87 173 293 552> 612 107<351.313 540.627>
VStem: 173 120<86 303 409 550.617>
LayerCount: 3
Fore
SplineSet
173 86 m 1
 173 303 l 1
 87 303 l 1
 87 409 l 1
 173 409 l 1
 173 458 l 2
 173 662 310 719 431 719 c 0
 473 719 514 711 551 699 c 2
 572 693 l 1
 534 597 l 1
 517 601 l 2
 493 607 466 612 441 612 c 0
 317 612 293 537 293 445 c 2
 293 409 l 1
 552 409 l 1
 552 303 l 1
 293 303 l 1
 293 86 l 1
 581 86 l 1
 581 -20 l 1
 54 -20 l 1
 54 86 l 1
 173 86 l 1
EndSplineSet
EndChar

StartChar: exclamdown
Encoding: 161 161 96
Width: 317
VWidth: 1023
Flags: W
HStem: 527 138<90 228>
VStem: 90 138<527 665> 97 123<-220 441>
LayerCount: 3
Fore
SplineSet
97 441 m 1xa0
 220 441 l 1
 220 -220 l 1
 97 -220 l 1
 97 441 l 1xa0
90 665 m 1xc0
 228 665 l 1
 228 527 l 1
 90 527 l 1
 90 665 l 1xc0
EndSplineSet
EndChar

StartChar: cent
Encoding: 162 162 97
Width: 498
VWidth: 1023
Flags: W
HStem: -52 248<247.318 342.836> 93 103<344 429.703> 518 240<245.697 342.469>
VStem: 53 118<267.528 458.675> 245 99<-52 95 622.117 758>
LayerCount: 3
Fore
SplineSet
245 620 m 1xb8
 245 758 l 1
 344 758 l 1
 344 625 l 1
 386 621 425 607 450 596 c 2
 467 589 l 1
 436 494 l 1
 417 500 l 2
 385 511 351 518 317 518 c 0
 218 518 171 462 171 365 c 0
 171 224 258 196 327 196 c 0xb8
 355 196 384 201 411 211 c 1
 430 217 l 1
 462 125 l 1
 444 118 l 2
 413 106 379 96 344 93 c 1x78
 344 -52 l 1
 245 -52 l 1
 245 95 l 1
 139 114 53 191 53 348 c 0
 53 491 121 594 245 620 c 1xb8
EndSplineSet
EndChar

StartChar: currency
Encoding: 164 164 98
Width: 634
Flags: W
HStem: 173 109<265.012 369.521> 442 109<264.249 370.211>
VStem: 128 112<306.46 417.519> 395 111<307.299 417.076>
LayerCount: 3
Fore
SplineSet
398 532 m 1
 483 617 l 1
 572 527 l 1
 487 443 l 1
 501 415 506 386 506 362 c 0
 506 334 500 306 488 281 c 1
 572 197 l 1
 482 108 l 1
 398 192 l 1
 373 180 345 173 317 173 c 0
 293 173 264 177 236 191 c 1
 152 107 l 1
 62 196 l 1
 147 281 l 1
 133 309 128 338 128 362 c 0
 128 390 135 418 147 443 c 1
 62 528 l 1
 151 618 l 1
 237 532 l 1
 265 546 293 551 317 551 c 0
 345 551 373 544 398 532 c 1
317 442 m 0
 275 442 240 407 240 362 c 0
 240 318 274 282 317 282 c 0
 359 282 395 318 395 362 c 0
 395 407 359 442 317 442 c 0
EndSplineSet
EndChar

StartChar: yen
Encoding: 165 165 99
Width: 634
VWidth: 1023
Flags: W
HStem: 102 101<121 255 373 514> 260 101<121 237 392 514>
VStem: 255 118<-20 102 203 260>
LayerCount: 3
Fore
SplineSet
35 714 m 1
 172 714 l 1
 318 441 l 1
 468 714 l 1
 600 714 l 1
 392 361 l 1
 514 361 l 1
 514 260 l 1
 373 260 l 1
 373 203 l 1
 514 203 l 1
 514 102 l 1
 373 102 l 1
 373 -20 l 1
 255 -20 l 1
 255 102 l 1
 121 102 l 1
 121 203 l 1
 255 203 l 1
 255 260 l 1
 121 260 l 1
 121 361 l 1
 237 361 l 1
 35 714 l 1
EndSplineSet
EndChar

StartChar: brokenbar
Encoding: 166 166 100
Width: 431
VWidth: 1023
Flags: W
VStem: 156 120<-170 245 389 802>
LayerCount: 3
Fore
SplineSet
156 245 m 1
 276 245 l 1
 276 -170 l 1
 156 -170 l 1
 156 245 l 1
156 802 m 1
 276 802 l 1
 276 389 l 1
 156 389 l 1
 156 802 l 1
EndSplineSet
EndChar

StartChar: section
Encoding: 167 167 101
Width: 554
VWidth: 1023
Flags: W
HStem: -30 103<129.884 342.726> 596 102<321.163 443.526> 614 106<220.438 445.229>
VStem: 75 128<347.836 401.536 530.276 594.691> 364 132<94.6852 171.04 294.79 354.978>
LayerCount: 3
Fore
SplineSet
456 698 m 2xd8
 476 693 l 1
 441 590 l 1
 422 596 l 2xd8
 388 607 345 614 306 614 c 0
 245 614 203 593 203 561 c 0
 203 485 496 498 496 333 c 0
 496 303 488 266 463 233 c 1
 494 199 496 164 496 149 c 0
 496 77 448 -30 256 -30 c 2
 250 -30 l 2
 213 -30 152 -29 71 3 c 1
 53 11 l 1
 89 108 l 1
 107 102 l 1
 162 82 212 73 249 73 c 0
 335 73 364 100 364 140 c 0
 364 219 75 187 75 367 c 0
 75 394 85 429 110 460 c 1
 86 485 75 516 75 550 c 0
 75 618 132 720 318 720 c 0xb8
 386 720 420 708 456 698 c 2xd8
212 402 m 1
 203 391 203 380 203 376 c 0
 203 337 283 320 356 294 c 1
 360 300 364 310 364 323 c 0
 364 365 286 377 212 402 c 1
EndSplineSet
EndChar

StartChar: copyright
Encoding: 169 169 102
Width: 859
VWidth: 1023
Flags: W
HStem: -27 105<327.703 532.18> 136 87<385.027 540.828> 445 90<379.383 541.799> 589 105<327.172 532.18>
VStem: 63 105<235.367 430.043> 253 97<259.834 412.916> 691 105<235.544 430.573>
LayerCount: 3
Fore
SplineSet
549 512 m 2
 565 505 l 1
 538 426 l 1
 519 433 l 1
 496 441 473 445 449 445 c 0
 370 445 350 395 350 339 c 0
 350 279 371 223 455 223 c 0
 475 223 496 227 516 234 c 2
 534 240 l 1
 562 163 l 1
 544 156 l 2
 510 143 474 136 437 136 c 0
 354 136 253 180 253 329 c 0
 253 484 354 535 442 535 c 0
 479 535 516 527 549 512 c 2
430 589 m 0
 283 589 168 471 168 333 c 0
 168 195 283 78 430 78 c 0
 577 78 691 195 691 333 c 0
 691 471 577 589 430 589 c 0
796 333 m 0
 796 139 636 -27 430 -27 c 0
 224 -27 63 138 63 333 c 0
 63 524 221 694 430 694 c 0
 636 694 796 527 796 333 c 0
EndSplineSet
EndChar

StartChar: guillemotleft
Encoding: 171 171 103
Width: 526
VWidth: 1023
Flags: W
LayerCount: 3
Fore
SplineSet
381 502 m 5
 521 502 l 5
 373 304 l 5
 521 106 l 5
 381 106 l 5
 242 304 l 5
 381 502 l 5
151 502 m 5
 292 502 l 5
 143 304 l 5
 292 106 l 5
 151 106 l 5
 12 304 l 5
 151 502 l 5
EndSplineSet
EndChar

StartChar: guillemotright
Encoding: 187 187 104
Width: 526
VWidth: 1023
Flags: W
LayerCount: 3
Fore
SplineSet
5 502 m 1
 146 502 l 1
 284 304 l 1
 146 106 l 1
 5 106 l 1
 154 304 l 1
 5 502 l 1
235 502 m 1
 375 502 l 1
 514 304 l 1
 375 106 l 1
 235 106 l 1
 384 304 l 1
 235 502 l 1
EndSplineSet
EndChar

StartChar: registered
Encoding: 174 174 105
Width: 601
VWidth: 1023
Flags: W
HStem: 244 79<213.581 388.109> 468 62<266 301> 593 64<266 343.936> 696 78<214.575 387.539>
VStem: 32 78<425.221 593.686> 196 70<367 468 530 593> 348 68<533.522 590.02> 491 79<423.235 593.466>
LayerCount: 3
Fore
SplineSet
301 593 m 2
 266 593 l 1
 266 530 l 1
 291 530 283 530 298 530 c 0
 335 530 348 539 348 560 c 0
 348 586 333 593 301 593 c 2
317 657 m 2
 396 657 416 608 416 565 c 0
 416 537 407 500 369 481 c 1
 426 369 l 1
 467 404 491 454 491 509 c 0
 491 609 408 696 301 696 c 0
 195 696 110 610 110 509 c 0
 110 409 194 323 301 323 c 0
 348 323 390 340 423 367 c 1
 350 367 l 1
 301 468 l 1
 266 468 l 1
 266 367 l 1
 196 367 l 1
 196 657 l 1
 317 657 l 2
570 509 m 0
 570 362 448 244 301 244 c 0
 150 244 32 365 32 509 c 0
 32 656 154 774 301 774 c 0
 448 774 570 656 570 509 c 0
EndSplineSet
EndChar

StartChar: paragraph
Encoding: 182 182 106
Width: 647
VWidth: 1023
Flags: W
HStem: 645 113<377 455>
VStem: 43 334<442.125 639.808> 257 120<-20 317.537> 455 120<-20 645>
LayerCount: 3
Fore
SplineSet
293 758 m 6xd0
 575 758 l 5
 575 -20 l 5
 455 -20 l 5
 455 645 l 5
 377 645 l 5
 377 -20 l 5
 257 -20 l 5
 257 315 l 5xb0
 166 322 43 376 43 553 c 4
 43 753 216 758 293 758 c 6xd0
EndSplineSet
EndChar

StartChar: periodcentered
Encoding: 183 183 107
Width: 288
VWidth: 1023
Flags: W
HStem: 287 142<73 215>
VStem: 73 142<287 429>
LayerCount: 3
Fore
SplineSet
73 429 m 1
 215 429 l 1
 215 287 l 1
 73 287 l 1
 73 429 l 1
EndSplineSet
EndChar

StartChar: questiondown
Encoding: 191 191 108
Width: 511
VWidth: 1023
Flags: W
HStem: -89 109<193.764 376.019>
VStem: 37 120<56.838 165.215> 222 123<371.913 482>
LayerCount: 3
Fore
SplineSet
345 502 m 1
 222 502 l 1
 222 482 l 2
 222 250 37 307 37 118 c 0
 37 -3 163 -89 258 -89 c 0
 332 -89 385 -72 444 -44 c 1
 461 -36 l 1
 421 60 l 1
 403 52 l 2
 335 24 297 20 271 20 c 0
 194 20 157 65 157 110 c 0
 157 224 345 192 345 482 c 2
 345 502 l 1
353 714 m 1
 215 714 l 1
 215 576 l 1
 353 576 l 1
 353 714 l 1
EndSplineSet
EndChar

StartChar: uni00B5
Encoding: 181 181 109
Width: 579
VWidth: 1023
Flags: W
HStem: -33 108<229.011 373.305>
VStem: 73 120<-220 -12 113.894 502> 392 120<95.2864 502>
LayerCount: 3
Fore
SplineSet
73 502 m 1
 193 502 l 1
 193 210 l 2
 193 122 224 75 292 75 c 0
 313 75 338 79 392 105 c 1
 392 502 l 1
 512 502 l 1
 512 -20 l 1
 422 -20 l 1
 412 4 l 1
 374 -17 325 -33 278 -33 c 0
 251 -33 221 -27 193 -12 c 1
 193 -220 l 1
 73 -220 l 1
 73 502 l 1
EndSplineSet
EndChar

StartChar: uni00AD
Encoding: 173 173 110
Width: 524
VWidth: 1023
Flags: W
HStem: 268 107<87 437>
LayerCount: 3
Fore
SplineSet
87 375 m 1
 437 375 l 1
 437 268 l 1
 87 268 l 1
 87 375 l 1
EndSplineSet
EndChar

StartChar: plusminus
Encoding: 177 177 111
Width: 683
VWidth: 1023
Flags: W
HStem: 53 107<87 596> 406 107<87 286 397 596>
VStem: 286 111<205 406 513 714>
LayerCount: 3
Fore
SplineSet
87 160 m 1
 596 160 l 1
 596 53 l 1
 87 53 l 1
 87 160 l 1
286 714 m 1
 397 714 l 1
 397 513 l 1
 596 513 l 1
 596 406 l 1
 397 406 l 1
 397 205 l 1
 286 205 l 1
 286 406 l 1
 87 406 l 1
 87 513 l 1
 286 513 l 1
 286 714 l 1
EndSplineSet
EndChar

StartChar: ae
Encoding: 230 230 112
Width: 897
VWidth: 0
Flags: W
HStem: -10 104<204.753 348.71 569.156 770.973> 193 100<503 716> 213 78<207.809 368> 369 87<117.241 161.377> 382 109<547.31 683.332> 393 98<127.287 335.847>
VStem: 60 120<117.62 188.684>
LayerCount: 3
Fore
SplineSet
180 154 m 0xa2
 180 124 223 94 274 94 c 0
 311 94 344 108 368 129 c 1
 368 213 l 1
 196 211 180 182 180 154 c 0xa2
621 382 m 0xca
 554 382 511 341 503 293 c 1
 716 293 l 1
 712 335 691 382 621 382 c 0xca
104 462 m 2
 168 484 236 491 282 491 c 0x86
 372 491 424 457 452 420 c 1
 499 462 565 491 636 491 c 0
 809 491 833 338 833 213 c 2xaa
 833 193 l 1
 500 193 l 1xc2
 511 137 578 95 668 95 c 0
 706 95 746 105 767 111 c 2
 787 118 l 1
 809 25 l 1
 792 19 l 1
 735 -2 676 -10 635 -10 c 0
 565 -10 493 9 441 54 c 1
 395 10 331 -10 257 -10 c 0
 153 -10 60 51 60 138 c 0
 60 214 127 274 260 286 c 0
 293 289 338 291 368 291 c 1
 368 295 l 2
 368 343 346 393 260 393 c 0xa6
 235 393 201 390 136 374 c 1
 118 369 l 1
 85 456 l 1x92
 104 462 l 2
EndSplineSet
EndChar

StartChar: germandbls
Encoding: 223 223 113
Width: 694
VWidth: 1023
Flags: W
HStem: -13 105<274.863 502.228> 0 21G<98 218> 11 95<272.022 396.271> 586 112<253.948 376.134>
VStem: 98 120<0 551.348> 406 133<482.518 557.383> 511 125<103.034 174.888>
LayerCount: 3
Fore
SplineSet
324 698 m 0x5c
 469 698 539 598 539 518 c 0x5c
 539 405 396 382 396 341 c 0
 396 280 636 309 636 136 c 0
 636 77 595 -13 444 -13 c 0x9a
 399 -13 333 -6 266 11 c 1
 244 17 l 1
 273 110 l 1
 294 106 l 1x3a
 342 98 388 92 425 92 c 0
 492 92 511 110 511 141 c 0x9a
 511 230 258 186 258 341 c 0
 258 447 406 461 406 513 c 0
 406 557 356 586 314 586 c 0
 293 586 218 577 218 479 c 2
 218 0 l 1
 98 0 l 1
 98 479 l 2
 98 635 210 698 324 698 c 0x5c
EndSplineSet
EndChar

StartChar: multiply
Encoding: 215 215 114
Width: 714
VWidth: 1023
Flags: W
LayerCount: 3
Fore
SplineSet
169 81 m 1
 89 160 l 1
 270 319 l 1
 93 474 l 1
 172 554 l 1
 369 392 l 1
 562 551 l 1
 641 471 l 1
 461 312 l 1
 638 157 l 1
 558 77 l 1
 361 239 l 1
 169 81 l 1
EndSplineSet
EndChar

StartChar: divide
Encoding: 247 247 115
Width: 763
VWidth: 1023
Flags: W
HStem: 41 135<307 457> 267 108<61 703> 467 135<307 457>
VStem: 307 150<41 176 467 602>
LayerCount: 3
Fore
SplineSet
307 602 m 1
 457 602 l 1
 457 467 l 1
 307 467 l 1
 307 602 l 1
307 176 m 1
 457 176 l 1
 457 41 l 1
 307 41 l 1
 307 176 l 1
61 375 m 1
 703 375 l 1
 703 267 l 1
 61 267 l 1
 61 375 l 1
EndSplineSet
EndChar

StartChar: oslash
Encoding: 248 248 116
Width: 671
VWidth: 1023
Flags: W
HStem: -10 109<269.382 424.541> 383 109<248.337 417.206>
VStem: 63 119<169.036 320.588> 490 118<163.739 298.564>
LayerCount: 3
Back
SplineSet
576.172 494.141 m 1
 633.301 442.871 l 1
 577.637 389.648 l 1
 602.539 352.051 616.211 305.176 616.211 250.488 c 0
 616.211 89.8438 506.348 -9.76562 338.379 -9.76562 c 0
 271.973 -9.76562 211.914 7.32422 165.527 40.0391 c 1
 110.84 -15.625 l 1
 53.7109 35.6445 l 1
 112.305 91.3086 l 1
 85.9375 130.371 71.7773 179.199 71.7773 235.84 c 0
 71.7773 392.578 177.734 491.699 347.168 491.699 c 0
 414.551 491.699 477.051 474.609 524.414 440.918 c 1
 576.172 494.141 l 1
339.355 383.301 m 0
 268.066 383.301 192.383 333.008 192.383 229.492 c 0
 192.383 201.66 197.266 175.781 207.031 152.832 c 1
 429.688 354.492 l 1
 402.344 374.023 370.605 383.301 339.355 383.301 c 0
496.094 254.883 m 0
 496.094 283.203 490.723 307.617 482.422 328.125 c 1
 259.277 126.465 l 1
 283.691 108.887 313.965 98.6328 348.145 98.6328 c 0
 429.688 98.6328 496.094 158.691 496.094 254.883 c 0
EndSplineSet
Fore
SplineSet
578 498 m 1
 630 440 l 1
 570 386 l 1
 594 349 608 304 608 250 c 0
 608 89 499 -10 330 -10 c 0
 269 -10 215 3 173 28 c 1
 112 -27 l 1
 60 31 l 1
 114 80 l 1
 82 120 63 173 63 236 c 0
 63 393 169 492 339 492 c 0
 409 492 470 475 516 442 c 1
 578 498 l 1
331 383 m 0
 259 383 182 340 182 249 c 0
 182 218 190 188 207 164 c 1
 423 358 l 1
 396 375 362 383 331 383 c 0
476 300 m 1
 268 113 l 1
 289 104 313 99 340 99 c 0
 423 99 490 152 490 236 c 0
 490 261 485 281 476 300 c 1
EndSplineSet
EndChar

StartChar: OE
Encoding: 338 338 118
Width: 1055
VWidth: 1023
Flags: W
HStem: 0 113<359.359 532 664 978> 301 113<664 951> 581 113<367.966 532 664 978>
VStem: 105 123<240.326 452.151> 532 132<113 301 414 581>
LayerCount: 3
Fore
SplineSet
532 113 m 1
 532 581 l 1
 524 581 l 2
 491 581 459 580 429 576 c 0
 301 558 228 473 228 343 c 0
 228 215 306 156 362 133 c 0
 406 114 444 113 488 113 c 2
 532 113 l 1
196 597 m 1
 296 691 442 694 560 694 c 2
 978 694 l 1
 978 581 l 1
 664 581 l 1
 664 414 l 1
 951 414 l 1
 951 301 l 1
 664 301 l 1
 664 113 l 1
 978 113 l 1
 978 0 l 1
 513 0 l 2
 443 0 369 2 300 28 c 0
 183 73 105 176 105 343 c 0
 105 495 167 568 196 597 c 1
EndSplineSet
EndChar

StartChar: oe
Encoding: 339 339 119
Width: 960
VWidth: 0
Flags: W
HStem: -11 95<631.247 838.072> -10 108<244.22 391.444> 17 82<772.669 851.571> 179 100<568 780> 381 108<238.185 382.212> 397 90<617.415 743.654>
VStem: 63 119<163.558 323.154> 443 454<179.12 277.817> 780 117<279 358.826>
LayerCount: 3
Fore
SplineSet
443 232 m 0x5b
 443 340 372 381 311 381 c 0
 234 381 182 324 182 245 c 0
 182 164 236 98 319 98 c 0
 384 98 443 141 443 232 c 0x5b
682 397 m 0x1680
 612 397 575 341 568 279 c 1
 780 279 l 1
 776 369 737 397 682 397 c 0x1680
700 487 m 0
 886 487 897 337 897 232 c 2x17
 897 179 l 1
 567 179 l 1
 578 135 629 84 731 84 c 0x9680
 752 84 784 87 830 99 c 2
 851 104 l 1
 873 22 l 1
 856 17 l 1x3280
 815 2 761 -11 697 -11 c 0x9280
 594 -11 533 25 498 65 c 1
 452 17 387 -10 310 -10 c 0
 160 -10 63 86 63 237 c 0
 63 391 163 489 319 489 c 0x5a80
 403 489 470 459 512 408 c 1
 575 478 660 487 700 487 c 0
EndSplineSet
EndChar

StartChar: AE
Encoding: 198 198 120
Width: 1015
VWidth: 1023
Flags: W
HStem: 0 113<632 946> 182 112<316 501> 301 113<632 919> 581 113<442 501 632 946>
VStem: 501 131<113 182 294 301 414 581>
LayerCount: 3
Fore
SplineSet
442 581 m 1
 316 294 l 1
 501 294 l 1
 501 581 l 1
 442 581 l 1
361 694 m 1
 946 694 l 1
 946 581 l 1
 632 581 l 1
 632 414 l 1
 919 414 l 1
 919 301 l 1
 632 301 l 1
 632 113 l 1
 946 113 l 1
 946 0 l 1
 501 0 l 1
 501 182 l 1
 269 182 l 1
 186 0 l 1
 63 0 l 1
 361 694 l 1
EndSplineSet
EndChar

StartChar: onequarter
Encoding: 188 188 121
Width: 878
VWidth: 0
Flags: W
HStem: 83 78<595 679 768 820>
VStem: 144 89<290 614> 679 89<-12 83 161 293>
LayerCount: 3
Fore
SplineSet
569 706 m 1
 683 706 l 1
 268 -12 l 1
 154 -12 l 1
 569 706 l 1
165 706 m 1
 233 706 l 1
 233 290 l 1
 144 290 l 1
 144 614 l 1
 79 596 l 1
 59 677 l 1
 165 706 l 1
673 420 m 1
 768 420 l 1
 768 161 l 1
 820 161 l 1
 820 83 l 1
 768 83 l 1
 768 -12 l 1
 679 -12 l 1
 679 83 l 1
 488 83 l 1
 488 143 l 1
 673 420 l 1
679 293 m 1
 595 161 l 1
 679 161 l 1
 679 293 l 1
EndSplineSet
EndChar

StartChar: onehalf
Encoding: 189 189 122
Width: 926
VWidth: 0
Flags: W
HStem: -12 81<683 860> 343 80<616.758 755.283>
VStem: 144 89<285 614> 766 94<262.221 330.377>
LayerCount: 3
Back
SplineSet
166.504 693.848 m 5
 221.191 693.848 l 5
 221.191 296.875 l 5
 156.25 296.875 l 5
 156.25 630.371 l 5xf6
 87.8906 611.328 l 5
 73.2422 668.457 l 5
 166.504 693.848 l 5
102.231 676.24 m 1
 131.785 690.703 173.225 707.788 220.553 707.788 c 0
 290.296 707.788 343.551 666.689 343.551 609.497 c 0xf960
 343.551 573.247 325.658 541.89 297.709 523.999 c 1
 343.764 504.99 360.201 468.377 360.201 430.64 c 0
 360.201 348.383 293.219 294.238 204.465 293.677 c 1
 203.365 293.677 l 2
 159.999 293.677 125.272 305.244 94.9502 317.561 c 1
 112.834 368.977 l 1
 161.192 355.638 182.089 352.222 204.977 352.222 c 0
 254.713 352.222 297.896 379.722 297.896 420.972 c 0xf8e0
 297.896 448.256 276.305 489.185 189.938 489.185 c 2
 176.51 489.185 l 1
 176.51 544.302 l 1
 266.223 546.646 281.783 578.906 281.783 601.978 c 0
 281.783 626.479 257.955 650.317 214.645 650.317 c 0xf960
 176.07 650.317 140.941 633.618 123.422 625.537 c 1
 102.231 676.24 l 1
EndSplineSet
Fore
SplineSet
569 706 m 1
 683 706 l 1
 268 -12 l 1
 154 -12 l 1
 569 706 l 1
165 706 m 1
 233 706 l 1
 233 285 l 1
 144 285 l 1
 144 614 l 1
 79 596 l 1
 59 677 l 1
 165 706 l 1
577 37 m 5
 627 199 766 251 766 297 c 4
 766 318 741 343 700 343 c 4
 681 343 659 338 605 317 c 6
 594 313 l 5
 564 383 l 5
 575 389 l 5
 607 404 652 423 709 423 c 4
 789 423 854 376 854 305 c 4
 854 204 735 171 683 69 c 5
 860 69 l 5
 860 -12 l 5
 577 -12 l 5
 577 37 l 5
EndSplineSet
EndChar

StartChar: threequarters
Encoding: 190 190 123
Width: 952
VWidth: 0
Flags: W
HStem: 83 78<668 752 841 894> 281 83<101.374 267.655> 477 80<164 260.25> 638 82<134.362 264.974>
VStem: 270 85<570.658 630.488> 286 87<383.205 460.073> 752 89<-12 83 161 293>
LayerCount: 3
Fore
SplineSet
647 706 m 1xf2
 761 706 l 1
 346 -12 l 1
 232 -12 l 1
 647 706 l 1xf2
746 420 m 1
 841 420 l 1
 841 161 l 1
 894 161 l 1
 894 83 l 1
 841 83 l 1
 841 -12 l 1
 752 -12 l 1
 752 83 l 1
 562 83 l 1
 562 143 l 1
 746 420 l 1
752 293 m 1
 668 161 l 1
 752 161 l 1
 752 293 l 1
221 720 m 0
 296 720 355 674 355 609 c 0xfa
 355 576 341 547 320 526 c 1
 357 504 373 468 373 431 c 0
 373 341 299 281 203 281 c 0
 158 281 122 293 90 306 c 2
 80 311 l 1
 105 384 l 1
 116 381 l 1
 164 368 184 364 205 364 c 0
 247 364 286 387 286 421 c 0xf6
 286 458 254 477 176 477 c 2
 164 477 l 1
 164 557 l 1
 176 557 l 2
 219 557 270 566 270 602 c 0xfa
 270 618 254 638 215 638 c 0
 180 638 149 623 129 614 c 2
 117 609 l 1
 86 682 l 1
 97 687 l 2
 128 702 171 720 221 720 c 0
EndSplineSet
EndChar

StartChar: degree
Encoding: 176 176 124
Width: 287
Flags: W
HStem: 473 85<108.425 179.026> 648 84<108.373 178.974>
VStem: 17 84<563.935 641.833> 186 85<564.207 642.019>
LayerCount: 3
Fore
SplineSet
144 648 m 0
 119 648 101 627 101 603 c 0
 101 579 118 558 144 558 c 0
 167 558 186 579 186 603 c 0
 186 627 168 648 144 648 c 0
271 603 m 0
 271 531 214 473 144 473 c 0
 75 473 17 531 17 603 c 0
 17 674 74 732 144 732 c 0
 213 732 271 675 271 603 c 0
EndSplineSet
EndChar

StartChar: ccedilla
Encoding: 231 231 125
Width: 568
VWidth: 1023
Flags: W
HStem: -243 86<221.982 364.73> -212 83<194.639 258.316> 379 109<251.904 479.066>
VStem: 63 125<161.956 318.773> 367 93<-154.931 -121.255>
LayerCount: 3
Back
SplineSet
331.543 -163.574 m 0
 331.543 -127.93 291.016 -122.07 219.727 -100.098 c 1
 244.629 -6.83594 l 1
 155.762 6.83594 63.4766 65.4297 63.4766 229.98 c 0
 63.4766 427.246 185.547 491.211 297.363 491.211 c 0
 343.75 491.211 390.137 480.957 432.617 462.402 c 1
 413.086 403.809 l 1
 378.906 415.527 343.262 422.363 307.129 422.363 c 0
 228.027 422.363 141.113 387.207 141.113 247.07 c 0
 141.113 94.2383 231.445 56.1523 315.918 56.1523 c 0
 347.168 56.1523 378.418 62.0117 407.715 72.2656 c 1
 427.246 17.0898 l 1
 383.301 0 341.309 -7.32422 306.152 -9.27734 c 1
 290.527 -70.8008 l 1
 312.988 -77.6367 380.371 -91.8633 380.371 -158.27 c 0
 380.371 -200.262 345.703 -247.625 280.762 -247.625 c 0
 244.629 -247.625 195.801 -230.535 169.434 -222.723 c 1
 182.129 -178.289 l 1
 240.723 -195.867 262.695 -201.238 282.715 -201.238 c 0
 313.965 -201.238 331.543 -183.105 331.543 -163.574 c 0
EndSplineSet
Fore
SplineSet
333 -157 m 0xb8
 355 -157 367 -148 367 -139 c 0
 367 -121 330 -116 251 -95 c 1
 229 -89 l 1
 256 -5 l 1
 152 15 63 77 63 228 c 0
 63 424 209 488 350 488 c 0
 407 488 455 478 500 458 c 2
 518 450 l 1
 486 355 l 1
 467 361 l 2
 435 372 401 379 362 379 c 0
 275 379 188 352 188 243 c 0
 188 135 262 93 372 93 c 0
 405 93 434 98 461 108 c 1
 480 114 l 1
 513 22 l 1
 495 15 l 2
 454 -1 415 -9 377 -12 c 1
 371 -33 l 1
 407 -43 460 -68 460 -134 c 0
 460 -187 417 -243 331 -243 c 0xb8
 288 -243 242 -230 192 -217 c 1
 169 -212 l 1
 197 -129 l 1x78
 220 -135 l 2
 287 -152 312 -157 331 -157 c 0
 333 -157 l 0xb8
EndSplineSet
EndChar

StartChar: cedilla
Encoding: 184 184 126
Width: 537
VWidth: 0
Flags: W
HStem: -263 87<207.57 330.536> -231 83<185.976 235.225>
VStem: 331 88<-175.47 -138.27>
LayerCount: 3
Fore
SplineSet
302 -176 m 0xa0
 325 -176 331 -165 331 -158 c 0
 331 -140 300 -135 233 -114 c 1
 214 -109 l 1
 252 31 l 1
 355 31 l 1
 334 -52 l 1
 365 -62 419 -87 419 -153 c 0
 419 -206 376 -263 300 -263 c 0xa0
 263 -263 225 -250 183 -237 c 1
 164 -231 l 1
 188 -148 l 1x60
 207 -154 l 2
 258 -170 285 -176 302 -176 c 0xa0
EndSplineSet
EndChar

StartChar: Ccedilla
Encoding: 199 199 127
Width: 788
VWidth: 0
Flags: W
HStem: -247 92<379.231 507.192> -215 90<347.744 406.141> -10 116<527 677.968> 585 114<414.412 669.04>
VStem: 134 127<253.335 439.507>
LayerCount: 3
Back
SplineSet
535.928 -154.191 m 0
 535.928 -201.617 496.196 -246.98 432.426 -246.98 c 0
 406.274 -246.98 389.642 -242.516 333.252 -225.931 c 2
 316.65 -221.048 l 1
 331.299 -170.267 l 1
 345.947 -174.661 l 2
 398.936 -190.279 418.01 -194.707 436.025 -194.707 c 0
 465.219 -194.707 481.023 -178.023 481.023 -160.225 c 0
 481.023 -129.678 441.952 -120.596 433.35 -118.021 c 2
 366.455 -98.001 l 1
 393.057 -1.03516 l 1
 230.14 34.7666 134.277 176.499 134.277 346.191 c 0
 134.277 545.898 267.578 698.73 481.445 698.73 c 0
 533.203 698.73 599.609 689.453 669.922 661.621 c 1
 644.531 592.773 l 1
 565.43 620.117 512.207 625.488 479.004 625.488 c 0
 317.383 625.488 217.285 491.699 217.285 346.68 c 0
 217.285 194.824 325.195 66.4062 497.07 66.4062 c 0
 543.945 66.4062 598.145 75.6836 653.809 95.7031 c 1
 679.199 34.1797 l 1
 608.887 3.90625 537.109 -9.76562 476.074 -9.76562 c 0
 471.426 -9.76562 466.816 -9.68945 462.248 -9.53906 c 1
 448.006 -65.875 l 1
 457.831 -68.8223 535.928 -83.5371 535.928 -154.191 c 0
EndSplineSet
Fore
SplineSet
480 -155 m 0xb8
 504 -155 508 -145 508 -140 c 0
 508 -125 470 -116 397 -97 c 2
 376 -92 l 1
 406 4 l 1
 229 46 134 185 134 347 c 0
 134 547 283 699 531 699 c 0
 591 699 664 689 737 660 c 1
 755 653 l 1
 717 547 l 1
 698 554 l 2
 618 581 562 585 528 585 c 0
 363 585 261 472 261 347 c 0
 261 218 370 106 548 106 c 0
 597 106 653 116 707 135 c 2
 725 141 l 1
 765 43 l 1
 747 36 l 2
 675 5 596 -10 527 -10 c 1
 521 -32 l 1
 554 -42 613 -68 613 -134 c 0
 613 -193 559 -247 477 -247 c 0xb8
 450 -247 440 -246 342 -220 c 1
 321 -215 l 1
 350 -125 l 1x78
 371 -131 l 2
 420 -145 457 -155 480 -155 c 0xb8
EndSplineSet
EndChar

StartChar: dieresis
Encoding: 168 168 128
Width: 585
VWidth: 0
Flags: W
HStem: 583 131<118 249 337 468>
VStem: 118 131<583 714> 337 131<583 714>
LayerCount: 3
Fore
SplineSet
118 714 m 1
 249 714 l 1
 249 583 l 1
 118 583 l 1
 118 714 l 1
337 714 m 1
 468 714 l 1
 468 583 l 1
 337 583 l 1
 337 714 l 1
EndSplineSet
EndChar

StartChar: Adieresis
Encoding: 196 196 129
Width: 755
VWidth: 0
Flags: W
HStem: 0 21G<63 191.462 612.429 748> 182 112<303 500> 674 20G<330.075 480.925> 796 130<214 358 455 599>
VStem: 214 144<796 926> 455 144<796 926>
LayerCount: 3
Fore
SplineSet
338 694 m 1
 473 694 l 1
 748 0 l 1
 621 0 l 1
 543 182 l 1
 260 182 l 1
 183 0 l 1
 63 0 l 1
 338 694 l 1
500 294 m 1
 402 552 l 1
 303 294 l 1
 500 294 l 1
214 926 m 1
 358 926 l 1
 358 796 l 1
 214 796 l 1
 214 926 l 1
455 926 m 1
 599 926 l 1
 599 796 l 1
 455 796 l 1
 455 926 l 1
EndSplineSet
EndChar

StartChar: Edieresis
Encoding: 203 203 130
Width: 706
VWidth: 1023
Flags: W
HStem: 0 113<265 628> 301 113<265 602> 581 113<265 628> 796 131<190 332 438 580>
VStem: 142 123<113 301 414 581> 190 142<796 927> 438 142<796 927>
LayerCount: 3
Fore
SplineSet
142 694 m 1xfa
 628 694 l 1
 628 581 l 1
 265 581 l 1
 265 414 l 1
 602 414 l 1
 602 301 l 1
 265 301 l 1
 265 113 l 1
 628 113 l 1
 628 0 l 1
 142 0 l 1
 142 694 l 1xfa
190 927 m 1xf6
 332 927 l 1
 332 796 l 1
 190 796 l 1
 190 927 l 1xf6
438 927 m 1
 580 927 l 1
 580 796 l 1
 438 796 l 1
 438 927 l 1
EndSplineSet
EndChar

StartChar: Idieresis
Encoding: 207 207 131
Width: 367
VWidth: 0
Flags: W
HStem: 0 21G<142 265> 674 20G<142 265> 760 131<43 173 233 363>
VStem: 43 130<760 891> 142 123<0 694> 233 130<760 891>
LayerCount: 3
Fore
SplineSet
142 694 m 1xe8
 265 694 l 1
 265 0 l 1
 142 0 l 1
 142 694 l 1xe8
43 891 m 1xf0
 173 891 l 1
 173 760 l 1
 43 760 l 1
 43 891 l 1xf0
233 891 m 1xe4
 363 891 l 1
 363 760 l 1
 233 760 l 1
 233 891 l 1xe4
EndSplineSet
EndChar

StartChar: Odieresis
Encoding: 214 214 132
Width: 903
VWidth: 0
Flags: W
HStem: -7 112<370.856 577.057> 588 113<364.58 570.076> 796 131<286 428 525 667>
VStem: 105 126<248.908 459.514> 286 142<796 927> 525 142<796 927> 711 126<238.736 449.155>
LayerCount: 3
Fore
SplineSet
472 701 m 0
 684 701 837 568 837 354 c 0
 837 139 688 -7 468 -7 c 0
 280 -7 105 109 105 345 c 0
 105 562 257 701 472 701 c 0
711 346 m 0
 711 517 581 588 465 588 c 0
 355 588 231 519 231 355 c 0
 231 201 339 105 475 105 c 0
 587 105 711 176 711 346 c 0
286 927 m 1
 428 927 l 1
 428 796 l 1
 286 796 l 1
 286 927 l 1
525 927 m 1
 667 927 l 1
 667 796 l 1
 525 796 l 1
 525 927 l 1
EndSplineSet
EndChar

StartChar: Udieresis
Encoding: 220 220 133
Width: 851
VWidth: 0
Flags: W
HStem: -10 112<333.479 555.722> 674 20G<142 265 626 749> 796 131<250 396 495 640>
VStem: 142 123<167.592 694> 250 146<796 927> 495 145<796 927> 626 123<167.162 694>
LayerCount: 3
Fore
SplineSet
142 694 m 1xf2
 265 694 l 1
 265 254 l 2
 265 179 290 102 445 102 c 0
 590 102 626 169 626 254 c 2
 626 694 l 1
 749 694 l 1
 749 242 l 2
 749 170 746 -10 441 -10 c 0
 144 -10 142 171 142 242 c 2
 142 694 l 1xf2
250 927 m 1xe8
 396 927 l 1
 396 796 l 1
 250 796 l 1
 250 927 l 1xe8
495 927 m 1xe4
 640 927 l 1
 640 796 l 1
 495 796 l 1
 495 927 l 1xe4
EndSplineSet
EndChar

StartChar: adieresis
Encoding: 228 228 134
Width: 564
VWidth: 0
Flags: W
HStem: 0 90 200 65 400 90 563 131<93 241 350 483>
VStem: 93 148<563 694> 350 133<563 694>
LayerCount: 3
Fore
SplineSet
350 694 m 1
 483 694 l 1
 483 563 l 1
 350 563 l 1
 350 694 l 1
93 694 m 1
 241 694 l 1
 241 563 l 1
 93 563 l 1
 93 694 l 1
EndSplineSet
Refer: 0 97 N 1 0 0 1 0 0 2
EndChar

StartChar: edieresis
Encoding: 235 235 135
Width: 564
VWidth: 0
Flags: W
HStem: 0 90 200 65 400 90 563 131<104 252 357 494>
VStem: 104 148<563 694> 357 137<563 694>
LayerCount: 3
Fore
SplineSet
104 694 m 1
 252 694 l 1
 252 563 l 1
 104 563 l 1
 104 694 l 1
357 694 m 1
 494 694 l 1
 494 563 l 1
 357 563 l 1
 357 694 l 1
EndSplineSet
Refer: 2 101 N 1 0 0 1 0 0 2
EndChar

StartChar: idieresis
Encoding: 239 239 136
Width: 295
VWidth: 0
Flags: W
HStem: 0 21G<88 208> 462 20G<88 208> 563 131<-7 123 173 303>
VStem: -7 130<563 694> 88 120<0 482> 173 130<563 694>
LayerCount: 3
Fore
SplineSet
88 482 m 1xe8
 208 482 l 1
 208 0 l 1
 88 0 l 1
 88 482 l 1xe8
-7 694 m 1xf0
 123 694 l 1
 123 563 l 1
 -7 563 l 1
 -7 694 l 1xf0
173 694 m 1xe4
 303 694 l 1
 303 563 l 1
 173 563 l 1
 173 694 l 1xe4
EndSplineSet
EndChar

StartChar: odieresis
Encoding: 246 246 137
Width: 671
VWidth: 0
Flags: W
HStem: -10 109<256.861 424.541> 383 109<248.337 414.946> 563 131<156 302 404 545>
VStem: 63 119<172.971 320.588> 156 146<563 694> 404 141<563 694> 490 118<163.739 312.789>
LayerCount: 3
Fore
SplineSet
339 492 m 0xf2
 496 492 608 406 608 250 c 0
 608 89 499 -10 330 -10 c 0
 170 -10 63 82 63 236 c 0
 63 393 169 492 339 492 c 0xf2
331 383 m 0
 259 383 182 340 182 249 c 0
 182 166 245 99 340 99 c 0
 423 99 490 152 490 236 c 0
 490 335 406 383 331 383 c 0
156 694 m 1xe8
 302 694 l 1
 302 563 l 1
 156 563 l 1
 156 694 l 1xe8
404 694 m 1xe4
 545 694 l 1
 545 563 l 1
 404 563 l 1
 404 694 l 1xe4
EndSplineSet
EndChar

StartChar: udieresis
Encoding: 252 252 138
Width: 654
VWidth: 0
Flags: W
HStem: -10 112<237.115 405.808> 0 21G<468.909 567> 462 20G<88 208 447 567> 563 131<135 277 383 524>
VStem: 88 120<132.365 482> 135 142<563 694> 383 141<563 694> 447 120<121.854 482>
LayerCount: 3
Fore
SplineSet
447 482 m 1xb9
 567 482 l 1
 567 0 l 1
 478 0 l 1x79
 463 33 l 1
 384 -1 318 -10 274 -10 c 0
 110 -10 88 99 88 197 c 2
 88 482 l 1
 208 482 l 1
 208 198 l 2
 208 166 212 102 316 102 c 0
 365 102 417 118 447 129 c 1
 447 482 l 1xb9
135 694 m 1x34
 277 694 l 1
 277 563 l 1
 135 563 l 1
 135 694 l 1x34
383 694 m 1x32
 524 694 l 1
 524 563 l 1
 383 563 l 1
 383 694 l 1x32
EndSplineSet
EndChar

StartChar: ydieresis
Encoding: 255 255 139
Width: 592
VWidth: 0
Flags: W
HStem: 462 20G<24 159.703 452 587> 563 131<117 262 364 507>
VStem: 117 145<563 694> 364 143<563 694>
LayerCount: 3
Fore
SplineSet
24 482 m 1
 151 482 l 1
 312 112 l 1
 460 482 l 1
 587 482 l 1
 269 -259 l 1
 124 -259 l 1
 244 1 l 1
 24 482 l 1
117 694 m 1
 262 694 l 1
 262 563 l 1
 117 563 l 1
 117 694 l 1
364 694 m 1
 507 694 l 1
 507 563 l 1
 364 563 l 1
 364 694 l 1
EndSplineSet
EndChar

StartChar: dotlessi
Encoding: 305 305 140
Width: 295
VWidth: 1023
Flags: W
HStem: 0 21G<88 208> 462 20G<88 208>
VStem: 88 120<0 482>
LayerCount: 3
Fore
SplineSet
88 482 m 1
 208 482 l 1
 208 0 l 1
 88 0 l 1
 88 482 l 1
EndSplineSet
EndChar

StartChar: Agrave
Encoding: 192 192 141
Width: 755
VWidth: 0
Flags: W
HStem: 0 21G<63 191.462 612.429 748> 182 112<303 500> 674 20G<330.075 480.925>
LayerCount: 3
Fore
SplineSet
338 694 m 1
 473 694 l 1
 748 0 l 1
 621 0 l 1
 543 182 l 1
 260 182 l 1
 183 0 l 1
 63 0 l 1
 338 694 l 1
500 294 m 1
 402 552 l 1
 303 294 l 1
 500 294 l 1
288 950 m 1
 596 777 l 1
 541 690 l 1
 228 854 l 1
 288 950 l 1
EndSplineSet
EndChar

StartChar: Aacute
Encoding: 193 193 142
Width: 755
VWidth: 0
Flags: W
HStem: 0 21G<63 191.462 612.429 748> 182 112<303 500> 674 20G<330.075 480.925>
LayerCount: 3
Fore
SplineSet
338 694 m 1
 473 694 l 1
 748 0 l 1
 621 0 l 1
 543 182 l 1
 260 182 l 1
 183 0 l 1
 63 0 l 1
 338 694 l 1
500 294 m 1
 402 552 l 1
 303 294 l 1
 500 294 l 1
522 950 m 1
 583 854 l 1
 269 690 l 1
 214 777 l 1
 522 950 l 1
EndSplineSet
EndChar

StartChar: Acircumflex
Encoding: 194 194 143
Width: 755
VWidth: 0
Flags: W
HStem: 0 21G<63 191.462 612.429 748> 182 112<303 500> 674 20G<330.075 480.925>
LayerCount: 3
Fore
SplineSet
338 694 m 1
 473 694 l 1
 748 0 l 1
 621 0 l 1
 543 182 l 1
 260 182 l 1
 183 0 l 1
 63 0 l 1
 338 694 l 1
500 294 m 1
 402 552 l 1
 303 294 l 1
 500 294 l 1
417 949 m 1
 584 779 l 1
 503 708 l 1
 409 803 l 1
 313 709 l 1
 233 774 l 1
 417 949 l 1
EndSplineSet
EndChar

StartChar: Atilde
Encoding: 195 195 144
Width: 755
VWidth: 0
Flags: W
HStem: 0 21G<63 191.462 612.429 748> 182 112<303 500> 674 20G<330.075 480.925> 729 99<468.134 519.774> 817 99<314.07 365.866>
VStem: 195 102<738.108 807.578> 533 100<833.331 905.469>
LayerCount: 3
Fore
SplineSet
537 920 m 1xf6
 637 905 l 1
 633 885 l 2
 622 828 611 729 504 729 c 1xf6
 405 733 361 817 333 817 c 0
 313 817 308 780 301 745 c 2
 297 726 l 1
 195 739 l 1
 200 760 l 2
 212 815 223 916 330 916 c 1xee
 429 912 473 828 501 828 c 0
 520 828 525 862 533 901 c 2
 537 920 l 1xf6
500 294 m 1
 402 552 l 1
 303 294 l 1
 500 294 l 1
338 694 m 1
 473 694 l 1
 748 0 l 1
 621 0 l 1
 543 182 l 1
 260 182 l 1
 183 0 l 1
 63 0 l 1
 338 694 l 1
EndSplineSet
EndChar

StartChar: Aring
Encoding: 197 197 145
Width: 755
VWidth: 0
Flags: W
HStem: 0 21G<63 191.462 612.429 748> 182 112<303 500> 824 91<358.594 454.987>
VStem: 243 103<727.703 810.55> 467 104<727.443 811.147>
LayerCount: 3
Fore
SplineSet
407 915 m 0
 495 915 571 852 571 770 c 0
 571 720 539 676 492 652 c 1
 748 0 l 1
 621 0 l 1
 543 182 l 1
 260 182 l 1
 183 0 l 1
 63 0 l 1
 320 653 l 1
 275 677 243 720 243 770 c 0
 243 851 318 915 407 915 c 0
408 824 m 0
 371 824 346 798 346 770 c 0
 346 743 369 715 408 715 c 0
 443 715 467 742 467 770 c 0
 467 798 443 824 408 824 c 0
500 294 m 1
 402 552 l 1
 303 294 l 1
 500 294 l 1
EndSplineSet
EndChar

StartChar: uni00B2
Encoding: 178 178 146
Width: 390
VWidth: 0
Flags: W
HStem: 358 76<159 319> 682 74<92.5507 221.568>
VStem: 231 88<607.083 671.237>
LayerCount: 3
Fore
SplineSet
60 404 m 1
 106 552 231 598 231 640 c 0
 231 658 209 682 173 682 c 0
 156 682 135 678 86 658 c 2
 75 653 l 1
 48 719 l 1
 58 724 l 1
 87 739 129 756 181 756 c 0
 254 756 313 712 313 647 c 0
 313 555 206 525 159 434 c 1
 319 434 l 1
 319 358 l 1
 60 358 l 1
 60 404 l 1
EndSplineSet
EndChar

StartChar: uni00B3
Encoding: 179 179 147
Width: 390
VWidth: 1023
Flags: W
HStem: 354 78<63.0981 221.203> 532 74<123 212.367> 678 77<90.3929 215.787>
VStem: 219 80<616.515 672.487> 233 81<446.829 518.014>
LayerCount: 3
Fore
SplineSet
175 755 m 0xf0
 244 755 299 713 299 653 c 0xf0
 299 624 288 597 268 578 c 1
 301 557 314 525 314 491 c 0
 314 409 248 354 160 354 c 0
 118 354 86 364 57 376 c 2
 46 381 l 1
 69 449 l 1
 81 446 l 1
 125 434 141 432 161 432 c 0
 199 432 233 452 233 482 c 0xe8
 233 525 182 532 135 532 c 2
 123 532 l 1
 123 606 l 1
 135 606 l 2
 175 606 219 614 219 646 c 0
 219 660 205 678 170 678 c 0
 139 678 110 665 92 657 c 2
 81 651 l 1
 52 720 l 1
 62 725 l 1
 89 738 127 755 175 755 c 0xf0
EndSplineSet
EndChar

StartChar: acute
Encoding: 180 180 148
Width: 547
VWidth: 1023
Flags: W
HStem: 542 260
LayerCount: 3
Fore
SplineSet
387 802 m 1
 441 707 l 1
 157 542 l 1
 107 629 l 1
 387 802 l 1
EndSplineSet
EndChar

StartChar: uni00B9
Encoding: 185 185 149
Width: 265
VWidth: 0
Flags: W
VStem: 100 80<359 669>
LayerCount: 3
Fore
SplineSet
121 750 m 1
 180 750 l 1
 180 359 l 1
 100 359 l 1
 100 669 l 1
 33 650 l 1
 15 721 l 1
 121 750 l 1
EndSplineSet
EndChar

StartChar: ordmasculine
Encoding: 186 186 150
Width: 372
VWidth: 1023
Flags: W
HStem: 355 73<135.378 239.96> 679 75<132.075 240.938>
VStem: 21 80<465.601 646.076> 271 81<462.515 647.513>
LayerCount: 3
Fore
SplineSet
186 679 m 0
 152 679 101 662 101 561 c 0
 101 447 153 428 187 428 c 0
 221 428 271 447 271 558 c 0
 271 664 220 679 186 679 c 0
352 559 m 0
 352 431 279 355 186 355 c 0
 103 355 21 404 21 560 c 0
 21 690 104 754 187 754 c 0
 253 754 352 721 352 559 c 0
EndSplineSet
EndChar

StartChar: Egrave
Encoding: 200 200 151
Width: 706
VWidth: 0
Flags: W
HStem: 0 113<265 628> 301 113<265 602> 581 113<265 628> 700 21G<477.366 528.494>
VStem: 142 123<113 301 414 581>
LayerCount: 3
Fore
SplineSet
142 694 m 1
 628 694 l 1
 628 581 l 1
 265 581 l 1
 265 414 l 1
 602 414 l 1
 602 301 l 1
 265 301 l 1
 265 113 l 1
 628 113 l 1
 628 0 l 1
 142 0 l 1
 142 694 l 1
247 959 m 1
 567 787 l 1
 517 700 l 1
 192 864 l 1
 247 959 l 1
EndSplineSet
EndChar

StartChar: Eacute
Encoding: 201 201 152
Width: 706
VWidth: 0
Flags: W
HStem: 0 113<265 628> 301 113<265 602> 581 113<265 628> 700 21G<250.506 301.512>
VStem: 142 123<113 301 414 581>
LayerCount: 3
Fore
SplineSet
142 694 m 1
 628 694 l 1
 628 581 l 1
 265 581 l 1
 265 414 l 1
 602 414 l 1
 602 301 l 1
 265 301 l 1
 265 113 l 1
 628 113 l 1
 628 0 l 1
 142 0 l 1
 142 694 l 1
532 959 m 1
 586 864 l 1
 262 700 l 1
 212 787 l 1
 532 959 l 1
EndSplineSet
EndChar

StartChar: Ecircumflex
Encoding: 202 202 153
Width: 706
VWidth: 0
Flags: W
HStem: 0 113<265 628> 301 113<265 602> 581 113<265 628>
VStem: 142 123<113 301 414 581>
LayerCount: 3
Fore
SplineSet
142 694 m 1
 628 694 l 1
 628 581 l 1
 265 581 l 1
 265 414 l 1
 602 414 l 1
 602 301 l 1
 265 301 l 1
 265 113 l 1
 628 113 l 1
 628 0 l 1
 142 0 l 1
 142 694 l 1
394 953 m 1
 564 782 l 1
 486 712 l 1
 385 807 l 1
 281 713 l 1
 205 778 l 1
 394 953 l 1
EndSplineSet
EndChar

StartChar: Icircumflex
Encoding: 206 206 154
Width: 396
VWidth: 0
Flags: W
HStem: 0 21G<165 288> 674 20G<165 288>
VStem: 165 123<0 694>
LayerCount: 3
Fore
SplineSet
165 694 m 1
 288 694 l 1
 288 0 l 1
 165 0 l 1
 165 694 l 1
235 949 m 5
 388 778 l 5
 312 708 l 5
 228 803 l 5
 142 709 l 5
 68 774 l 5
 235 949 l 5
EndSplineSet
EndChar

StartChar: Igrave
Encoding: 204 204 155
Width: 396
VWidth: 0
Flags: W
HStem: 0 21G<164 287> 674 20G<164 287>
VStem: 164 123<0 694>
LayerCount: 3
Fore
SplineSet
164 694 m 1
 287 694 l 1
 287 0 l 1
 164 0 l 1
 164 694 l 1
122 949 m 1
 402 776 l 1
 351 690 l 1
 66 854 l 1
 122 949 l 1
EndSplineSet
EndChar

StartChar: Iacute
Encoding: 205 205 156
Width: 436
VWidth: 0
Flags: W
HStem: 0 21G<203 326> 674 20G<203 326>
VStem: 203 123<0 694>
LayerCount: 3
Fore
SplineSet
203 694 m 1
 326 694 l 1
 326 0 l 1
 203 0 l 1
 203 694 l 1
382 950 m 5
 437 855 l 5
 112 690 l 5
 62 778 l 5
 382 950 l 5
EndSplineSet
EndChar

StartChar: Ntilde
Encoding: 209 209 157
Width: 890
VWidth: 0
Flags: W
HStem: 0 21G<142 265 635.581 788> 674 20G<142 291.559 665 788> 729 99<531.76 583.271> 817 99<377.828 429.844>
VStem: 142 123<0 534> 259 101<738.099 804.36> 665 123<161 694>
LayerCount: 3
Fore
SplineSet
601 920 m 1xe6
 701 905 l 1
 696 885 l 2
 685 828 675 729 568 729 c 1xe6
 469 733 425 817 397 817 c 0
 377 817 371 780 364 745 c 2
 360 726 l 1
 259 739 l 1
 263 760 l 2
 275 815 287 916 394 916 c 1xd6
 493 912 536 828 564 828 c 0
 583 828 588 862 596 901 c 2
 601 920 l 1xe6
142 694 m 1xca
 277 694 l 1
 665 161 l 1
 665 694 l 1
 788 694 l 1
 788 0 l 1
 650 0 l 1
 265 534 l 1
 265 0 l 1
 142 0 l 1
 142 694 l 1xca
EndSplineSet
EndChar

StartChar: Ograve
Encoding: 210 210 158
Width: 903
VWidth: 0
Flags: W
HStem: -7 112<370.856 577.057> 588 113<364.58 570.076>
VStem: 105 126<248.908 459.514> 711 126<238.736 449.155>
LayerCount: 3
Fore
SplineSet
472 701 m 0
 684 701 837 568 837 354 c 0
 837 139 688 -7 468 -7 c 0
 280 -7 105 109 105 345 c 0
 105 562 257 701 472 701 c 0
711 346 m 0
 711 517 581 588 465 588 c 0
 355 588 231 519 231 355 c 0
 231 201 339 105 475 105 c 0
 587 105 711 176 711 346 c 0
386 951 m 1
 691 779 l 1
 636 692 l 1
 326 856 l 1
 386 951 l 1
EndSplineSet
EndChar

StartChar: Oacute
Encoding: 211 211 159
Width: 903
VWidth: 0
Flags: W
HStem: -7 112<370.856 577.057> 588 113<364.58 570.076>
VStem: 105 126<248.908 459.514> 711 126<238.736 449.155>
LayerCount: 3
Fore
SplineSet
472 701 m 0
 684 701 837 568 837 354 c 0
 837 139 688 -7 468 -7 c 0
 280 -7 105 109 105 345 c 0
 105 562 257 701 472 701 c 0
711 346 m 0
 711 517 581 588 465 588 c 0
 355 588 231 519 231 355 c 0
 231 201 339 105 475 105 c 0
 587 105 711 176 711 346 c 0
598 950 m 1
 657 855 l 1
 347 690 l 1
 293 778 l 1
 598 950 l 1
EndSplineSet
EndChar

StartChar: Ocircumflex
Encoding: 212 212 160
Width: 903
VWidth: 0
Flags: W
HStem: -7 112<370.856 577.057> 588 113<364.58 570.076>
VStem: 105 126<248.908 459.514> 711 126<238.736 449.155>
LayerCount: 3
Fore
SplineSet
472 701 m 0
 684 701 837 568 837 354 c 0
 837 139 688 -7 468 -7 c 0
 280 -7 105 109 105 345 c 0
 105 562 257 701 472 701 c 0
711 346 m 0
 711 517 581 588 465 588 c 0
 355 588 231 519 231 355 c 0
 231 201 339 105 475 105 c 0
 587 105 711 176 711 346 c 0
487 949 m 1
 653 779 l 1
 572 708 l 1
 479 803 l 1
 385 709 l 1
 305 774 l 1
 487 949 l 1
EndSplineSet
EndChar

StartChar: Otilde
Encoding: 213 213 161
Width: 903
VWidth: 0
Flags: W
HStem: -7 112<370.856 577.057> 588 113<364.58 570.298> 729 99<535.64 589.271> 817 99<383.331 437.36>
VStem: 105 126<248.908 459.514> 265 101<738.099 804.36> 602 100<833.331 905.312> 711 126<238.736 452.067>
LayerCount: 3
Fore
SplineSet
606 920 m 5xef
 707 905 l 5
 702 885 l 6
 691 828 681 729 574 729 c 5xef
 475 733 431 817 403 817 c 4
 383 817 377 780 370 745 c 6
 366 726 l 5
 265 739 l 5
 269 760 l 6
 281 815 292 916 399 916 c 5xdf
 498 912 542 828 570 828 c 4
 589 828 594 862 602 901 c 6
 606 920 l 5xef
711 346 m 0
 711 517 582 588 465 588 c 0
 355 588 231 519 231 355 c 0
 231 201 339 105 475 105 c 0
 587 105 711 176 711 346 c 0
472 701 m 0
 684 701 837 568 837 354 c 0
 837 139 688 -7 468 -7 c 0
 280 -7 105 109 105 345 c 0
 105 562 257 701 472 701 c 0
EndSplineSet
EndChar

StartChar: Ugrave
Encoding: 217 217 162
Width: 851
VWidth: 0
Flags: W
HStem: -10 112<333.479 555.722> 674 20G<142 265 626 749>
VStem: 142 123<167.592 694> 626 123<167.162 694>
LayerCount: 3
Fore
SplineSet
142 694 m 1
 265 694 l 1
 265 254 l 2
 265 179 290 102 445 102 c 0
 590 102 626 169 626 254 c 2
 626 694 l 1
 749 694 l 1
 749 242 l 2
 749 170 746 -10 441 -10 c 0
 144 -10 142 171 142 242 c 2
 142 694 l 1
324 963 m 5
 638 791 l 5
 583 705 l 5
 263 868 l 5
 324 963 l 5
EndSplineSet
EndChar

StartChar: Uacute
Encoding: 218 218 163
Width: 851
VWidth: 0
Flags: W
HStem: -10 112<333.479 555.722> 674 20G<142 265 626 749>
VStem: 142 123<167.592 694> 626 123<167.162 694>
LayerCount: 3
Fore
SplineSet
142 694 m 1
 265 694 l 1
 265 254 l 2
 265 179 290 102 445 102 c 0
 590 102 626 169 626 254 c 2
 626 694 l 1
 749 694 l 1
 749 242 l 2
 749 170 746 -10 441 -10 c 0
 144 -10 142 171 142 242 c 2
 142 694 l 1
582 965 m 5
 641 870 l 5
 323 705 l 5
 267 792 l 5
 582 965 l 5
EndSplineSet
EndChar

StartChar: Ucircumflex
Encoding: 219 219 164
Width: 851
VWidth: 0
Flags: W
HStem: -10 112<333.479 555.722> 674 20G<142 265 626 749>
VStem: 142 123<167.592 694> 626 123<167.162 694>
LayerCount: 3
Fore
SplineSet
142 694 m 1
 265 694 l 1
 265 254 l 2
 265 179 290 102 445 102 c 0
 590 102 626 169 626 254 c 2
 626 694 l 1
 749 694 l 1
 749 242 l 2
 749 170 746 -10 441 -10 c 0
 144 -10 142 171 142 242 c 2
 142 694 l 1
454 949 m 1
 625 778 l 1
 541 708 l 1
 445 803 l 1
 348 709 l 1
 266 774 l 1
 454 949 l 1
EndSplineSet
EndChar

StartChar: Yacute
Encoding: 221 221 165
Width: 696
VWidth: 0
Flags: W
HStem: 0 21G<306 444> 674 20G<49 207.829 554.948 710>
VStem: 306 138<0 324>
LayerCount: 3
Fore
SplineSet
49 694 m 1
 194 694 l 1
 380 425 l 1
 569 694 l 1
 710 694 l 1
 444 324 l 1
 444 0 l 1
 306 0 l 1
 306 324 l 1
 49 694 l 1
501 965 m 5
 562 870 l 5
 244 705 l 5
 188 792 l 5
 501 965 l 5
EndSplineSet
EndChar

StartChar: agrave
Encoding: 224 224 166
Width: 563
VWidth: 0
Flags: W
HStem: 0 90 200 65 400 90
LayerCount: 3
Fore
SplineSet
248 760 m 1
 482 576 l 1
 419 496 l 1
 164 676 l 1
 248 760 l 1
EndSplineSet
Refer: 0 97 N 1 0 0 1 0 0 2
EndChar

StartChar: aacute
Encoding: 225 225 167
Width: 563
VWidth: 0
Flags: W
HStem: 0 90 200 65 400 90
LayerCount: 3
Fore
SplineSet
392 765 m 1
 463 681 l 1
 215 501 l 1
 145 581 l 1
 392 765 l 1
EndSplineSet
Refer: 0 97 N 1 0 0 1 0 0 2
EndChar

StartChar: acircumflex
Encoding: 226 226 168
Width: 564
VWidth: 0
Flags: W
HStem: 0 90 200 65 400 90
LayerCount: 3
Fore
SplineSet
294 737 m 5
 462 567 l 5
 387 496 l 5
 285 591 l 5
 178 498 l 5
 102 562 l 5
 294 737 l 5
EndSplineSet
Refer: 0 97 N 1 0 0 1 0 0 2
EndChar

StartChar: atilde
Encoding: 227 227 169
Width: 563
VWidth: 0
Flags: W
HStem: 0 90 200 65 400 90 517 98<347.396 401.099> 605 99<177.108 236.764>
LayerCount: 3
Fore
SplineSet
418 708 m 5xf0
 510 693 l 5
 498 631 l 6
 495 613 479 517 387 517 c 5xf0
 278 521 230 605 199 605 c 4
 178 605 173 571 170 557 c 6
 160 514 l 5
 67 527 l 5
 80 589 l 6
 84 608 97 704 195 704 c 5xe8
 302 700 354 615 383 615 c 4
 403 615 408 658 409 664 c 6
 418 708 l 5xf0
EndSplineSet
Refer: 0 97 N 1 0 0 1 0 0 2
EndChar

StartChar: aring
Encoding: 229 229 170
Width: 563
VWidth: 0
Flags: W
HStem: 0 90 200 65 400 90 509 84<270.344 356.539> 684 84<269.831 357.633>
VStem: 162 99<602.609 674.844> 366 90<602.609 675.021>
LayerCount: 3
Fore
SplineSet
314 684 m 0
 283 684 261 663 261 639 c 0
 261 615 282 593 314 593 c 0
 343 593 366 615 366 639 c 0
 366 663 343 684 314 684 c 0
313 768 m 0
 397 768 456 711 456 639 c 0
 456 567 399 509 314 509 c 0
 229 509 162 567 162 639 c 0
 162 710 227 768 313 768 c 0
EndSplineSet
Refer: 0 97 N 1 0 0 1 0 0 2
EndChar

StartChar: egrave
Encoding: 232 232 171
Width: 564
VWidth: 0
Flags: W
HStem: 0 90 200 65 400 90
LayerCount: 3
Fore
SplineSet
254 765 m 1
 490 581 l 1
 425 501 l 1
 171 681 l 1
 254 765 l 1
EndSplineSet
Refer: 2 101 N 1 0 0 1 0 0 2
EndChar

StartChar: eacute
Encoding: 233 233 172
Width: 565
VWidth: 0
Flags: W
HStem: 0 90 200 65 400 90
LayerCount: 3
Fore
SplineSet
400 765 m 1
 471 681 l 1
 230 501 l 1
 155 581 l 1
 400 765 l 1
EndSplineSet
Refer: 2 101 N 1 0 0 1 0 0 2
EndChar

StartChar: ecircumflex
Encoding: 234 234 173
Width: 562
VWidth: 0
Flags: W
HStem: 0 90 200 65 400 90
LayerCount: 3
Fore
SplineSet
316 737 m 1
 481 567 l 1
 407 496 l 1
 308 591 l 1
 205 498 l 1
 122 562 l 1
 316 737 l 1
EndSplineSet
Refer: 2 101 N 1 0 0 1 0 0 2
EndChar

StartChar: igrave
Encoding: 236 236 174
Width: 295
VWidth: 0
Flags: W
HStem: 0 21G<96 216> 462 20G<96 216>
VStem: 96 120<0 482>
LayerCount: 3
Fore
SplineSet
96 482 m 1
 216 482 l 1
 216 0 l 1
 96 0 l 1
 96 482 l 1
71 765 m 1
 278 581 l 1
 215 501 l 1
 0 681 l 1
 71 765 l 1
EndSplineSet
EndChar

StartChar: iacute
Encoding: 237 237 175
Width: 295
VWidth: 0
Flags: W
HStem: 0 21G<95 215> 462 20G<95 215>
VStem: 95 120<0 482>
LayerCount: 3
Fore
SplineSet
95 482 m 1
 215 482 l 1
 215 0 l 1
 95 0 l 1
 95 482 l 1
262 765 m 1
 333 681 l 1
 118 501 l 1
 55 581 l 1
 262 765 l 1
EndSplineSet
EndChar

StartChar: icircumflex
Encoding: 238 238 176
Width: 298
VWidth: 0
Flags: W
HStem: 0 21G<96 216> 462 20G<96 216> 719 20G<141.938 174.838>
VStem: 96 120<0 482>
LayerCount: 3
Fore
SplineSet
96 482 m 1
 216 482 l 1
 216 0 l 1
 96 0 l 1
 96 482 l 1
159 739 m 1
 296 566 l 1
 222 495 l 1
 152 583 l 1
 81 497 l 1
 8 562 l 1
 159 739 l 1
EndSplineSet
EndChar

StartChar: ograve
Encoding: 242 242 177
Width: 671
VWidth: 0
Flags: W
HStem: -10 109<256.861 424.541> 383 109<248.337 414.946>
VStem: 63 119<172.971 320.588> 490 118<163.739 312.789>
LayerCount: 3
Fore
SplineSet
291 765 m 1
 523 581 l 1
 456 501 l 1
 208 681 l 1
 291 765 l 1
331 383 m 0
 259 383 182 340 182 249 c 0
 182 166 245 99 340 99 c 0
 423 99 490 152 490 236 c 0
 490 335 406 383 331 383 c 0
339 492 m 0
 496 492 608 406 608 250 c 0
 608 89 499 -10 330 -10 c 0
 170 -10 63 82 63 236 c 0
 63 393 169 492 339 492 c 0
EndSplineSet
EndChar

StartChar: oacute
Encoding: 243 243 178
Width: 671
VWidth: 0
Flags: W
HStem: -10 109<256.861 424.541> 383 109<248.337 414.946>
VStem: 63 119<172.971 320.588> 490 118<163.739 312.789>
LayerCount: 3
Fore
SplineSet
339 492 m 0
 496 492 608 406 608 250 c 0
 608 89 499 -10 330 -10 c 0
 170 -10 63 82 63 236 c 0
 63 393 169 492 339 492 c 0
331 383 m 0
 259 383 182 340 182 249 c 0
 182 166 245 99 340 99 c 0
 423 99 490 152 490 236 c 0
 490 335 406 383 331 383 c 0
395 765 m 1
 477 681 l 1
 229 501 l 1
 160 581 l 1
 395 765 l 1
EndSplineSet
EndChar

StartChar: ocircumflex
Encoding: 244 244 179
Width: 671
VWidth: 0
Flags: W
HStem: -10 109<256.861 424.541> 383 109<248.337 414.946> 717 20G<325.4 367.118>
VStem: 63 119<172.971 320.588> 490 118<163.739 312.789>
LayerCount: 3
Fore
SplineSet
339 492 m 0
 496 492 608 406 608 250 c 0
 608 89 499 -10 330 -10 c 0
 170 -10 63 82 63 236 c 0
 63 393 169 492 339 492 c 0
331 383 m 0
 259 383 182 340 182 249 c 0
 182 166 245 99 340 99 c 0
 423 99 490 152 490 236 c 0
 490 335 406 383 331 383 c 0
347 737 m 1
 518 567 l 1
 437 496 l 1
 339 591 l 1
 239 498 l 1
 158 562 l 1
 347 737 l 1
EndSplineSet
EndChar

StartChar: otilde
Encoding: 245 245 180
Width: 671
VWidth: 0
Flags: W
HStem: -10 109<256.861 424.541> 383 109<248.337 414.946> 519 98<397.396 451.096> 607 99<226.817 286.764>
VStem: 63 119<172.971 320.588> 490 118<163.739 312.789>
LayerCount: 3
Fore
SplineSet
467 710 m 1xec
 560 695 l 1
 547 633 l 2
 544 615 529 519 437 519 c 1xec
 328 523 280 607 249 607 c 0
 228 607 222 573 219 559 c 2
 209 516 l 1
 117 529 l 1
 129 591 l 2
 133 610 147 706 245 706 c 1xdc
 352 702 404 617 433 617 c 0
 453 617 458 660 459 666 c 2
 467 710 l 1xec
331 383 m 0
 259 383 182 340 182 249 c 0
 182 166 245 99 340 99 c 0
 423 99 490 152 490 236 c 0
 490 335 406 383 331 383 c 0
339 492 m 0
 496 492 608 406 608 250 c 0
 608 89 499 -10 330 -10 c 0
 170 -10 63 82 63 236 c 0
 63 393 169 492 339 492 c 0
EndSplineSet
EndChar

StartChar: ugrave
Encoding: 249 249 181
Width: 654
VWidth: 0
Flags: W
HStem: -10 112<237.115 405.808> 0 21G<468.909 567> 462 20G<88 208 447 567>
VStem: 88 120<132.365 482> 447 120<121.854 482>
LayerCount: 3
Fore
SplineSet
447 482 m 1xb8
 567 482 l 1
 567 0 l 1
 478 0 l 1x78
 463 33 l 1
 384 -1 318 -10 274 -10 c 0
 110 -10 88 99 88 197 c 2
 88 482 l 1
 208 482 l 1
 208 198 l 2
 208 166 212 102 316 102 c 0
 365 102 417 118 447 129 c 1
 447 482 l 1xb8
260 765 m 1
 498 581 l 1
 432 501 l 1
 180 681 l 1
 260 765 l 1
EndSplineSet
EndChar

StartChar: uacute
Encoding: 250 250 182
Width: 654
VWidth: 0
Flags: W
HStem: -10 112<237.115 405.808> 0 21G<468.909 567> 462 20G<88 208 447 567>
VStem: 88 120<132.365 482> 447 120<121.854 482>
LayerCount: 3
Fore
SplineSet
447 482 m 1xb8
 567 482 l 1
 567 0 l 1
 478 0 l 1x78
 463 33 l 1
 384 -1 318 -10 274 -10 c 0
 110 -10 88 99 88 197 c 2
 88 482 l 1
 208 482 l 1
 208 198 l 2
 208 166 212 102 316 102 c 0
 365 102 417 118 447 129 c 1
 447 482 l 1xb8
434 765 m 1
 507 681 l 1
 262 501 l 1
 189 581 l 1
 434 765 l 1
EndSplineSet
EndChar

StartChar: ucircumflex
Encoding: 251 251 183
Width: 654
VWidth: 0
Flags: W
HStem: -10 112<237.115 405.808> 0 21G<468.909 567> 462 20G<88 208 447 567> 717 20G<319.4 361>
VStem: 88 120<132.365 482> 447 120<121.854 482>
LayerCount: 3
Fore
SplineSet
447 482 m 1xbc
 567 482 l 1
 567 0 l 1
 478 0 l 1x7c
 463 33 l 1
 384 -1 318 -10 274 -10 c 0
 110 -10 88 99 88 197 c 2
 88 482 l 1
 208 482 l 1
 208 198 l 2
 208 166 212 102 316 102 c 0
 365 102 417 118 447 129 c 1
 447 482 l 1xbc
341 737 m 1
 511 567 l 1
 435 496 l 1
 333 591 l 1
 229 498 l 1
 152 562 l 1
 341 737 l 1
EndSplineSet
EndChar

StartChar: yacute
Encoding: 253 253 184
Width: 592
VWidth: 0
Flags: W
HStem: 462 20G<24 159.703 452 587>
LayerCount: 3
Fore
SplineSet
24 482 m 1
 151 482 l 1
 312 112 l 1
 460 482 l 1
 587 482 l 1
 269 -259 l 1
 124 -259 l 1
 244 1 l 1
 24 482 l 1
443 765 m 1
 517 681 l 1
 278 501 l 1
 206 581 l 1
 443 765 l 1
EndSplineSet
EndChar

StartChar: ntilde
Encoding: 241 241 185
Width: 654
VWidth: 0
Flags: W
HStem: 0 21G<88 208 446 567> 380 112<247.69 417.016> 462 20G<88 185.485> 519 99<405.291 461.028> 607 99<238.809 298.539>
VStem: 88 120<0 360.146> 446 121<0 349.635>
LayerCount: 3
Fore
SplineSet
477 710 m 1x96
 570 696 l 1
 557 634 l 2
 554 616 539 519 447 519 c 1x96
 339 523 292 607 261 607 c 0
 241 607 234 574 231 560 c 2
 221 516 l 1
 126 530 l 1
 139 592 l 2
 143 611 157 706 257 706 c 1x8e
 364 702 413 618 442 618 c 0
 462 618 467 657 469 666 c 2
 477 710 l 1x96
88 482 m 1xa6
 177 482 l 1xa6
 191 449 l 1
 270 483 336 492 380 492 c 0
 544 492 567 383 567 285 c 2
 567 0 l 1
 446 0 l 1
 446 283 l 2
 446 317 442 380 339 380 c 0xc6
 290 380 238 364 208 353 c 1
 208 0 l 1
 88 0 l 1
 88 482 l 1xa6
EndSplineSet
EndChar

StartChar: eth
Encoding: 240 240 186
Width: 691
VWidth: 1023
Flags: W
HStem: -10 106<259.714 410.593> 394 70<245.035 427.604> 680 20G<515 562.605>
VStem: 63 118<174.094 319.141> 486 118<178.354 353.812>
LayerCount: 3
Fore
SplineSet
181 255 m 0
 181 162 253 96 336 96 c 0
 382 96 463 117 481 235 c 0
 485 267 486 301 486 327 c 2
 486 346 l 1
 409 386 360 394 327 394 c 0
 244 394 181 339 181 255 c 0
290 711 m 2
 348 697 403 675 452 645 c 1
 551 700 l 1
 598 619 l 1
 527 578 l 1
 588 508 604 426 604 332 c 0
 604 160 566 -10 327 -10 c 0
 166 -10 63 74 63 212 c 0
 63 348 157 464 315 464 c 0
 349 464 399 460 473 431 c 1
 462 463 443 491 412 518 c 1
 307 465 l 1
 253 546 l 1
 320 580 l 1
 295 592 269 602 242 610 c 2
 217 618 l 1
 271 716 l 1
 290 711 l 2
EndSplineSet
EndChar

StartChar: thorn
Encoding: 254 254 187
Width: 676
VWidth: 1023
Flags: W
HStem: -11 108<258.044 426.206> 381 109<260.865 420.244> 674 20G<93 219>
VStem: 93 126<-259 21 135.219 338.167 456 694> 495 118<161.51 310.646>
LayerCount: 3
Back
SplineSet
298.34 420.898 m 4
 185.547 420.898 168.457 314.453 168.457 228.027 c 4
 168.457 176.27 175.293 57.1289 300.293 57.1289 c 4
 361.816 57.1289 454.59 101.074 454.59 234.863 c 4
 454.59 357.422 373.535 420.898 298.34 420.898 c 4
312.012 489.746 m 4
 431.641 489.746 532.715 400.879 532.715 249.023 c 4
 532.715 97.6562 435.547 -11.2305 307.617 -11.2305 c 4
 259.277 -11.2305 209.473 6.83594 172.852 41.0156 c 5
 172.852 -259.277 l 5
 92.7734 -259.277 l 5
 92.7734 693.848 l 5
 172.852 693.848 l 5
 172.852 432.129 l 5
 208.984 472.656 261.23 489.746 312.012 489.746 c 4
EndSplineSet
Fore
SplineSet
339 381 m 0
 262 381 213 343 213 229 c 0
 213 174 227 97 341 97 c 0
 402 97 495 130 495 235 c 0
 495 333 412 381 339 381 c 0
354 490 m 0
 501 490 613 400 613 249 c 0
 613 100 508 -11 350 -11 c 0
 305 -11 259 0 219 21 c 1
 219 -259 l 1
 93 -259 l 1
 93 694 l 1
 219 694 l 1
 219 456 l 1
 260 480 308 490 354 490 c 0
EndSplineSet
EndChar

StartChar: Eth
Encoding: 208 208 188
Width: 863
VWidth: 1023
Flags: W
HStem: 0 113<287 531.112> 301 114<57 164 287 414> 581 113<287 536.007>
VStem: 164 123<113 301 415 581> 684 124<239.352 449.531>
LayerCount: 3
Fore
SplineSet
164 694 m 1
 396 694 l 2
 503 694 808 678 808 367 c 0
 808 21 508 0 365 0 c 2
 164 0 l 1
 164 301 l 1
 57 301 l 1
 57 415 l 1
 164 415 l 1
 164 694 l 1
402 581 m 2
 287 581 l 1
 287 415 l 1
 414 415 l 1
 414 301 l 1
 287 301 l 1
 287 113 l 1
 368 113 l 2
 492 113 684 128 684 351 c 0
 684 448 632 581 402 581 c 2
EndSplineSet
EndChar

StartChar: Oslash
Encoding: 216 216 189
Width: 937
VWidth: 0
Flags: W
HStem: -7 112<382.676 587.057> -0 21G<113.226 154> 588 113<374.001 584.875>
VStem: 115 126<244.469 459.303> 721 126<238.736 456.46>
LayerCount: 3
Back
SplineSet
827.988 692.007 m 29
 77.6553 62.4023 l 29
 130.384 -0.436523 l 29
 880.718 629.17 l 29
 827.988 692.007 l 29
481.445 701.172 m 4
 693.359 701.172 847.168 568.848 847.168 354.492 c 4
 847.168 139.16 697.266 -7.32422 477.539 -7.32422 c 4
 289.062 -7.32422 114.746 108.887 114.746 345.215 c 4
 114.746 562.5 266.602 701.172 481.445 701.172 c 4
476.562 588.379 m 4
 362.793 588.379 240.723 518.066 240.723 354.98 c 4
 240.723 200.684 349.121 105.469 484.863 105.469 c 4
 596.68 105.469 721.191 176.27 721.191 346.191 c 4
 721.191 518.066 589.844 588.379 476.562 588.379 c 4
EndSplineSet
Fore
SplineSet
477 588 m 0x38
 363 588 241 518 241 355 c 0
 241 305 252 261 272 225 c 1
 639 534 l 1
 592 572 533 588 477 588 c 0x38
828 692 m 1
 881 629 l 1
 791 554 l 1
 827 500 847 432 847 354 c 0
 847 139 698 -7 478 -7 c 0xb8
 384 -7 293 22 226 80 c 1
 130 -0 l 1x78
 78 62 l 1
 172 141 l 1
 136 194 115 262 115 345 c 0
 115 562 266 701 481 701 c 0
 583 701 672 671 736 615 c 1
 828 692 l 1
692 471 m 1
 324 162 l 1
 367 126 423 105 485 105 c 0
 597 105 721 176 721 346 c 0
 721 396 711 437 692 471 c 1
EndSplineSet
EndChar

StartChar: logicalnot
Encoding: 172 172 190
Width: 683
VWidth: 1023
Flags: W
HStem: 265 112<41 530>
VStem: 530 113<118 265>
LayerCount: 3
Fore
SplineSet
41 377 m 1
 643 377 l 1
 643 118 l 1
 530 118 l 1
 530 265 l 1
 41 265 l 1
 41 377 l 1
EndSplineSet
EndChar

StartChar: macron
Encoding: 175 175 191
Width: 683
VWidth: 1023
Flags: W
HStem: 708 113<119 564>
LayerCount: 3
Fore
SplineSet
119 821 m 1
 564 821 l 1
 564 708 l 1
 119 708 l 1
 119 821 l 1
EndSplineSet
EndChar

StartChar: ordfeminine
Encoding: 170 170 192
Width: 374
VWidth: 1023
Flags: W
HStem: 350 64<148.62 235.995> 485 65<151.666 243> 603 63<89.4375 235.08>
VStem: 73 72<419.506 475.691> 243 72<422.972 485 550 593.789>
LayerCount: 3
Fore
SplineSet
243 485 m 1
 242 485 l 2
 178 485 145 476 145 448 c 0
 145 434 160 414 192 414 c 0
 211 414 229 424 243 444 c 1
 243 485 l 1
243 550 m 1
 243 569 239 603 186 603 c 0
 154 603 114 592 106 590 c 2
 94 586 l 1
 80 644 l 1
 90 647 l 1
 122 659 156 666 191 666 c 0
 309 666 315 592 315 552 c 2
 315 359 l 1
 261 359 l 1
 254 376 l 1
 235 360 211 350 185 350 c 0
 122 350 73 385 73 447 c 0
 73 531 134 549 243 550 c 1
EndSplineSet
EndChar

StartChar: Thorn
Encoding: 222 222 193
Width: 727
VWidth: 1023
Flags: W
HStem: 0 21G<142 265> 139 112<265 505.256> 472 99<265 507.007> 674 20G<142 265>
VStem: 142 123<0 141 254 469 566 694> 559 125<298.113 425.572>
LayerCount: 3
Fore
SplineSet
367 472 m 0
 332 472 299 471 265 469 c 1
 265 254 l 1
 307 252 335 251 352 251 c 2
 367 251 l 2
 462 251 559 261 559 367 c 0
 559 459 467 472 367 472 c 0
142 694 m 1
 265 694 l 1
 265 566 l 1
 307 569 349 571 393 571 c 0
 558 571 684 532 684 377 c 0
 684 299 652 189 525 155 c 1
 489 146 429 139 334 139 c 0
 311 139 288 140 265 141 c 1
 265 0 l 1
 142 0 l 1
 142 694 l 1
EndSplineSet
EndChar

StartChar: quotedblleft
Encoding: 8220 8220 194
Width: 405
VWidth: 1023
Flags: W
HStem: 506 252<65 130 251 315>
LayerCount: 3
Fore
SplineSet
388 758 m 1
 315 506 l 1
 178 506 l 1
 251 758 l 1
 388 758 l 1
203 758 m 1
 130 506 l 1
 -7 506 l 1
 65 758 l 1
 203 758 l 1
EndSplineSet
EndChar

StartChar: quotedblright
Encoding: 8221 8221 195
Width: 405
VWidth: 1023
Flags: W
HStem: 506 252<65 130 251 315>
LayerCount: 3
Fore
SplineSet
251 758 m 1
 388 758 l 1
 315 506 l 1
 178 506 l 1
 251 758 l 1
65 758 m 1
 203 758 l 1
 130 506 l 1
 -7 506 l 1
 65 758 l 1
EndSplineSet
EndChar

StartChar: Ydieresis
Encoding: 376 376 196
Width: 696
VWidth: 0
Flags: W
HStem: 0 21G<306 444> 674 20G<49 207.829 554.948 710> 796 131<184 328 428 574>
VStem: 184 144<796 927> 306 138<0 324> 428 146<796 927>
LayerCount: 3
Fore
SplineSet
49 694 m 1xe8
 194 694 l 1
 380 425 l 1
 569 694 l 1
 710 694 l 1
 444 324 l 1
 444 0 l 1
 306 0 l 1
 306 324 l 1
 49 694 l 1xe8
428 927 m 1xe4
 574 927 l 1
 574 796 l 1
 428 796 l 1
 428 927 l 1xe4
184 927 m 1xf0
 328 927 l 1
 328 796 l 1
 184 796 l 1
 184 927 l 1xf0
EndSplineSet
EndChar

StartChar: zcaron
Encoding: 382 382 197
Width: 606
VWidth: 0
Flags: W
HStem: 0 103<245 533> 379 103<73 345> 719 20G<382.204 428.438>
LayerCount: 3
Fore
SplineSet
73 482 m 1
 521 482 l 1
 521 420 l 1
 245 103 l 1
 533 103 l 1
 533 0 l 1
 73 0 l 1
 73 62 l 1
 345 379 l 1
 73 379 l 1
 73 482 l 1
291 500 m 1
 121 669 l 1
 195 740 l 1
 299 646 l 1
 405 739 l 1
 480 675 l 1
 291 500 l 1
EndSplineSet
EndChar

StartChar: Zcaron
Encoding: 381 381 198
Width: 743
VWidth: 0
Flags: W
HStem: 0 113<252 714> 581 113<90 514>
LayerCount: 3
Fore
SplineSet
90 694 m 1
 701 694 l 1
 701 619 l 1
 252 113 l 1
 714 113 l 1
 714 0 l 1
 76 0 l 1
 76 76 l 1
 514 581 l 1
 90 581 l 1
 90 694 l 1
389 711 m 1
 220 881 l 1
 302 952 l 1
 397 857 l 1
 494 951 l 1
 575 886 l 1
 389 711 l 1
EndSplineSet
EndChar

StartChar: Scaron
Encoding: 352 352 199
Width: 744
VWidth: 0
Flags: W
HStem: -10 122<249.292 496.476> 558 113<548.908 627.593> 582 118<327.007 596.457>
VStem: 137 134<462.416 539.871> 550 132<153.719 238.198>
LayerCount: 3
Fore
SplineSet
407 711 m 1x98
 233 881 l 1
 318 952 l 1
 415 857 l 1
 514 951 l 1
 593 886 l 1
 407 711 l 1x98
453 700 m 0xb8
 534 700 606 683 645 671 c 2
 665 666 l 1
 625 552 l 1
 606 558 l 1xd8
 535 578 479 582 445 582 c 0
 352 582 271 549 271 499 c 0
 271 380 682 423 682 200 c 0
 682 106 601 -10 370 -10 c 0
 272 -10 202 13 135 39 c 1
 117 45 l 1
 159 164 l 1
 178 156 l 1
 271 123 339 112 381 112 c 0
 481 112 550 146 550 196 c 0
 550 328 137 272 137 493 c 0
 137 606 256 700 453 700 c 0xb8
EndSplineSet
EndChar

StartChar: scaron
Encoding: 353 353 200
Width: 576
VWidth: 0
Flags: W
HStem: -10 103<150.277 378.767> 372 99<346.483 471.484> 389 103<226.72 476.133> 719 20G<395.065 440.125>
VStem: 81 127<318.934 370.3> 394 129<110.992 164.244>
LayerCount: 3
Fore
SplineSet
394 144 m 1xbc
 389 205 81 183 81 341 c 0
 81 400 135 492 343 492 c 0xbc
 418 492 448 481 482 471 c 2
 502 465 l 1
 469 367 l 1
 450 372 l 2xdc
 418 381 384 389 327 389 c 0
 220 389 208 352 208 340 c 0
 208 285 523 292 523 143 c 0
 523 80 478 -10 269 -10 c 0
 221 -10 155 -2 82 28 c 2
 63 36 l 1
 100 133 l 1
 118 126 l 1
 182 102 226 93 273 93 c 0
 357 93 394 110 394 144 c 1xbc
491 675 m 1
 306 500 l 1
 131 669 l 1
 211 740 l 1
 315 646 l 1
 417 739 l 1
 491 675 l 1
EndSplineSet
EndChar

StartChar: Euro
Encoding: 8364 8364 201
Width: 651
VWidth: 1023
Flags: W
HStem: -30 116<352.045 561.175> 226 104<4 103 242 432> 394 104<36 105 255 463> 605 114<343.37 547.944>
VStem: 103 115<330 394>
LayerCount: 3
Fore
SplineSet
117 226 m 1
 4 226 l 1
 4 330 l 1
 103 330 l 1
 103 335 103 340 103 346 c 0
 103 362 104 378 105 394 c 1
 36 394 l 1
 36 498 l 1
 127 498 l 1
 174 633 288 719 435 719 c 0
 506 719 567 700 612 680 c 2
 629 673 l 1
 594 566 l 1
 574 574 l 1
 494 605 447 605 433 605 c 0
 355 605 292 563 255 498 c 1
 463 498 l 1
 463 394 l 1
 221 394 l 1
 219 378 217 363 217 346 c 0
 217 341 218 335 218 330 c 1
 432 330 l 1
 432 226 l 1
 242 226 l 1
 277 146 347 86 448 86 c 0
 488 86 532 94 583 114 c 2
 602 122 l 1
 638 24 l 1
 622 16 l 2
 574 -7 507 -30 430 -30 c 0
 273 -30 156 74 117 226 c 1
EndSplineSet
EndChar

StartChar: emdash
Encoding: 8212 8212 202
Width: 715
VWidth: 1023
Flags: W
HStem: 268 107<0 716>
LayerCount: 3
Fore
SplineSet
0 375 m 5
 716 375 l 5
 716 268 l 5
 0 268 l 5
 0 375 l 5
EndSplineSet
EndChar

StartChar: endash
Encoding: 8211 8211 203
Width: 605
VWidth: 1023
Flags: W
HStem: 268 107<0 606>
LayerCount: 3
Fore
SplineSet
0 375 m 5
 606 375 l 5
 606 268 l 5
 0 268 l 5
 0 375 l 5
EndSplineSet
EndChar

StartChar: afii00208
Encoding: 8213 8213 204
Width: 821
VWidth: 1023
Flags: W
HStem: 268 107<0 821>
LayerCount: 3
Fore
SplineSet
0 375 m 5
 821 375 l 5
 821 268 l 5
 0 268 l 5
 0 375 l 5
EndSplineSet
EndChar

StartChar: ellipsis
Encoding: 8230 8230 205
Width: 839
VWidth: 1023
Flags: W
HStem: -20 143<68 210 344 486 620 762>
VStem: 68 142<-20 123> 344 142<-20 123> 620 142<-20 123>
CounterMasks: 1 70
LayerCount: 3
Fore
SplineSet
68 123 m 1
 210 123 l 1
 210 -20 l 1
 68 -20 l 1
 68 123 l 1
344 123 m 1
 486 123 l 1
 486 -20 l 1
 344 -20 l 1
 344 123 l 1
620 123 m 1
 762 123 l 1
 762 -20 l 1
 620 -20 l 1
 620 123 l 1
EndSplineSet
EndChar

StartChar: bullet
Encoding: 8226 8226 206
Width: 680
VWidth: 0
Flags: W
HStem: 99 476<242.083 437.917>
VStem: 102 476<239.083 434.917>
LayerCount: 3
Back
SplineSet
173 337 m 132
 173 383 189.333 422.333 222 455 c 132
 254.667 487.667 294 504 340 504 c 132
 386 504 425.333 487.667 458 455 c 132
 490.667 422.333 507 383 507 337 c 132
 507 291 490.667 251.667 458 219 c 132
 425.333 186.333 386 170 340 170 c 132
 294 170 254.667 186.333 222 219 c 132
 189.333 251.667 173 291 173 337 c 132
EndSplineSet
Fore
SplineSet
173 337 m 132
 173 383 189.333 422.333 222 455 c 132
 254.667 487.667 294 504 340 504 c 132
 386 504 425.333 487.667 458 455 c 132
 490.667 422.333 507 383 507 337 c 132
 507 291 490.667 251.667 458 219 c 132
 425.333 186.333 386 170 340 170 c 132
 294 170 254.667 186.333 222 219 c 132
 189.333 251.667 173 291 173 337 c 132
EndSplineSet
EndChar

StartChar: uni203D
Encoding: 8253 8253 207
Width: 510
VWidth: 1023
Flags: W
HStem: -20 138<132 270> 612 110<82.7998 288.49>
VStem: 132 138<-20 118> 144 113<171 266.122 412 547> 327 121<460.977 575.458>
LayerCount: 3
Fore
SplineSet
132 118 m 1xe8
 270 118 l 1
 270 -20 l 1
 132 -20 l 1
 132 118 l 1xe8
448 534 m 0
 448 335 257 341 257 191 c 2
 257 171 l 1
 144 171 l 1
 144 547 l 1
 257 547 l 1
 257 412 l 1xd8
 292 441 327 476 327 523 c 0
 327 559 303 612 199 612 c 0
 170 612 125 608 82 590 c 2
 63 583 l 1
 23 678 l 1
 40 687 l 2
 86 709 142 722 207 722 c 0
 320 722 448 684 448 534 c 0
EndSplineSet
EndChar

StartChar: quoteleft
Encoding: 8216 8216 208
Width: 219
VWidth: 1023
Flags: W
HStem: 506 252<90 154>
VStem: 17 210
LayerCount: 3
Fore
SplineSet
17 758 m 1
 154 758 l 1
 227 506 l 1
 90 506 l 1
 17 758 l 1
EndSplineSet
EndChar

StartChar: quoteright
Encoding: 8217 8217 209
Width: 219
VWidth: 1023
Flags: W
HStem: 506 252<65 130>
VStem: -7 210
LayerCount: 3
Fore
SplineSet
65 758 m 1
 203 758 l 1
 130 506 l 1
 -7 506 l 1
 65 758 l 1
EndSplineSet
EndChar

StartChar: fraction
Encoding: 8260 8260 210
Width: 505
VWidth: 0
Flags: W
LayerCount: 3
Fore
SplineSet
399 714 m 1
 531 714 l 1
 107 -20 l 1
 -25 -20 l 1
 399 714 l 1
EndSplineSet
EndChar

StartChar: florin
Encoding: 402 402 211
Width: 480
VWidth: 1023
Flags: W
HStem: -264 107<-41.6016 127.597> -239 98<-39.4286 34.125> 379 103<56 150 289 462> 591 107<311.921 482.875>
VStem: 150 139<-137.525 379 482 568.287>
LayerCount: 3
Fore
SplineSet
56 482 m 1xb8
 150 482 l 1
 150 515 l 2
 150 546 152 583 175 618 c 0
 209 671 276 698 357 698 c 0
 406 698 452 687 482 678 c 2
 500 672 l 1
 479 575 l 1
 459 580 l 1
 423 589 402 591 387 591 c 0
 292 591 289 537 289 508 c 2
 289 482 l 1
 462 482 l 1
 462 379 l 1
 289 379 l 1
 289 -86 l 2
 289 -143 275 -264 83 -264 c 0xb8
 59 -264 18 -262 -41 -244 c 2
 -58 -239 l 1
 -38 -141 l 1x78
 -18 -146 l 2
 -4 -149 26 -157 55 -157 c 0
 147 -157 150 -109 150 -77 c 2
 150 379 l 1
 56 379 l 1
 56 482 l 1xb8
EndSplineSet
EndChar

StartChar: guilsinglleft
Encoding: 8249 8249 212
Width: 296
VWidth: 1023
Flags: W
VStem: 12 280
LayerCount: 3
Fore
SplineSet
150 502 m 1
 292 502 l 1
 143 304 l 1
 292 106 l 1
 151 106 l 1
 12 304 l 1
 150 502 l 1
EndSplineSet
EndChar

StartChar: guilsinglright
Encoding: 8250 8250 213
Width: 296
VWidth: 1023
Flags: W
VStem: 5 279
LayerCount: 3
Fore
SplineSet
5 502 m 5
 146 502 l 5
 284 304 l 5
 146 106 l 5
 5 106 l 5
 154 304 l 5
 5 502 l 5
EndSplineSet
EndChar

StartChar: dagger
Encoding: 8224 8224 214
Width: 459
VWidth: 1023
Flags: W
HStem: 548 96<63 175 285 397>
VStem: 175 110<52 553 639 758>
LayerCount: 3
Fore
SplineSet
175 553 m 1
 63 548 l 1
 63 644 l 1
 175 639 l 1
 175 758 l 1
 285 758 l 1
 285 639 l 1
 397 644 l 1
 397 548 l 1
 285 553 l 1
 285 52 l 1
 175 52 l 1
 175 553 l 1
EndSplineSet
EndChar

StartChar: daggerdbl
Encoding: 8225 8225 215
Width: 459
VWidth: 1023
Flags: W
HStem: -23 95<63 175 285 397> 548 96<63 175 285 397>
VStem: 175 110<-137 -19 67 553 639 758>
LayerCount: 3
Fore
SplineSet
175 553 m 1
 63 548 l 1
 63 644 l 1
 175 639 l 1
 175 758 l 1
 285 758 l 1
 285 639 l 1
 397 644 l 1
 397 548 l 1
 285 553 l 1
 285 67 l 1
 397 72 l 1
 397 -23 l 1
 285 -19 l 1
 285 -137 l 1
 175 -137 l 1
 175 -19 l 1
 63 -23 l 1
 63 72 l 1
 175 67 l 1
 175 553 l 1
EndSplineSet
EndChar

StartChar: quotesinglbase
Encoding: 8218 8218 216
Width: 219
VWidth: 1023
Flags: W
HStem: -125 251<65 130>
VStem: -7 210
LayerCount: 3
Fore
SplineSet
65 126 m 1
 203 126 l 1
 130 -125 l 1
 -7 -125 l 1
 65 126 l 1
EndSplineSet
EndChar

StartChar: quotedblbase
Encoding: 8222 8222 217
Width: 405
VWidth: 1023
Flags: W
HStem: -127 252<65 130 251 315>
LayerCount: 3
Fore
SplineSet
251 125 m 1
 388 125 l 1
 315 -127 l 1
 178 -127 l 1
 251 125 l 1
65 125 m 1
 203 125 l 1
 130 -127 l 1
 -7 -127 l 1
 65 125 l 1
EndSplineSet
EndChar

StartChar: perthousand
Encoding: 8240 8240 218
Width: 937
VWidth: 1023
Flags: W
HStem: 12 86<442.299 509.89 738.538 805.923> 237 87<441.324 511.927 737.586 807.98> 374 85<126.129 193.185> 599 87<125.047 195.04>
VStem: 28 88<466.114 593.489> 203 88<465.797 593.249> 345 87<106.597 229.272> 520 87<104.59 230.878> 641 88<106.207 231.489> 816 88<104.59 230.878>
LayerCount: 3
Fore
SplineSet
504 714 m 1
 636 714 l 1
 135 -20 l 1
 3 -20 l 1
 504 714 l 1
904 171 m 0
 904 72 846 12 772 12 c 0
 708 12 641 51 641 172 c 0
 641 274 706 324 772 324 c 0
 828 324 904 293 904 171 c 0
772 237 m 0
 737 237 729 205 729 172 c 0
 729 135 737 98 772 98 c 0
 807 98 816 133 816 170 c 0
 816 231 790 237 772 237 c 0
607 171 m 0
 607 72 550 12 476 12 c 0
 412 12 345 51 345 172 c 0
 345 274 410 324 476 324 c 0
 532 324 607 293 607 171 c 0
476 237 m 0
 441 237 432 205 432 172 c 0
 432 135 441 98 476 98 c 0
 511 98 520 133 520 170 c 0
 520 231 494 237 476 237 c 0
291 533 m 0
 291 434 233 374 159 374 c 0
 95 374 28 413 28 534 c 0
 28 636 94 686 160 686 c 0
 214 686 291 657 291 533 c 0
159 599 m 0
 124 599 116 567 116 534 c 0
 116 497 125 459 160 459 c 0
 195 459 203 495 203 532 c 0
 203 593 177 599 159 599 c 0
EndSplineSet
EndChar

StartChar: circumflex
Encoding: 710 710 219
Width: 722
VWidth: 1023
Flags: W
HStem: 541 241
VStem: 188 319
LayerCount: 3
Fore
SplineSet
354 782 m 1
 507 612 l 1
 433 541 l 1
 347 636 l 1
 261 542 l 1
 188 607 l 1
 354 782 l 1
EndSplineSet
EndChar

StartChar: tilde
Encoding: 732 732 220
Width: 683
VWidth: 1023
Flags: W
HStem: 320 100<398.855 457.87> 409 99<250.676 307.303>
LayerCount: 3
Fore
SplineSet
431.7 420 m 4x80
 452.7 420 464.7 456 485.7 497 c 5
 494.7 514 l 5
 582.7 475 l 5
 573.7 457 l 6
 550.7 409 516.7 320 431.7 320 c 5x80
 340.7 324 305.7 409 274.7 409 c 4
 253.7 409 241.7 372 220.7 330 c 6
 211.7 313 l 5
 124.7 352 l 5
 132.7 371 l 6
 155.7 419 189.7 508 274.7 508 c 5x40
 365.7 504 399.7 420 431.7 420 c 4x80
EndSplineSet
EndChar

StartChar: ring
Encoding: 730 730 221
Width: 529
VWidth: 0
Flags: W
HStem: 529 84<246.538 319.026> 704 84<247.52 318.513>
VStem: 156 84<619.833 697.561> 326 85<619.833 698.019>
LayerCount: 3
Fore
SplineSet
284 704 m 0
 259 704 240 683 240 659 c 0
 240 635 258 613 284 613 c 0
 307 613 326 635 326 659 c 0
 326 683 308 704 284 704 c 0
411 659 m 0
 411 587 354 529 284 529 c 0
 215 529 156 587 156 659 c 0
 156 730 213 788 283 788 c 0
 352 788 411 731 411 659 c 0
EndSplineSet
EndChar

StartChar: breve
Encoding: 728 728 222
Width: 526
VWidth: 0
Flags: W
HStem: 528 108<196.872 317.604>
LayerCount: 3
Fore
SplineSet
47 684 m 5
 141 734 l 5
 150 716 l 6
 158 698 192 636 255 636 c 4
 306 636 355 682 383 719 c 5
 395 734 l 5
 483 674 l 5
 470 657 l 5
 418 589 336 528 247 528 c 4
 145 528 78 601 53 668 c 6
 47 684 l 5
EndSplineSet
EndChar

StartChar: caron
Encoding: 711 711 223
Width: 526
VWidth: 0
Flags: W
HStem: 520 240
VStem: 101 319
LayerCount: 3
Fore
SplineSet
253 520 m 1
 101 689 l 1
 175 760 l 1
 260 666 l 1
 347 759 l 1
 420 695 l 1
 253 520 l 1
EndSplineSet
EndChar

StartChar: dotaccent
Encoding: 729 729 224
Width: 585
VWidth: 0
Flags: W
HStem: 582 142<217 359>
VStem: 217 142<582 724>
LayerCount: 3
Fore
SplineSet
217 724 m 1
 359 724 l 1
 359 582 l 1
 217 582 l 1
 217 724 l 1
EndSplineSet
EndChar

StartChar: trademark
Encoding: 8482 8482 225
Width: 695
VWidth: 1023
Flags: W
HStem: 448 302<127 199 325 397 557 629> 687 63<42 127 199 285>
VStem: 127 72<448 687> 325 72<448 629> 557 72<448 630>
LayerCount: 3
Fore
SplineSet
199 448 m 1xb8
 127 448 l 1xb8
 127 687 l 1
 42 687 l 1
 42 750 l 1
 285 750 l 1
 285 687 l 1
 199 687 l 1x78
 199 448 l 1xb8
325 750 m 1
 401 750 l 1
 478 609 l 1
 551 750 l 1x78
 629 750 l 1
 629 448 l 1
 557 448 l 1
 557 630 l 1
 499 522 l 1
 451 522 l 1
 397 629 l 1
 397 448 l 1
 325 448 l 1
 325 750 l 1
EndSplineSet
EndChar

StartChar: Amacron
Encoding: 256 256 226
Width: 755
VWidth: 0
Flags: W
HStem: 0 21G<63 191.462 612.429 748> 182 112<303 500> 674 20G<330.075 480.925> 726 103<187 627>
LayerCount: 3
Fore
SplineSet
338 694 m 1
 473 694 l 1
 748 0 l 1
 621 0 l 1
 543 182 l 1
 260 182 l 1
 183 0 l 1
 63 0 l 1
 338 694 l 1
500 294 m 1
 402 552 l 1
 303 294 l 1
 500 294 l 1
187 829 m 1
 627 829 l 1
 627 726 l 1
 187 726 l 1
 187 829 l 1
EndSplineSet
EndChar

StartChar: amacron
Encoding: 257 257 227
Width: 563
VWidth: 0
Flags: W
HStem: 0 90 200 65 400 90 548 103<118 458>
LayerCount: 3
Fore
SplineSet
118 651 m 5
 458 651 l 5
 458 548 l 5
 118 548 l 5
 118 651 l 5
EndSplineSet
Refer: 0 97 N 1 0 0 1 0 0 2
EndChar

StartChar: Abreve
Encoding: 258 258 228
Width: 755
VWidth: 0
Flags: W
HStem: 0 21G<63 191.462 612.429 748> 182 112<303 500> 674 20G<330.075 480.925> 720 108<343.164 475.831>
LayerCount: 3
Fore
SplineSet
178 876 m 5
 282 926 l 5
 292 908 l 6
 301 890 338 828 407 828 c 4
 463 828 517 874 548 911 c 6
 561 926 l 5
 655 866 l 5
 642 849 l 5
 587 781 496 720 398 720 c 4
 286 720 212 792 185 860 c 5
 178 876 l 5
500 294 m 1
 402 552 l 1
 303 294 l 1
 500 294 l 1
338 694 m 1
 473 694 l 1
 748 0 l 1
 621 0 l 1
 543 182 l 1
 260 182 l 1
 183 0 l 1
 63 0 l 1
 338 694 l 1
EndSplineSet
EndChar

StartChar: abreve
Encoding: 259 259 229
Width: 566
VWidth: 0
Flags: W
HStem: 0 90 200 65 400 90 508 108<211.499 357.771>
LayerCount: 3
Fore
SplineSet
54 664 m 1
 148 714 l 1
 158 696 l 1
 168 678 207 616 282 616 c 0
 343 616 401 662 430 699 c 2
 442 714 l 1
 530 654 l 1
 517 637 l 1
 465 569 379 508 273 508 c 0
 152 508 85 581 60 648 c 2
 54 664 l 1
EndSplineSet
Refer: 0 97 N 1 0 0 1 0 0 2
EndChar

StartChar: Cacute
Encoding: 262 262 230
Width: 788
VWidth: 0
Flags: W
HStem: -10 116<421.749 676.691> 585 114<412.52 668.923>
VStem: 134 124<255.911 443.299>
LayerCount: 3
Fore
SplineSet
585 973 m 1
 646 877 l 1
 328 713 l 1
 273 800 l 1
 585 973 l 1
134 346 m 0
 134 546 280 699 530 699 c 0
 590 699 664 689 737 660 c 1
 755 653 l 1
 717 547 l 1
 698 554 l 1
 618 581 562 585 527 585 c 0
 360 585 258 472 258 347 c 0
 258 218 367 106 547 106 c 0
 596 106 653 116 707 135 c 2
 725 141 l 1
 765 43 l 1
 747 36 l 2
 674 5 594 -10 523 -10 c 0
 273 -10 134 149 134 346 c 0
EndSplineSet
EndChar

StartChar: cacute
Encoding: 263 263 231
Width: 568
VWidth: 0
Flags: W
HStem: -10 106<255.865 475.152> 382 109<247.328 479.508>
VStem: 63 118<165.011 321.773>
LayerCount: 3
Fore
SplineSet
63 231 m 0
 63 427 202 491 348 491 c 0
 407 491 455 481 500 461 c 2
 518 454 l 1
 486 358 l 1
 467 365 l 2
 435 376 401 382 360 382 c 0
 270 382 181 355 181 246 c 0
 181 138 257 96 371 96 c 0
 405 96 434 101 461 111 c 1
 480 118 l 1
 513 25 l 1
 495 19 l 2
 441 -2 387 -10 337 -10 c 0
 200 -10 63 43 63 231 c 0
397 765 m 1
 468 681 l 1
 220 501 l 1
 150 581 l 1
 397 765 l 1
EndSplineSet
EndChar

StartChar: Ccircumflex
Encoding: 264 264 232
Width: 788
VWidth: 0
Flags: W
HStem: -10 116<421.749 676.691> 585 114<412.52 668.923>
VStem: 134 124<255.911 443.299>
LayerCount: 3
Fore
SplineSet
134 346 m 0
 134 546 280 699 530 699 c 0
 590 699 664 689 737 660 c 1
 755 653 l 1
 717 547 l 1
 698 554 l 1
 618 581 562 585 527 585 c 0
 360 585 258 472 258 347 c 0
 258 218 367 106 547 106 c 0
 596 106 653 116 707 135 c 2
 725 141 l 1
 765 43 l 1
 747 36 l 2
 674 5 594 -10 523 -10 c 0
 273 -10 134 149 134 346 c 0
479 953 m 5
 648 783 l 5
 565 712 l 5
 471 807 l 5
 374 713 l 5
 292 778 l 5
 479 953 l 5
EndSplineSet
EndChar

StartChar: ccircumflex
Encoding: 265 265 233
Width: 568
VWidth: 0
Flags: W
HStem: -10 106<255.865 475.152> 382 109<247.328 479.508>
VStem: 63 118<165.011 321.773>
LayerCount: 3
Fore
SplineSet
63 231 m 0
 63 427 202 491 348 491 c 0
 407 491 455 481 500 461 c 2
 518 454 l 1
 486 358 l 1
 467 365 l 2
 435 376 401 382 360 382 c 0
 270 382 181 355 181 246 c 0
 181 138 257 96 371 96 c 0
 405 96 434 101 461 111 c 1
 480 118 l 1
 513 25 l 1
 495 19 l 2
 441 -2 387 -10 337 -10 c 0
 200 -10 63 43 63 231 c 0
324 741 m 1
 490 571 l 1
 416 500 l 1
 315 595 l 1
 208 501 l 1
 130 566 l 1
 324 741 l 1
EndSplineSet
EndChar

StartChar: Cdotaccent
Encoding: 266 266 234
Width: 788
VWidth: 0
Flags: W
HStem: -10 116<421.749 676.691> 585 114<412.52 668.923> 750 143<381 540>
VStem: 134 124<255.911 443.299> 381 159<750 893>
LayerCount: 3
Fore
SplineSet
381 893 m 1
 540 893 l 1
 540 750 l 1
 381 750 l 1
 381 893 l 1
134 346 m 0
 134 546 280 699 530 699 c 0
 590 699 664 689 737 660 c 1
 755 653 l 1
 717 547 l 1
 698 554 l 1
 618 581 562 585 527 585 c 0
 360 585 258 472 258 347 c 0
 258 218 367 106 547 106 c 0
 596 106 653 116 707 135 c 2
 725 141 l 1
 765 43 l 1
 747 36 l 2
 674 5 594 -10 523 -10 c 0
 273 -10 134 149 134 346 c 0
EndSplineSet
EndChar

StartChar: cdotaccent
Encoding: 267 267 235
Width: 568
VWidth: 0
Flags: W
HStem: -10 106<255.865 475.152> 382 109<247.328 479.508> 552 142<247 415>
VStem: 63 118<165.011 321.773> 247 168<552 694>
LayerCount: 3
Fore
SplineSet
63 231 m 0
 63 427 202 491 348 491 c 0
 407 491 455 481 500 461 c 2
 518 454 l 1
 486 358 l 1
 467 365 l 2
 435 376 401 382 360 382 c 0
 270 382 181 355 181 246 c 0
 181 138 257 96 371 96 c 0
 405 96 434 101 461 111 c 1
 480 118 l 1
 513 25 l 1
 495 19 l 2
 441 -2 387 -10 337 -10 c 0
 200 -10 63 43 63 231 c 0
247 694 m 5
 415 694 l 5
 415 552 l 5
 247 552 l 5
 247 694 l 5
EndSplineSet
EndChar

StartChar: Ccaron
Encoding: 268 268 236
Width: 788
VWidth: 0
Flags: W
HStem: -10 116<421.749 676.691> 585 114<412.52 668.923>
VStem: 134 124<255.911 443.299>
LayerCount: 3
Fore
SplineSet
134 346 m 0
 134 546 280 699 530 699 c 0
 590 699 664 689 737 660 c 1
 755 653 l 1
 717 547 l 1
 698 554 l 1
 618 581 562 585 527 585 c 0
 360 585 258 472 258 347 c 0
 258 218 367 106 547 106 c 0
 596 106 653 116 707 135 c 2
 725 141 l 1
 765 43 l 1
 747 36 l 2
 674 5 594 -10 523 -10 c 0
 273 -10 134 149 134 346 c 0
477 711 m 1
 307 881 l 1
 390 952 l 1
 485 857 l 1
 582 951 l 1
 661 886 l 1
 477 711 l 1
EndSplineSet
EndChar

StartChar: ccaron
Encoding: 269 269 237
Width: 568
VWidth: 0
Flags: W
HStem: -10 106<255.865 475.152> 382 109<247.328 479.508> 719 20G<395.065 440.125>
VStem: 63 118<165.011 321.773>
LayerCount: 3
Fore
SplineSet
63 231 m 0
 63 427 202 491 348 491 c 0
 407 491 455 481 500 461 c 2
 518 454 l 1
 486 358 l 1
 467 365 l 2
 435 376 401 382 360 382 c 0
 270 382 181 355 181 246 c 0
 181 138 257 96 371 96 c 0
 405 96 434 101 461 111 c 1
 480 118 l 1
 513 25 l 1
 495 19 l 2
 441 -2 387 -10 337 -10 c 0
 200 -10 63 43 63 231 c 0
307 500 m 1
 131 669 l 1
 211 740 l 1
 315 646 l 1
 417 739 l 1
 491 675 l 1
 307 500 l 1
EndSplineSet
EndChar

StartChar: Dcaron
Encoding: 270 270 238
Width: 860
VWidth: 0
Flags: W
HStem: 0 113<265 516.066> 581 113<265 518.636>
VStem: 142 123<113 581> 659 123<245.346 452.971>
LayerCount: 3
Back
SplineSet
376.953 693.848 m 5xb8
 706.543 693.848 786.133 520.02 786.133 367.188 c 4
 786.133 226.074 729.98 61.0352 514.648 15.1367 c 4
 444.824 0 375 0 315.918 0 c 4
 314.453 0 313.477 0 312.012 0 c 6
 141.602 0 l 5
 141.602 693.848 l 5xb8
 376.953 693.848 l 5xb8
379.883 580.566 m 6xd8
 264.648 580.566 l 5xb8
 264.648 113.281 l 5
 345.703 113.281 l 6
 431.152 113.281 560.059 115.723 626.953 220.703 c 4
 641.602 243.652 662.109 286.133 662.109 351.074 c 4
 662.109 499.023 548.34 563.965 451.172 577.148 c 4
 428.711 580.078 404.785 580.566 379.883 580.566 c 6xd8
440.43 711.426 m 5
 279.297 881.348 l 5
 353.516 952.148 l 5
 448.73 857.422 l 5
 549.316 950.684 l 5
 634.277 885.742 l 5
 440.43 711.426 l 5
EndSplineSet
Fore
SplineSet
435 712 m 1
 283 882 l 1
 357 953 l 1
 442 858 l 1
 529 951 l 1
 602 888 l 1
 435 712 l 1
391 581 m 2
 265 581 l 1
 265 113 l 1
 354 113 l 2
 439 113 562 116 625 221 c 0
 639 244 659 286 659 351 c 0
 659 499 550 564 458 577 c 0
 437 580 414 581 391 581 c 2
388 694 m 2
 702 694 782 520 782 367 c 0
 782 226 726 62 519 15 c 0
 453 0 386 0 321 0 c 2
 142 0 l 1
 142 694 l 1
 388 694 l 2
EndSplineSet
EndChar

StartChar: dcaron
Encoding: 271 271 239
Width: 841
VWidth: 1023
Flags: W
HStem: -10 106<253.293 443.689> 0 21G<469.909 567> 389 103<249.155 445.612> 718 20G<447 567 668.996 825>
VStem: 63 119<162.788 326.028> 447 120<106.547 380.141 476 738>
LayerCount: 3
Fore
SplineSet
678 738 m 1x3c
 825 738 l 1
 720 507 l 1
 574 507 l 1
 678 738 l 1x3c
63 233 m 0
 63 402 173 492 333 492 c 0
 376 492 414 486 447 476 c 1
 447 738 l 1
 567 738 l 1
 567 0 l 1
 479 0 l 1x7c
 469 22 l 1
 419 -1 364 -10 317 -10 c 0xbc
 195 -10 63 50 63 233 c 0
348 96 m 0xbc
 386 96 421 104 447 113 c 1
 447 375 l 1
 421 382 385 389 347 389 c 0
 282 389 182 367 182 245 c 0
 182 122 281 96 348 96 c 0xbc
EndSplineSet
EndChar

StartChar: Dcroat
Encoding: 272 272 240
Width: 863
VWidth: 0
Flags: W
HStem: 0 113<287 531.112> 301 114<57 164 287 414> 581 113<287 536.007>
VStem: 164 123<113 301 415 581> 684 124<239.352 449.531>
LayerCount: 3
Back
SplineSet
398.926 693.848 m 5xdc
 728.516 693.848 808.105 520.02 808.105 367.188 c 4
 808.105 226.074 751.953 61.0352 536.621 15.1367 c 4
 466.797 0 396.973 0 337.891 0 c 4
 336.426 0 335.449 0 333.984 0 c 6
 163.574 0 l 5
 163.574 301.27 l 5
 57.1289 301.27 l 5
 57.1289 414.551 l 5
 163.574 414.551 l 5
 163.574 693.848 l 5xdc
 163.574 693.848 236.328 702.637 306.152 702.637 c 4xec
 340.82 702.637 375 700.684 398.926 693.848 c 5xdc
413.574 301.27 m 5
 286.621 301.27 l 5
 286.621 113.281 l 5
 367.676 113.281 l 6
 453.125 113.281 582.031 115.723 648.926 220.703 c 4
 663.574 243.652 684.082 286.133 684.082 351.074 c 4
 684.082 499.023 570.312 563.965 473.145 577.148 c 4
 450.684 580.078 426.758 580.566 401.855 580.566 c 6xec
 286.621 580.566 l 5
 286.621 414.551 l 5
 413.574 414.551 l 5
 413.574 301.27 l 5
EndSplineSet
Fore
SplineSet
402 581 m 2
 287 581 l 1
 287 415 l 1
 414 415 l 1
 414 301 l 1
 287 301 l 1
 287 113 l 1
 368 113 l 2
 492 113 684 128 684 351 c 0
 684 448 632 581 402 581 c 2
164 694 m 1
 396 694 l 2
 503 694 808 678 808 367 c 0
 808 21 508 0 365 0 c 2
 164 0 l 1
 164 301 l 1
 57 301 l 1
 57 415 l 1
 164 415 l 1
 164 694 l 1
EndSplineSet
EndChar

StartChar: Emacron
Encoding: 274 274 241
Width: 706
VWidth: 0
Flags: W
HStem: 0 113<265 628> 301 113<265 602> 581 113<265 628> 726 103<176 614>
VStem: 142 123<113 301 414 581>
LayerCount: 3
Fore
SplineSet
142 0 m 1
 142 694 l 1
 628 694 l 1
 628 581 l 1
 265 581 l 1
 265 414 l 1
 602 414 l 1
 602 301 l 1
 265 301 l 1
 265 113 l 1
 628 113 l 1
 628 0 l 1
 142 0 l 1
176 829 m 1
 614 829 l 1
 614 726 l 1
 176 726 l 1
 176 829 l 1
EndSplineSet
EndChar

StartChar: emacron
Encoding: 275 275 242
Width: 564
VWidth: 0
Flags: W
HStem: 0 90 200 65 400 90 538 113<112 481>
LayerCount: 3
Fore
SplineSet
112 651 m 5
 481 651 l 5
 481 538 l 5
 112 538 l 5
 112 651 l 5
EndSplineSet
Refer: 2 101 N 1 0 0 1 0 0 2
EndChar

StartChar: Ebreve
Encoding: 276 276 243
Width: 706
VWidth: 0
Flags: W
HStem: 0 113<265 628> 301 113<265 602> 581 113<265 628> 721 107<315.194 462.047>
VStem: 142 123<113 301 414 581>
LayerCount: 3
Fore
SplineSet
545 926 m 1
 634 866 l 1
 621 849 l 1
 555 761 465 721 375 721 c 0
 272 721 194 774 163 860 c 2
 157 876 l 1
 252 926 l 1
 261 908 l 1
 289 858 335 828 386 828 c 0
 429 828 482 849 534 911 c 1
 545 926 l 1
142 0 m 1
 142 694 l 1
 628 694 l 1
 628 581 l 1
 265 581 l 1
 265 414 l 1
 602 414 l 1
 602 301 l 1
 265 301 l 1
 265 113 l 1
 628 113 l 1
 628 0 l 1
 142 0 l 1
EndSplineSet
EndChar

StartChar: ebreve
Encoding: 277 277 244
Width: 570
VWidth: 0
Flags: W
HStem: 0 90 200 65 400 90 508 108<219.987 364.028>
LayerCount: 3
Fore
SplineSet
59 664 m 1
 157 714 l 1
 167 696 l 2
 177 678 216 616 289 616 c 0
 349 616 406 662 435 699 c 2
 447 714 l 1
 535 654 l 1
 523 637 l 1
 471 569 385 508 281 508 c 0
 162 508 90 581 65 648 c 2
 59 664 l 1
EndSplineSet
Refer: 2 101 N 1 0 0 1 0 0 2
EndChar

StartChar: Edotaccent
Encoding: 278 278 245
Width: 706
VWidth: 0
Flags: W
HStem: 0 113<265 628> 301 113<265 602> 581 113<265 628> 750 143<294 464>
VStem: 142 123<113 301 414 581> 294 170<750 893>
LayerCount: 3
Fore
SplineSet
142 0 m 1
 142 694 l 1
 628 694 l 1
 628 581 l 1
 265 581 l 1
 265 414 l 1
 602 414 l 1
 602 301 l 1
 265 301 l 1
 265 113 l 1
 628 113 l 1
 628 0 l 1
 142 0 l 1
294 893 m 1
 464 893 l 1
 464 750 l 1
 294 750 l 1
 294 893 l 1
EndSplineSet
EndChar

StartChar: edotaccent
Encoding: 279 279 246
Width: 564
VWidth: 0
Flags: W
HStem: 0 90 200 65 400 90 552 142<204 374>
VStem: 204 170<552 694>
LayerCount: 3
Fore
SplineSet
204 694 m 5
 374 694 l 5
 374 552 l 5
 204 552 l 5
 204 694 l 5
EndSplineSet
Refer: 2 101 N 1 0 0 1 0 0 2
EndChar

StartChar: Ecaron
Encoding: 282 282 247
Width: 706
VWidth: 0
Flags: W
HStem: 0 113<265 628> 301 113<265 602> 581 113<265 628>
VStem: 142 123<113 301 414 581>
LayerCount: 3
Fore
SplineSet
142 0 m 1
 142 694 l 1
 628 694 l 1
 628 581 l 1
 265 581 l 1
 265 414 l 1
 602 414 l 1
 602 301 l 1
 265 301 l 1
 265 113 l 1
 628 113 l 1
 628 0 l 1
 142 0 l 1
377 711 m 1
 206 881 l 1
 283 952 l 1
 385 857 l 1
 489 951 l 1
 565 886 l 1
 377 711 l 1
EndSplineSet
EndChar

StartChar: ecaron
Encoding: 283 283 248
Width: 564
VWidth: 0
Flags: W
HStem: 0 90 200 65 400 90
LayerCount: 3
Fore
SplineSet
293 500 m 1
 116 669 l 1
 200 740 l 1
 301 646 l 1
 402 739 l 1
 475 675 l 1
 293 500 l 1
EndSplineSet
Refer: 2 101 N 1 0 0 1 0 0 2
EndChar

StartChar: Gcircumflex
Encoding: 284 284 249
Width: 856
VWidth: 0
Flags: W
HStem: -10 114<396.834 627.714> 278 108<446 663> 586 113<388.775 631.362>
VStem: 105 124<254.627 445.232> 663 121<132.304 278>
LayerCount: 3
Fore
SplineSet
784 101 m 1
 758 73 679 -10 495 -10 c 0
 219 -10 105 175 105 346 c 0
 105 527 233 699 493 699 c 0
 596 699 683 671 742 638 c 1
 759 628 l 1
 708 531 l 1
 690 541 l 1
 651 561 576 586 498 586 c 0
 361 586 229 499 229 351 c 0
 229 207 350 104 516 104 c 0
 581 104 629 121 663 145 c 1
 663 278 l 1
 446 278 l 1
 446 386 l 1
 784 386 l 1
 784 101 l 1
470 953 m 1
 637 783 l 1
 555 712 l 1
 462 807 l 1
 366 713 l 1
 286 778 l 1
 470 953 l 1
EndSplineSet
EndChar

StartChar: gcircumflex
Encoding: 285 285 250
Width: 654
VWidth: 0
Flags: W
HStem: -264 107<147.07 371.577> -10 106<251.334 439.542> 387 105<244.506 439.466> 462 20G<467.429 566>
VStem: 62 119<167.641 323.418> 441 125<-86.8073 12 107.391 374.641>
LayerCount: 3
Fore
SplineSet
151 566 m 1xcc
 340 741 l 1
 511 571 l 1
 430 500 l 1
 332 595 l 1
 231 501 l 1
 151 566 l 1xcc
326 492 m 0xec
 348 492 392 491 467 461 c 1
 476 482 l 1
 566 482 l 1xdc
 566 -10 l 2
 566 -124 515 -264 283 -264 c 0
 233 -264 170 -255 112 -231 c 1
 94 -224 l 1
 130 -129 l 1
 149 -136 l 1
 189 -150 233 -157 271 -157 c 0
 449 -157 441 -22 441 12 c 1
 405 -1 363 -10 317 -10 c 0
 192 -10 62 56 62 240 c 0
 62 431 218 492 326 492 c 0xec
181 248 m 0
 181 164 233 96 343 96 c 0
 381 96 415 105 441 114 c 1
 441 369 l 1
 390 384 355 387 332 387 c 0xec
 241 387 181 333 181 248 c 0
EndSplineSet
EndChar

StartChar: Gbreve
Encoding: 286 286 251
Width: 856
VWidth: 0
Flags: W
HStem: -10 114<397.983 627.714> 278 108<446 663> 586 113<388.464 631.362> 720 108<409.747 543.818>
VStem: 105 124<254.813 446.18> 663 121<132.304 278>
LayerCount: 3
Fore
SplineSet
245 876 m 1
 348 926 l 1
 358 908 l 2
 367 890 404 828 474 828 c 0
 530 828 584 874 615 911 c 2
 627 926 l 1
 719 866 l 1
 706 849 l 1
 656 784 567 720 465 720 c 0
 353 720 278 792 251 860 c 1
 245 876 l 1
784 101 m 1
 758 73 679 -10 495 -10 c 0
 227 -10 105 163 105 340 c 0
 105 519 231 699 493 699 c 0
 596 699 683 671 742 638 c 1
 759 628 l 1
 708 531 l 1
 690 541 l 1
 651 561 576 586 498 586 c 0
 361 586 229 499 229 351 c 0
 229 207 350 104 516 104 c 0
 581 104 629 121 663 145 c 1
 663 278 l 1
 446 278 l 1
 446 386 l 1
 784 386 l 1
 784 101 l 1
EndSplineSet
EndChar

StartChar: gbreve
Encoding: 287 287 252
Width: 654
VWidth: 0
Flags: W
HStem: -264 107<147.07 370.058> -10 106<251.334 439.542> 387 105<244.506 439.466> 462 20G<467.429 566> 508 108<277.097 418.367>
VStem: 62 119<167.641 323.418> 441 125<-88.2017 12 107.391 374.641>
LayerCount: 3
Fore
SplineSet
283 -264 m 0xde
 233 -264 170 -255 112 -231 c 1
 94 -224 l 1
 130 -129 l 1
 149 -136 l 1
 189 -150 233 -157 271 -157 c 0
 449 -157 441 -22 441 12 c 1
 405 -1 363 -10 317 -10 c 0
 192 -10 62 56 62 240 c 0
 62 431 218 492 326 492 c 0xee
 348 492 392 491 467 461 c 1
 476 482 l 1
 566 482 l 1
 566 -3 l 2
 566 -207 423 -264 283 -264 c 0xde
181 248 m 0
 181 164 233 96 343 96 c 0
 381 96 415 105 441 114 c 1
 441 369 l 1
 390 384 355 387 332 387 c 0
 241 387 181 333 181 248 c 0
120 648 m 2
 114 664 l 1
 212 714 l 1
 222 696 l 2
 232 678 271 616 344 616 c 0
 404 616 460 662 490 699 c 1
 502 714 l 1
 590 654 l 1
 577 637 l 1
 525 569 439 508 335 508 c 0
 217 508 145 581 120 648 c 2
EndSplineSet
EndChar

StartChar: Gdotaccent
Encoding: 288 288 253
Width: 856
VWidth: 0
Flags: W
HStem: -10 114<396.834 627.714> 278 108<446 663> 586 113<388.775 631.362> 750 143<406 562>
VStem: 105 124<254.627 445.232> 406 156<750 893> 663 121<132.304 278>
LayerCount: 3
Fore
SplineSet
406 893 m 1
 562 893 l 1
 562 750 l 1
 406 750 l 1
 406 893 l 1
784 101 m 1
 758 73 679 -10 495 -10 c 0
 219 -10 105 175 105 346 c 0
 105 527 233 699 493 699 c 0
 596 699 683 671 742 638 c 1
 759 628 l 1
 708 531 l 1
 690 541 l 1
 651 561 576 586 498 586 c 0
 361 586 229 499 229 351 c 0
 229 207 350 104 516 104 c 0
 581 104 629 121 663 145 c 1
 663 278 l 1
 446 278 l 1
 446 386 l 1
 784 386 l 1
 784 101 l 1
EndSplineSet
EndChar

StartChar: gdotaccent
Encoding: 289 289 254
Width: 654
VWidth: 0
Flags: W
HStem: -264 107<147.07 371.577> -10 106<251.334 439.542> 387 105<244.506 439.466> 462 20G<467.429 566> 552 142<244 409>
VStem: 62 119<167.641 323.418> 244 165<552 694> 441 125<-86.8073 12 107.391 374.641>
LayerCount: 3
Fore
SplineSet
244 552 m 1xcf
 244 694 l 1
 409 694 l 1
 409 552 l 1
 244 552 l 1xcf
181 248 m 0
 181 164 233 96 343 96 c 0
 381 96 415 105 441 114 c 1
 441 369 l 1
 390 384 355 387 332 387 c 0xef
 241 387 181 333 181 248 c 0
326 492 m 0
 348 492 392 491 467 461 c 1
 476 482 l 1
 566 482 l 1xdf
 566 -10 l 2
 566 -124 515 -264 283 -264 c 0
 233 -264 170 -255 112 -231 c 1
 94 -224 l 1
 130 -129 l 1
 149 -136 l 2
 175 -146 220 -157 271 -157 c 0
 449 -157 441 -22 441 12 c 1
 405 -1 363 -10 317 -10 c 0
 192 -10 62 56 62 240 c 0
 62 431 218 492 326 492 c 0
EndSplineSet
EndChar

StartChar: Gcommaaccent
Encoding: 290 290 255
Width: 856
VWidth: 0
Flags: W
HStem: -10 114<396.834 627.714> 278 108<446 663> 586 113<388.931 631.362>
VStem: 105 124<254.627 445.418> 663 121<132.304 278>
LayerCount: 3
Fore
SplineSet
784 101 m 1
 758 73 679 -10 495 -10 c 0
 219 -10 105 175 105 346 c 0
 105 528 234 699 493 699 c 0
 596 699 683 671 742 638 c 1
 759 628 l 1
 708 531 l 1
 690 541 l 1
 651 561 576 586 498 586 c 0
 361 586 229 499 229 351 c 0
 229 207 350 104 516 104 c 0
 581 104 629 121 663 145 c 1
 663 278 l 1
 446 278 l 1
 446 386 l 1
 784 386 l 1
 784 101 l 1
460 -29 m 1
 605 -29 l 1
 502 -259 l 1
 358 -259 l 1
 460 -29 l 1
EndSplineSet
EndChar

StartChar: Hcircumflex
Encoding: 292 292 256
Width: 861
VWidth: 0
Flags: W
HStem: 0 21G<142 265 636 759> 301 114<265 636> 674 20G<142 265 636 759>
VStem: 142 123<0 301 415 694> 636 123<0 301 415 694>
LayerCount: 3
Fore
SplineSet
636 694 m 1
 759 694 l 1
 759 0 l 1
 636 0 l 1
 636 301 l 1
 265 301 l 1
 265 0 l 1
 142 0 l 1
 142 694 l 1
 265 694 l 1
 265 415 l 1
 636 415 l 1
 636 694 l 1
461 955 m 5
 632 785 l 5
 549 714 l 5
 454 809 l 5
 356 716 l 5
 275 781 l 5
 461 955 l 5
EndSplineSet
EndChar

StartChar: hcircumflex
Encoding: 293 293 257
Width: 661
VWidth: 0
Flags: W
HStem: 0 21G<93 213 452 574> 380 111<245.866 421.215> 718 20G<93 213> 739 21G<427.298 471.254>
VStem: 93 120<0 359.624 458 738> 452 122<0 348.095>
LayerCount: 3
Fore
SplineSet
344 380 m 0
 319 380 274 375 213 353 c 1
 213 0 l 1
 93 0 l 1
 93 738 l 1
 213 738 l 1
 213 458 l 1
 256 474 318 491 381 491 c 0
 567 491 574 348 574 274 c 2
 574 0 l 1
 452 0 l 1
 452 282 l 2
 452 308 451 380 344 380 c 0
355 979 m 5
 528 810 l 5
 449 739 l 5
 347 833 l 5
 242 740 l 5
 168 805 l 5
 355 979 l 5
EndSplineSet
EndChar

StartChar: Itilde
Encoding: 296 296 258
Width: 396
VWidth: 0
Flags: W
HStem: 0 21G<161 284> 674 20G<161 284>
VStem: 41 89<751.112 801.213> 161 123<0 694> 314 89<837.094 891.966>
LayerCount: 3
Back
SplineSet
148.926 795.898 m 6
 130.371 729.004 l 5
 41.0156 752.93 l 5
 59.082 820.312 l 6
 62.5 833.008 80.5664 911.133 165.527 911.133 c 4
 213.379 911.133 235.84 878.418 244.141 866.699 c 6
 267.578 835.938 l 6
 273.438 829.102 279.785 820.801 284.18 818.848 c 5
 288.086 822.754 292.969 835.449 295.41 846.68 c 5
 314.453 915.039 l 5
 403.32 890.137 l 5
 385.742 823.73 l 6
 379.395 800.781 356.445 716.797 277.344 716.797 c 4
 229.492 716.797 206.055 754.395 200.195 762.207 c 6
 176.758 793.457 l 6
 168.457 803.711 160.156 811.035 155.762 811.523 c 5
 153.32 809.57 150.879 802.734 148.926 795.898 c 6
160.645 0 m 5
 160.645 693.848 l 5
 283.691 693.848 l 5
 283.691 0 l 5
 160.645 0 l 5
284.668 818.848 m 5
 284.668 818.848 l 5
EndSplineSet
Fore
SplineSet
277 717 m 4
 203 717 180 811 159 811 c 4
 152 811 151 804 130 729 c 5
 41 753 l 5
 61 825 71 911 166 911 c 4
 243 911 263 821 284 821 c 4
 290 821 290 827 314 915 c 5
 403 890 l 5
 384 820 369 717 277 717 c 4
161 0 m 1
 161 694 l 1
 284 694 l 1
 284 0 l 1
 161 0 l 1
EndSplineSet
EndChar

StartChar: itilde
Encoding: 297 297 259
Width: 295
VWidth: 0
Flags: W
HStem: 0 21G<88 208> 462 20G<88 208>
VStem: -28 89<581.191 634.784> 88 120<0 482> 245 89<667.955 722.966>
LayerCount: 3
Back
SplineSet
367.188 609.375 m 4
 401.855 609.375 416.504 650.879 440.43 698.242 c 5
 491.211 675.293 l 5
 465.82 623.047 437.5 549.805 367.188 549.805 c 4
 290.039 549.805 256.348 637.695 211.426 637.695 c 4
 176.758 637.695 162.598 596.68 138.672 548.828 c 5
 86.9141 571.777 l 5
 112.305 624.023 141.113 697.266 211.426 697.266 c 4
 288.574 697.266 322.266 609.375 367.188 609.375 c 4
EndSplineSet
Fore
SplineSet
88 482 m 1
 208 482 l 1
 208 0 l 1
 88 0 l 1
 88 482 l 1
208 547 m 0
 134 547 110 641 89 641 c 0
 82 641 82 635 61 560 c 1
 -28 583 l 1
 -8 655 1 742 96 742 c 0
 173 742 193 651 214 651 c 0
 220 651 221 658 245 746 c 1
 334 721 l 1
 315 651 300 547 208 547 c 0
EndSplineSet
EndChar

StartChar: Imacron
Encoding: 298 298 260
Width: 396
VWidth: 0
Flags: W
HStem: 0 21G<156 279> 674 20G<156 279> 726 103<98 338>
VStem: 156 123<0 694>
LayerCount: 3
Fore
SplineSet
98 829 m 1
 338 829 l 1
 338 726 l 1
 98 726 l 1
 98 829 l 1
156 694 m 1
 279 694 l 1
 279 0 l 1
 156 0 l 1
 156 694 l 1
EndSplineSet
EndChar

StartChar: imacron
Encoding: 299 299 261
Width: 295
VWidth: 0
Flags: W
HStem: 0 21G<88 208> 462 20G<88 208> 548 103<39 257>
VStem: 88 120<0 482>
LayerCount: 3
Fore
SplineSet
88 482 m 1
 208 482 l 1
 208 0 l 1
 88 0 l 1
 88 482 l 1
39 651 m 1
 257 651 l 1
 257 548 l 1
 39 548 l 1
 39 651 l 1
EndSplineSet
EndChar

StartChar: Ibreve
Encoding: 300 300 262
Width: 436
VWidth: 0
Flags: W
HStem: 0 21G<160 283> 674 20G<160 283> 719 107<174.574 280.165>
VStem: 160 123<0 694>
LayerCount: 3
Back
SplineSet
40.5273 872.559 m 5
 135.254 923.34 l 5
 143.555 901.855 l 6
 159.668 859.375 188.965 832.52 219.727 832.52 c 4
 252.93 832.52 281.738 858.398 356.934 905.762 c 5
 369.629 922.852 l 5
 444.336 860.84 l 5
 436.035 846.191 l 6
 394.043 775.391 299.805 720.215 204.59 720.215 c 4
 109.863 720.215 63.9648 796.875 45.4102 856.934 c 6
 40.5273 872.559 l 5
EndSplineSet
Fore
SplineSet
42 875 m 5
 136 925 l 5
 145 906 l 6
 153 888 163 826 226 826 c 4
 277 826 306 873 334 910 c 5
 346 925 l 5
 434 865 l 5
 421 848 l 5
 369 780 307 719 218 719 c 4
 116 719 73 791 48 858 c 6
 42 875 l 5
160 694 m 1
 283 694 l 1
 283 0 l 1
 160 0 l 1
 160 694 l 1
EndSplineSet
EndChar

StartChar: ibreve
Encoding: 301 301 263
Width: 335
VWidth: 0
Flags: W
HStem: 0 21G<92 212> 462 20G<92 212> 543 107<110.732 216.435>
VStem: 92 120<0 482>
LayerCount: 3
Fore
SplineSet
-21 699 m 5
 72 749 l 5
 82 730 l 6
 90 712 99 650 162 650 c 4
 213 650 243 697 271 734 c 5
 283 749 l 5
 371 689 l 5
 358 672 l 5
 306 604 243 543 154 543 c 4
 52 543 9 616 -16 683 c 6
 -21 699 l 5
92 482 m 1
 212 482 l 1
 212 0 l 1
 92 0 l 1
 92 482 l 1
EndSplineSet
EndChar

StartChar: Idotaccent
Encoding: 304 304 264
Width: 396
VWidth: 0
Flags: W
HStem: 0 21G<156 279> 674 20G<156 279> 750 143<146 288>
VStem: 146 142<750 893> 156 123<0 694>
LayerCount: 3
Fore
SplineSet
146 893 m 1xf0
 288 893 l 1
 288 750 l 1
 146 750 l 1
 146 893 l 1xf0
156 694 m 1xe8
 279 694 l 1
 279 0 l 1
 156 0 l 1
 156 694 l 1xe8
EndSplineSet
EndChar

StartChar: IJ
Encoding: 306 306 265
Width: 941
VWidth: 0
Flags: W
HStem: -8 113<467.93 653.585> 0 21G<156 279> 9 108<469.639 555.014> 674 20G<156 279 720 843>
VStem: 156 123<0 694> 720 123<164.285 694>
LayerCount: 3
Fore
SplineSet
156 694 m 1x5c
 279 694 l 1
 279 0 l 1
 156 0 l 1
 156 694 l 1x5c
720 694 m 1
 843 694 l 1
 843 250 l 2
 843 141 814 -8 569 -8 c 0x9c
 535 -8 502 -4 469 4 c 2
 450 9 l 1
 471 117 l 1x3c
 491 112 l 2
 512 107 535 105 556 105 c 0x9c
 713 105 720 207 720 250 c 2
 720 694 l 1
EndSplineSet
EndChar

StartChar: ij
Encoding: 307 307 266
Width: 591
VWidth: 0
Flags: W
HStem: 0 21G<88 208> 462 20G<88 208 382 502> 562 132<81 217 375 511>
VStem: 81 136<562 694> 88 120<0 482> 375 136<562 694> 382 120<-120.677 482>
LayerCount: 3
Fore
SplineSet
382 482 m 1xe2
 502 482 l 1
 502 -47 l 2
 502 -103 500 -209 354 -260 c 1
 333 -266 l 1
 271 -171 l 1
 295 -162 l 2
 369 -135 382 -96 382 -57 c 2
 382 482 l 1xe2
375 694 m 1xe4
 511 694 l 1
 511 562 l 1
 375 562 l 1
 375 694 l 1xe4
88 482 m 1xe8
 208 482 l 1
 208 0 l 1
 88 0 l 1
 88 482 l 1xe8
81 694 m 1xf0
 217 694 l 1
 217 562 l 1
 81 562 l 1
 81 694 l 1xf0
EndSplineSet
EndChar

StartChar: Jcircumflex
Encoding: 308 308 267
Width: 545
VWidth: 1023
Flags: W
HStem: -8 113<71.0547 257.063> 9 108<72.7037 158.015> 674 20G<323 446>
VStem: 323 123<164.285 694>
LayerCount: 3
Back
SplineSet
388.184 952.637 m 5x20
 540.527 782.715 l 5
 465.82 711.914 l 5
 380.859 806.641 l 5
 283.691 713.379 l 5
 183.594 778.32 l 5
 388.184 952.637 l 5x20
323.242 693.848 m 5xa8
 446.289 693.848 l 5xa8
 446.289 215.332 l 6
 446.289 150.879 437.988 99.1211 387.207 54.1992 c 5
 359.863 31.25 297.363 -8.30078 172.852 -8.30078 c 4xb0
 139.16 -8.30078 104.98 -4.39453 72.2656 3.90625 c 6
 53.7109 8.78906 l 5
 74.2188 117.188 l 5x70
 94.7266 112.305 l 6
 115.234 107.422 137.695 104.98 159.18 104.98 c 4
 298.34 104.98 304.199 172.852 304.199 216.309 c 5xb0
 323.242 693.848 l 5xa8
EndSplineSet
Fore
SplineSet
323 694 m 1xb0
 446 694 l 1
 446 250 l 2
 446 141 418 -8 173 -8 c 0xb0
 139 -8 105 -4 72 4 c 2
 54 9 l 1
 74 117 l 1x70
 95 112 l 2
 116 107 138 105 159 105 c 0
 316 105 323 207 323 250 c 2
 323 694 l 1xb0
387 953 m 1
 540 783 l 1
 465 712 l 1
 380 807 l 1
 293 713 l 1
 220 778 l 1
 387 953 l 1
EndSplineSet
EndChar

StartChar: jcircumflex
Encoding: 309 309 268
Width: 295
VWidth: 0
Flags: W
HStem: 462 20G<96 216> 719 20G<141.938 174.838>
VStem: 96 120<-124.777 482>
LayerCount: 3
Fore
SplineSet
159 739 m 1
 296 566 l 1
 222 495 l 1
 152 583 l 1
 81 497 l 1
 8 562 l 1
 159 739 l 1
96 482 m 1
 216 482 l 1
 216 -47 l 2
 216 -109 211 -210 74 -260 c 1
 57 -266 l 1
 10 -171 l 1
 28 -162 l 2
 93 -131 96 -81 96 -55 c 2
 96 482 l 1
EndSplineSet
EndChar

StartChar: Kcommaaccent
Encoding: 310 310 269
Width: 771
VWidth: 0
Flags: W
HStem: 0 21G<142 265 577.238 756> 674 20G<142 265 561.126 739>
VStem: 142 123<0 336 376 694>
LayerCount: 3
Fore
SplineSet
142 0 m 1
 142 694 l 1
 265 694 l 1
 265 376 l 1
 581 694 l 1
 739 694 l 1
 405 362 l 1
 756 0 l 1
 597 0 l 1
 265 336 l 1
 265 0 l 1
 142 0 l 1
229 -250 m 5
 331 -20 l 5
 480 -20 l 5
 374 -250 l 5
 229 -250 l 5
EndSplineSet
EndChar

StartChar: kcommaaccent
Encoding: 311 311 270
Width: 604
VWidth: 0
Flags: W
HStem: 0 21G<88 208 424.333 592> 472 20G<416.241 584> 718 20G<88 208>
VStem: 88 120<0 240 289 738>
LayerCount: 3
Fore
SplineSet
151 -250 m 5
 253 -20 l 5
 402 -20 l 5
 296 -250 l 5
 151 -250 l 5
88 0 m 1
 88 738 l 1
 208 738 l 1
 208 289 l 1
 439 492 l 1
 584 492 l 1
 335 271 l 1
 592 0 l 1
 444 0 l 1
 208 240 l 1
 208 0 l 1
 88 0 l 1
EndSplineSet
EndChar

StartChar: Lacute
Encoding: 313 313 271
Width: 633
VWidth: 0
Flags: W
HStem: 0 113<274 623> 674 20G<148 271.103>
VStem: 148 126<113 694>
LayerCount: 3
Fore
SplineSet
148 694 m 1
 271 694 l 1
 274 113 l 1
 623 113 l 1
 623 0 l 1
 148 0 l 1
 148 694 l 1
449 973 m 1
 513 877 l 1
 188 713 l 1
 138 800 l 1
 449 973 l 1
EndSplineSet
EndChar

StartChar: lacute
Encoding: 314 314 272
Width: 355
VWidth: 0
Flags: W
HStem: -9.90039 104.22<141.5 304.592> 673.75 20<69.3868 189.4>
VStem: 69 120.145<102.826 693.75>
LayerCount: 3
Fore
SplineSet
398 1009 m 1
 453 914 l 1
 128 750 l 1
 78 837 l 1
 398 1009 l 1
EndSplineSet
Refer: 10 108 S 1 0 0 1 0 0 2
EndChar

StartChar: Lcommaaccent
Encoding: 315 315 273
Width: 633
VWidth: 0
Flags: W
HStem: 0 113<277 626> 674 20G<151 274.103>
VStem: 151 126<113 694>
LayerCount: 3
Fore
SplineSet
151 694 m 1
 274 694 l 1
 277 113 l 1
 626 113 l 1
 626 0 l 1
 151 0 l 1
 151 694 l 1
234 -20 m 1
 385 -20 l 1
 274 -250 l 1
 141 -250 l 1
 234 -20 l 1
EndSplineSet
EndChar

StartChar: lcommaaccent
Encoding: 316 316 274
Width: 315
VWidth: 0
Flags: W
HStem: -9.90039 104.22<141.5 304.592> 673.75 20<69.3868 189.4>
VStem: 69 120.145<102.826 693.75>
LayerCount: 3
Fore
SplineSet
127 -27 m 5
 259 -27 l 5
 165 -257 l 5
 34 -257 l 5
 127 -27 l 5
EndSplineSet
Refer: 10 108 N 1 0 0 1 0 0 2
EndChar

StartChar: Lcaron
Encoding: 317 317 275
Width: 633
VWidth: 0
Flags: W
HStem: 0 113<265 616> 674 20G<142 265 445.861 585>
VStem: 142 123<113 694>
LayerCount: 3
Fore
SplineSet
454 694 m 1
 585 694 l 1
 491 463 l 1
 360 463 l 1
 454 694 l 1
142 694 m 1
 265 694 l 1
 265 113 l 1
 616 113 l 1
 616 0 l 1
 142 0 l 1
 142 694 l 1
EndSplineSet
EndChar

StartChar: lcaron
Encoding: 318 318 276
Width: 433
VWidth: 0
Flags: W
HStem: -9.90039 104.22<141.5 304.592> 673.75 20<69.3868 189.4>
VStem: 69 120.145<102.826 693.75>
LayerCount: 3
Fore
SplineSet
293 738 m 1
 416 738 l 1
 346 507 l 1
 224 507 l 1
 293 738 l 1
EndSplineSet
Refer: 10 108 S 1 0 0 1 0 0 2
EndChar

StartChar: Ldot
Encoding: 319 319 277
Width: 633
VWidth: 0
Flags: W
HStem: 0 113<265 616> 279 143<346 514> 674 20G<142 265>
VStem: 142 123<113 694> 346 168<279 422>
LayerCount: 3
Fore
SplineSet
142 694 m 1
 265 694 l 1
 265 113 l 1
 616 113 l 1
 616 0 l 1
 142 0 l 1
 142 694 l 1
346 422 m 1
 514 422 l 1
 514 279 l 1
 346 279 l 1
 346 422 l 1
EndSplineSet
EndChar

StartChar: ldot
Encoding: 320 320 278
Width: 442
VWidth: 0
Flags: W
HStem: -9.90039 104.22<141.5 304.592> 287 142<261 403> 673.75 20<69.3868 189.4>
VStem: 69 120.145<102.826 693.75> 261 142<287 429>
LayerCount: 3
Fore
SplineSet
261 429 m 1
 403 429 l 1
 403 287 l 1
 261 287 l 1
 261 429 l 1
EndSplineSet
Refer: 10 108 S 1 0 0 1 0 0 2
EndChar

StartChar: Nacute
Encoding: 323 323 279
Width: 890
VWidth: 0
Flags: W
HStem: 0 21G<142 265 635.581 788> 674 20G<142 291.559 665 788>
VStem: 142 123<0 534> 665 123<161 694>
LayerCount: 3
Fore
SplineSet
142 694 m 1
 277 694 l 1
 665 161 l 1
 665 694 l 1
 788 694 l 1
 788 0 l 1
 650 0 l 1
 265 534 l 1
 265 0 l 1
 142 0 l 1
 142 694 l 1
593 973 m 1
 653 877 l 1
 336 713 l 1
 280 800 l 1
 593 973 l 1
EndSplineSet
EndChar

StartChar: nacute
Encoding: 324 324 280
Width: 654
VWidth: 0
Flags: W
HStem: 0 21G<88 208 446 567> 380 112<247.69 417.016> 462 20G<88 185.485>
VStem: 88 120<0 360.146> 446 121<0 349.635>
LayerCount: 3
Fore
SplineSet
88 482 m 1xb8
 177 482 l 1xb8
 191 449 l 1
 270 483 336 492 380 492 c 0
 544 492 567 383 567 285 c 2
 567 0 l 1
 446 0 l 1
 446 283 l 2
 446 317 442 380 339 380 c 0xd8
 290 380 238 364 208 353 c 1
 208 0 l 1
 88 0 l 1
 88 482 l 1xb8
484 763 m 1
 538 667 l 1
 214 503 l 1
 164 590 l 1
 484 763 l 1
EndSplineSet
EndChar

StartChar: Ncommaaccent
Encoding: 325 325 281
Width: 890
VWidth: 0
Flags: W
HStem: 0 21G<142 265 635.581 788> 674 20G<142 291.559 665 788>
VStem: 142 123<0 534> 665 123<161 694>
LayerCount: 3
Fore
SplineSet
390 -20 m 1
 536 -20 l 1
 432 -250 l 1
 286 -250 l 1
 390 -20 l 1
142 694 m 1
 277 694 l 1
 665 161 l 1
 665 694 l 1
 788 694 l 1
 788 0 l 1
 650 0 l 1
 265 534 l 1
 265 0 l 1
 142 0 l 1
 142 694 l 1
EndSplineSet
EndChar

StartChar: ncommaaccent
Encoding: 326 326 282
Width: 654
VWidth: 0
Flags: W
HStem: 0 21G<88 208 446 567> 380 112<247.69 417.016> 462 20G<88 185.485>
VStem: 88 120<0 360.146> 446 121<0 349.635>
LayerCount: 3
Fore
SplineSet
88 482 m 1xb8
 177 482 l 1xb8
 191 449 l 1
 270 483 336 492 380 492 c 0
 544 492 567 383 567 285 c 2
 567 0 l 1
 446 0 l 1
 446 283 l 2
 446 317 442 380 339 380 c 0xd8
 290 380 238 364 208 353 c 1
 208 0 l 1
 88 0 l 1
 88 482 l 1xb8
259 -20 m 1
 417 -20 l 1
 305 -250 l 1
 157 -250 l 1
 259 -20 l 1
EndSplineSet
EndChar

StartChar: Ncaron
Encoding: 327 327 283
Width: 890
VWidth: 0
Flags: W
HStem: 0 21G<142 265 635.581 788> 674 20G<142 291.559 665 788>
VStem: 142 123<0 534> 665 123<161 694>
LayerCount: 3
Fore
SplineSet
142 694 m 1
 277 694 l 1
 665 161 l 1
 665 694 l 1
 788 694 l 1
 788 0 l 1
 650 0 l 1
 265 534 l 1
 265 0 l 1
 142 0 l 1
 142 694 l 1
483 711 m 1
 313 882 l 1
 397 952 l 1
 491 857 l 1
 588 951 l 1
 669 886 l 1
 483 711 l 1
EndSplineSet
EndChar

StartChar: ncaron
Encoding: 328 328 284
Width: 654
VWidth: 0
Flags: W
HStem: 0 21G<88 208 446 567> 380 112<247.69 417.016> 462 20G<88 185.485>
VStem: 88 120<0 360.146> 446 121<0 349.635>
LayerCount: 3
Fore
SplineSet
88 482 m 1xb8
 177 482 l 1xb8
 191 449 l 1
 270 483 336 492 380 492 c 0
 544 492 567 383 567 285 c 2
 567 0 l 1
 446 0 l 1
 446 283 l 2
 446 317 442 380 339 380 c 0xd8
 290 380 238 364 208 353 c 1
 208 0 l 1
 88 0 l 1
 88 482 l 1xb8
333 501 m 1
 159 671 l 1
 239 742 l 1
 340 648 l 1
 445 741 l 1
 519 675 l 1
 333 501 l 1
EndSplineSet
EndChar

StartChar: Omacron
Encoding: 332 332 285
Width: 903
VWidth: 0
Flags: W
HStem: -7 112<370.856 577.057> 588 113<364.58 570.298> 726 103<263 700>
VStem: 105 126<248.908 459.514> 711 126<238.736 452.067>
LayerCount: 3
Fore
SplineSet
711 346 m 0
 711 517 582 588 465 588 c 0
 355 588 231 519 231 355 c 0
 231 201 339 105 475 105 c 0
 587 105 711 176 711 346 c 0
472 701 m 0
 684 701 837 568 837 354 c 0
 837 139 688 -7 468 -7 c 0
 280 -7 105 109 105 345 c 0
 105 562 257 701 472 701 c 0
263 829 m 1
 700 829 l 1
 700 726 l 1
 263 726 l 1
 263 829 l 1
EndSplineSet
EndChar

StartChar: omacron
Encoding: 333 333 286
Width: 671
VWidth: 0
Flags: W
HStem: -10 109<256.861 424.541> 383 109<248.337 414.946> 519 103<123 564>
VStem: 63 119<172.971 320.588> 490 118<163.739 312.789>
LayerCount: 3
Fore
SplineSet
339 492 m 0
 496 492 608 406 608 250 c 0
 608 89 499 -10 330 -10 c 0
 170 -10 63 82 63 236 c 0
 63 393 169 492 339 492 c 0
331 383 m 0
 259 383 182 340 182 249 c 0
 182 166 245 99 340 99 c 0
 423 99 490 152 490 236 c 0
 490 335 406 383 331 383 c 0
123 622 m 5
 564 622 l 5
 564 519 l 5
 123 519 l 5
 123 622 l 5
EndSplineSet
EndChar

StartChar: Obreve
Encoding: 334 334 287
Width: 903
VWidth: 0
Flags: W
HStem: -7 112<370.856 577.057> 588 113<364.58 570.298> 720 108<416.258 547.822>
VStem: 105 126<248.908 459.514> 711 126<238.736 452.067>
LayerCount: 3
Fore
SplineSet
253 876 m 1
 355 926 l 1
 365 908 l 2
 374 890 411 828 479 828 c 0
 535 828 589 874 619 911 c 2
 631 926 l 1
 727 866 l 1
 713 849 l 1
 657 781 568 720 471 720 c 0
 360 720 286 793 259 860 c 2
 253 876 l 1
711 346 m 0
 711 517 582 588 465 588 c 0
 355 588 231 519 231 355 c 0
 231 201 339 105 475 105 c 0
 587 105 711 176 711 346 c 0
472 701 m 0
 684 701 837 568 837 354 c 0
 837 139 688 -7 468 -7 c 0
 280 -7 105 109 105 345 c 0
 105 562 257 701 472 701 c 0
EndSplineSet
EndChar

StartChar: obreve
Encoding: 335 335 288
Width: 671
VWidth: 0
Flags: W
HStem: -10 109<256.861 424.541> 383 109<248.337 414.946> 508 108<289.216 429.941>
VStem: 63 119<172.971 320.588> 490 118<163.739 312.789>
LayerCount: 3
Fore
SplineSet
125 664 m 5
 225 714 l 5
 235 696 l 6
 245 678 283 616 356 616 c 4
 415 616 472 662 502 699 c 5
 514 714 l 5
 602 654 l 5
 589 637 l 5
 537 569 450 508 347 508 c 0
 229 508 156 581 131 648 c 6
 125 664 l 5
331 383 m 0
 259 383 182 340 182 249 c 0
 182 166 245 99 340 99 c 0
 423 99 490 152 490 236 c 0
 490 335 406 383 331 383 c 0
339 492 m 0
 496 492 608 406 608 250 c 0
 608 89 499 -10 330 -10 c 0
 170 -10 63 82 63 236 c 0
 63 393 169 492 339 492 c 0
EndSplineSet
EndChar

StartChar: Racute
Encoding: 340 340 289
Width: 782
VWidth: 0
Flags: W
HStem: 0 21G<142 265 562.63 737> 269 113<265 383> 581 113<265 506.534>
VStem: 142 123<0 269 382 581> 551 129<423.803 541.185>
LayerCount: 3
Fore
SplineSet
680 495 m 0
 680 410 641 324 528 290 c 1
 737 0 l 1
 577 0 l 5
 383 270 l 1
 375 270 367 269 359 269 c 2
 265 269 l 1
 265 0 l 1
 142 0 l 1
 142 694 l 1
 438 694 l 2
 498 694 572 691 626 640 c 1
 661 605 680 554 680 495 c 0
265 581 m 1
 265 382 l 1
 378 382 l 2
 453 382 512 389 540 438 c 0
 547 450 551 465 551 484 c 0
 551 523 527 565 459 577 c 0
 437 581 412 581 386 581 c 2
 265 581 l 1
513 973 m 1
 575 877 l 1
 253 713 l 1
 203 800 l 1
 513 973 l 1
EndSplineSet
EndChar

StartChar: racute
Encoding: 341 341 290
Width: 471
VWidth: 0
Flags: W
HStem: 0 21G<88 217> 383 109<224.182 432.719> 462 20G<88 188.2>
VStem: 88 129<0 367.693>
LayerCount: 3
Fore
SplineSet
191 457 m 1xb0
 235 478 292 492 354 492 c 0xd0
 388 492 423 485 455 470 c 2
 472 462 l 1xb0
 433 363 l 1
 415 370 l 2
 393 379 368 383 341 383 c 2
 340 383 l 2xd0
 298 383 255 375 217 360 c 1
 217 0 l 1
 88 0 l 1
 88 482 l 1
 177 482 l 1
 191 457 l 1xb0
358 765 m 1
 429 681 l 1
 174 501 l 1
 111 581 l 1
 358 765 l 1
EndSplineSet
EndChar

StartChar: Rcommaaccent
Encoding: 342 342 291
Width: 782
VWidth: 0
Flags: W
HStem: 0 21G<144 267 564.63 739> 269 113<267 385> 581 113<267 507.828>
VStem: 144 123<0 269 382 581> 553 129<423.803 541.185>
LayerCount: 3
Fore
SplineSet
235 -20 m 1
 380 -20 l 1
 273 -250 l 1
 142 -250 l 1
 235 -20 l 1
267 581 m 1
 267 382 l 1
 380 382 l 2
 455 382 514 389 542 438 c 0
 549 450 553 465 553 484 c 0
 553 523 529 565 461 577 c 0
 439 581 414 581 388 581 c 2
 267 581 l 1
682 495 m 0
 682 410 643 324 530 290 c 1
 739 0 l 1
 579 0 l 5
 385 270 l 1
 377 270 369 269 361 269 c 2
 267 269 l 1
 267 0 l 1
 144 0 l 1
 144 694 l 1
 439 694 l 2
 499 694 574 691 628 640 c 1
 663 605 682 554 682 495 c 0
EndSplineSet
EndChar

StartChar: rcommaaccent
Encoding: 343 343 292
Width: 471
VWidth: 0
Flags: W
HStem: 0 21G<98 227> 383 109<234.182 442.703> 462 20G<98 198.2>
VStem: 98 129<0 367.693>
LayerCount: 3
Fore
SplineSet
201 457 m 1xb0
 245 478 302 492 364 492 c 0xd0
 398 492 432 485 464 470 c 2
 481 462 l 1xb0
 443 363 l 1
 424 370 l 2
 402 379 378 383 351 383 c 2
 350 383 l 2xd0
 308 383 265 375 227 360 c 1
 227 0 l 1
 98 0 l 1
 98 482 l 1
 187 482 l 1
 201 457 l 1xb0
106 -20 m 1
 252 -20 l 1
 144 -250 l 1
 13 -250 l 1
 106 -20 l 1
EndSplineSet
EndChar

StartChar: Rcaron
Encoding: 344 344 293
Width: 782
VWidth: 0
Flags: W
HStem: 0 21G<142 265 562.63 737> 269 113<265 383> 581 113<265 506.534>
VStem: 142 123<0 269 382 581> 551 129<423.803 541.185>
LayerCount: 3
Fore
SplineSet
680 495 m 0
 680 410 641 324 528 290 c 1
 737 0 l 1
 577 0 l 5
 383 270 l 1
 375 270 367 269 359 269 c 2
 265 269 l 1
 265 0 l 1
 142 0 l 1
 142 694 l 1
 438 694 l 2
 498 694 572 691 626 640 c 1
 661 605 680 554 680 495 c 0
265 581 m 1
 265 382 l 1
 378 382 l 2
 453 382 512 389 540 438 c 0
 547 450 551 465 551 484 c 0
 551 523 527 565 459 577 c 0
 437 581 412 581 386 581 c 2
 265 581 l 1
374 711 m 1
 208 881 l 1
 285 952 l 1
 382 857 l 1
 481 951 l 1
 564 886 l 1
 374 711 l 1
EndSplineSet
EndChar

StartChar: rcaron
Encoding: 345 345 294
Width: 471
VWidth: 0
Flags: W
HStem: 0 21G<88 217> 383 109<224.182 432.719> 462 20G<88 188.2> 719 20G<372.28 416.812>
VStem: 88 129<0 367.693>
LayerCount: 3
Fore
SplineSet
191 457 m 1xb8
 235 478 292 492 354 492 c 0xd8
 388 492 423 485 455 470 c 2
 472 462 l 1xb8
 433 363 l 1
 415 370 l 2
 393 379 368 383 341 383 c 2
 340 383 l 2xd8
 298 383 255 375 217 360 c 1
 217 0 l 1
 88 0 l 1
 88 482 l 1
 177 482 l 1
 191 457 l 1xb8
284 500 m 1
 107 670 l 1
 184 740 l 1
 293 646 l 1
 394 739 l 1
 467 675 l 1
 284 500 l 1
EndSplineSet
EndChar

StartChar: Sacute
Encoding: 346 346 295
Width: 744
VWidth: 0
Flags: W
HStem: -10 122<249.292 496.476> 558 113<548.908 627.593> 582 118<327.007 596.457>
VStem: 137 134<462.416 539.871> 550 132<153.719 238.198>
LayerCount: 3
Fore
SplineSet
524 973 m 1x98
 583 877 l 1
 261 713 l 1
 208 800 l 1
 524 973 l 1x98
453 700 m 0xb8
 534 700 606 683 645 671 c 2
 665 666 l 1
 625 552 l 1
 606 558 l 1xd8
 535 578 479 582 445 582 c 0
 352 582 271 549 271 499 c 0
 271 380 682 423 682 200 c 0
 682 106 601 -10 370 -10 c 0
 272 -10 202 13 135 39 c 1
 117 45 l 1
 159 164 l 1
 178 156 l 1
 271 123 339 112 381 112 c 0
 481 112 550 146 550 196 c 0
 550 328 137 272 137 493 c 0
 137 606 256 700 453 700 c 0xb8
EndSplineSet
EndChar

StartChar: sacute
Encoding: 347 347 296
Width: 576
VWidth: 0
Flags: W
HStem: -10 103<150.277 378.767> 372 99<346.483 471.484> 389 103<226.72 476.133>
VStem: 81 127<318.934 370.3> 394 129<110.992 164.244>
LayerCount: 3
Fore
SplineSet
150 581 m 1x98
 396 765 l 1
 469 681 l 1
 221 501 l 1
 150 581 l 1x98
394 144 m 1
 389 205 81 183 81 341 c 0
 81 400 135 492 343 492 c 0xb8
 418 492 448 481 482 471 c 2
 502 465 l 1
 469 367 l 1
 450 372 l 2xd8
 418 381 384 389 327 389 c 0xb8
 220 389 208 352 208 340 c 0
 208 285 523 292 523 143 c 0
 523 80 478 -10 269 -10 c 0
 221 -10 155 -2 82 28 c 2
 63 36 l 1
 100 133 l 1
 118 126 l 1
 182 102 226 93 273 93 c 0
 357 93 394 110 394 144 c 1
EndSplineSet
EndChar

StartChar: Scircumflex
Encoding: 348 348 297
Width: 744
VWidth: 0
Flags: W
HStem: -10 122<249.292 496.476> 558 113<548.908 627.593> 582 118<327.007 596.457>
VStem: 137 134<462.416 539.871> 550 132<153.719 238.198>
LayerCount: 3
Fore
SplineSet
453 700 m 0xb8
 534 700 606 683 645 671 c 2
 665 666 l 1
 625 552 l 1
 606 558 l 1xd8
 535 578 479 582 445 582 c 0
 352 582 271 549 271 499 c 0
 271 380 682 423 682 200 c 0
 682 106 601 -10 370 -10 c 0
 272 -10 202 13 135 39 c 1
 117 45 l 1
 159 164 l 1
 178 156 l 1
 271 123 339 112 381 112 c 0
 481 112 550 146 550 196 c 0
 550 328 137 272 137 493 c 0
 137 606 256 700 453 700 c 0xb8
394 953 m 1
 567 783 l 1
 483 712 l 1
 386 807 l 1
 287 713 l 1
 208 778 l 1
 394 953 l 1
EndSplineSet
EndChar

StartChar: scircumflex
Encoding: 349 349 298
Width: 576
VWidth: 0
Flags: W
HStem: -10 103<150.277 378.767> 372 99<346.483 471.484> 389 103<226.72 476.133>
VStem: 81 127<318.934 370.3> 394 129<110.992 164.244>
LayerCount: 3
Fore
SplineSet
130 566 m 1x98
 323 741 l 1
 490 571 l 1
 416 500 l 1
 314 595 l 1
 208 501 l 1
 130 566 l 1x98
394 144 m 1
 389 205 81 183 81 341 c 0
 81 400 135 492 343 492 c 0xb8
 418 492 448 481 482 471 c 2
 502 465 l 1
 469 367 l 1
 450 372 l 2xd8
 418 381 384 389 327 389 c 0xb8
 220 389 208 352 208 340 c 0
 208 285 523 292 523 143 c 0
 523 80 478 -10 269 -10 c 0
 221 -10 155 -2 82 28 c 2
 63 36 l 1
 100 133 l 1
 118 126 l 1
 182 102 226 93 273 93 c 0
 357 93 394 110 394 144 c 1
EndSplineSet
EndChar

StartChar: Scedilla
Encoding: 350 350 299
Width: 744
VWidth: 0
Flags: W
HStem: -247 92<305.118 437.751> -215 90<271.744 333.485> -9 121<251.143 328 460 483> 582 118<328.575 596.647>
VStem: 137 136<460.459 539.871> 551 131<152.958 238.198>
LayerCount: 3
Back
SplineSet
462.402 -154.785 m 4x2f
 462.402 -202.148 422.852 -247.559 358.887 -247.559 c 4xaf
 332.52 -247.559 315.918 -243.164 259.766 -226.562 c 6
 243.164 -221.68 l 5
 257.812 -170.898 l 5x4f
 272.461 -175.293 l 6
 325.684 -190.918 344.238 -195.312 362.305 -195.312 c 4
 391.602 -195.312 407.227 -178.711 407.227 -161.133 c 4
 407.227 -129.395 366.211 -121.094 359.375 -118.652 c 6
 292.969 -98.6328 l 5
 317.383 -9.76562 l 5xaf
 240.234 -9.76562 181.152 11.7188 117.188 37.1094 c 5
 145.508 117.676 l 5x1f
 234.863 84.4727 297.363 72.2656 338.379 72.2656 c 4
 436.035 72.2656 505.859 114.746 505.859 181.641 c 4
 505.859 346.191 131.348 278.32 131.348 499.023 c 4
 131.348 606.445 236.328 700.195 400.879 700.195 c 4
 463.379 700.195 526.367 686.523 573.242 672.363 c 5
 546.387 596.68 l 5
 524.414 603.027 455.078 622.07 394.043 622.07 c 4
 299.805 622.07 221.68 578.125 221.68 512.695 c 4
 221.68 361.816 596.191 417.969 596.191 193.848 c 4
 596.191 114.746 539.062 15.625 389.648 -5.37109 c 5
 374.512 -66.4062 l 5
 384.277 -69.3359 462.402 -83.9844 462.402 -154.785 c 4x2f
EndSplineSet
Fore
SplineSet
409 -155 m 0xbc
 434 -155 439 -145 439 -140 c 0
 439 -125 399 -116 324 -97 c 2
 302 -92 l 1
 328 -9 l 1
 249 -5 192 17 135 39 c 1
 117 45 l 1
 159 164 l 1
 178 156 l 1
 272 123 340 112 382 112 c 0
 483 112 551 146 551 196 c 0
 551 328 137 272 137 493 c 0
 137 606 258 700 454 700 c 0
 535 700 606 683 645 671 c 2
 665 666 l 1
 624 552 l 1
 606 558 l 1
 536 578 479 582 446 582 c 0
 354 582 273 549 273 499 c 0
 273 380 682 423 682 200 c 0
 682 119 622 22 460 -3 c 1
 452 -32 l 1
 486 -42 548 -68 548 -134 c 0
 548 -193 491 -247 406 -247 c 0xbc
 378 -247 369 -246 267 -220 c 1
 245 -215 l 1
 274 -125 l 1x7c
 296 -131 l 2
 347 -145 385 -155 409 -155 c 0xbc
EndSplineSet
EndChar

StartChar: scedilla
Encoding: 351 351 300
Width: 576
VWidth: 1023
Flags: W
HStem: -243 86<188.3 341.14> 372 99<347.437 471.484> 389 103<232.899 476.133>
VStem: 81 131<319.068 368.165> 396 127<110.525 164.241>
LayerCount: 3
Back
SplineSet
344.727 -153.809 m 4
 344.727 -191.406 326.172 -237.305 244.629 -237.305 c 4
 216.309 -237.305 179.688 -231.934 133.789 -218.262 c 5
 146.484 -173.828 l 5
 205.078 -191.406 227.539 -196.777 247.559 -196.777 c 4
 278.809 -196.777 296.387 -178.711 296.387 -159.18 c 4
 296.387 -124.023 258.301 -118.164 184.57 -95.7031 c 5
 207.52 -9.76562 l 5
 171.875 -9.76562 122.07 2.92969 63.4766 26.8555 c 5
 85.9375 87.4023 l 5
 150.391 63.4766 188.965 53.2227 230.957 53.2227 c 4
 289.062 53.2227 350.098 65.918 350.098 128.906 c 4
 350.098 221.191 75.1953 184.57 75.1953 346.191 c 4
 75.1953 400.391 119.629 491.699 288.086 491.699 c 4
 350.586 491.699 375.977 482.422 410.645 472.168 c 5
 390.137 411.133 l 5
 358.398 419.922 323.73 429.199 274.902 429.199 c 4
 173.34 429.199 158.203 375.977 158.203 354.492 c 4
 158.203 268.066 437.5 288.574 437.5 138.184 c 4
 437.5 83.0078 405.273 -7.8125 270.02 -7.8125 c 5
 255.371 -66.4062 l 5
 277.832 -73.2422 344.727 -87.4023 344.727 -153.809 c 4
EndSplineSet
Fore
SplineSet
306 -157 m 0xb8
 333 -157 342 -146 342 -139 c 0
 342 -121 304 -116 221 -95 c 1
 198 -89 l 1
 225 -8 l 1
 181 -4 135 6 82 28 c 2
 63 36 l 1
 100 133 l 1
 118 126 l 1
 182 102 226 93 274 93 c 0
 359 93 396 110 396 144 c 1
 392 205 81 183 81 341 c 0
 81 400 134 492 344 492 c 0xb8
 418 492 448 481 482 471 c 2
 502 465 l 1
 469 367 l 1
 450 372 l 2xd8
 418 381 383 389 328 389 c 0
 246 389 212 361 212 341 c 0
 212 284 523 292 523 143 c 0
 523 89 490 15 355 -5 c 1
 346 -33 l 1
 385 -43 440 -68 440 -134 c 0
 440 -187 397 -243 304 -243 c 0
 258 -243 212 -230 164 -217 c 1
 145 -212 l 1
 168 -129 l 1
 188 -135 l 1
 247 -149 283 -157 306 -157 c 0xb8
EndSplineSet
EndChar

StartChar: Tcommaaccent
Encoding: 354 354 301
Width: 710
VWidth: 0
Flags: W
HStem: -247 93<250.4 380.965> 581 113<42 293 417 668>
VStem: 293 124<-32.9469 581>
LayerCount: 3
Back
SplineSet
41.5039 693.848 m 5
 668.457 693.848 l 5
 668.457 580.566 l 5
 416.504 580.566 l 5
 416.504 0 l 5
 293.457 0 l 5
 293.457 580.566 l 5
 41.5039 580.566 l 5
 41.5039 693.848 l 5
EndSplineSet
Fore
SplineSet
356 -154 m 1
 373 -154 382 -148 382 -141 c 0
 382 -123 328 -112 275 -97 c 1
 250 -91 l 1
 257 -73 l 2
 290 10 293 5 293 83 c 2
 293 581 l 1
 42 581 l 1
 42 694 l 1
 668 694 l 1
 668 581 l 1
 417 581 l 1
 417 90 l 2
 417 40 414 9 398 -35 c 1
 440 -49 501 -75 501 -134 c 0
 501 -189 443 -247 351 -247 c 0
 314 -247 289 -238 208 -220 c 1
 181 -215 l 1
 217 -125 l 1
 244 -131 l 1
 307 -146 334 -154 356 -154 c 1
EndSplineSet
EndChar

StartChar: tcommaaccent
Encoding: 355 355 302
Width: 448
VWidth: 0
Flags: W
HStem: -243 86<160.055 321.311> 379 103<34 99 234 406>
VStem: 99 135<105.335 379 482 621> 322 89<-155.081 -121.193>
LayerCount: 3
Back
SplineSet
257.812 515.137 m 5xd0
 359.375 745.605 l 5
 508.301 745.605 l 5xc8
 402.344 515.137 l 5
 257.812 515.137 l 5xd0
99.1211 620.605 m 5
 234.375 620.605 l 5
 234.375 482.422 l 5
 406.25 482.422 l 5
 406.25 379.395 l 5
 234.375 379.395 l 5
 234.375 163.086 l 6
 234.375 133.789 237.793 92.7734 306.641 92.7734 c 4
 322.754 92.7734 330.078 93.75 389.648 102.539 c 5
 408.691 105.957 l 5
 427.734 13.6719 l 5
 409.18 8.78906 l 5
 349.121 -5.85938 305.176 -9.76562 276.855 -9.76562 c 4
 130.371 -9.76562 99.1211 69.3359 99.1211 154.785 c 6
 99.1211 379.395 l 5
 34.1797 379.395 l 5
 34.1797 482.422 l 5
 99.1211 482.422 l 5
 99.1211 620.605 l 5
EndSplineSet
Fore
SplineSet
99 621 m 1
 234 621 l 1
 234 482 l 1
 406 482 l 1
 406 379 l 1
 234 379 l 1
 234 157 l 2
 234 127 246 85 318 85 c 0
 331 85 338 86 390 94 c 2
 409 97 l 1
 428 14 l 1
 409 9 l 2
 393 5 363 -4 332 -8 c 1
 326 -33 l 1
 357 -43 411 -68 411 -134 c 0
 411 -187 367 -243 285 -243 c 0
 229 -243 149 -222 134 -218 c 2
 115 -212 l 1
 139 -129 l 1
 160 -135 l 1
 187 -141 249 -157 288 -157 c 0
 309 -157 322 -152 322 -140 c 0
 322 -121 305 -120 195 -95 c 1
 169 -90 l 1
 203 0 l 1
 102 29 99 116 99 148 c 2
 99 379 l 1
 34 379 l 1
 34 482 l 1
 99 482 l 1
 99 621 l 1
EndSplineSet
EndChar

StartChar: Tcaron
Encoding: 356 356 303
Width: 670
VWidth: 0
Flags: W
HStem: 0 21G<293 417> 581 113<42 293 417 668>
VStem: 293 124<0 581>
LayerCount: 3
Fore
SplineSet
42 694 m 5
 668 694 l 5
 668 581 l 5
 417 581 l 5
 417 0 l 5
 293 0 l 5
 293 581 l 5
 42 581 l 5
 42 694 l 5
361 711 m 1
 191 881 l 1
 274 952 l 1
 370 857 l 1
 466 951 l 1
 548 886 l 1
 361 711 l 1
EndSplineSet
EndChar

StartChar: tcaron
Encoding: 357 357 304
Width: 448
VWidth: 0
Flags: W
HStem: -10 103<248.737 412.414> 9 94<307.744 409.854> 379 103<34 99 234 406>
VStem: 99 135<108.209 379 482 621>
LayerCount: 3
Fore
SplineSet
258 515 m 5x30
 359 746 l 5
 508 746 l 5
 402 515 l 5
 258 515 l 5x30
99 621 m 5
 234 621 l 5
 234 482 l 5
 406 482 l 5
 406 379 l 5
 234 379 l 5
 234 163 l 6
 234 134 238 93 307 93 c 4xb0
 323 93 330 94 390 103 c 5
 409 106 l 5
 428 14 l 5
 409 9 l 5x70
 349 -6 305 -10 277 -10 c 4xb0
 131 -10 99 70 99 155 c 6
 99 379 l 5
 34 379 l 5
 34 482 l 5
 99 482 l 5
 99 621 l 5
EndSplineSet
EndChar

StartChar: Utilde
Encoding: 360 360 305
Width: 851
VWidth: 0
Flags: W
HStem: -10 112<340.189 554.424> 674 20G<142 265 626 749> 722 99<485.369 551.448> 810 99<318.141 383.622>
VStem: 142 123<162.922 694> 626 123<166.699 694>
LayerCount: 3
Fore
SplineSet
445 -10 m 0xcc
 141 -10 141 171 141 243 c 0
 141 266 142 289 142 305 c 2
 142 694 l 1
 265 694 l 1
 265 254 l 2
 265 212 268 177 300 147 c 0
 314 134 355 102 445 102 c 0
 538 102 602 135 620 195 c 0
 625 213 626 233 626 254 c 2
 626 694 l 1
 749 694 l 1
 749 305 l 2
 749 285 750 264 750 243 c 0
 750 168 742 -10 445 -10 c 0xcc
347 909 m 1xdc
 450 905 487 821 522 821 c 0
 545 821 562 860 584 899 c 2
 594 916 l 1
 685 877 l 1
 676 858 l 2
 653 810 618 722 522 722 c 1xec
 418 726 383 810 347 810 c 0
 324 810 306 770 285 732 c 2
 275 715 l 1
 187 754 l 1
 195 772 l 2
 218 820 253 909 347 909 c 1xdc
EndSplineSet
EndChar

StartChar: utilde
Encoding: 361 361 306
Width: 656
VWidth: 0
Flags: W
HStem: -10 112<244.115 414.232> 0 21G<476.121 574> 462 20G<95 215 454 574> 510 99<391 458.403> 598 99<214.335 282.648>
VStem: 95 120<132.365 482> 454 120<121.854 482>
LayerCount: 3
Fore
SplineSet
243 697 m 1x2e
 354 693 392 609 430 609 c 0
 454 609 467 642 490 687 c 2
 499 705 l 1
 585 665 l 1
 576 646 l 1
 553 598 519 510 430 510 c 1x36
 320 514 282 598 244 598 c 0
 219 598 207 566 184 520 c 1
 175 503 l 1
 87 542 l 1
 96 561 l 1
 119 608 153 697 243 697 c 1x2e
454 482 m 1
 574 482 l 1
 574 0 l 1
 484 0 l 1x66
 471 33 l 1
 392 -1 325 -10 281 -10 c 0
 117 -10 95 99 95 197 c 2
 95 482 l 1
 215 482 l 1
 215 198 l 2
 215 166 219 102 323 102 c 0xa6
 372 102 424 118 454 129 c 1
 454 482 l 1
EndSplineSet
EndChar

StartChar: Umacron
Encoding: 362 362 307
Width: 851
VWidth: 0
Flags: W
HStem: -10 112<340.189 554.424> 674 20G<142 265 626 749> 726 103<193 678>
VStem: 142 123<162.922 694> 626 123<166.699 694>
LayerCount: 3
Fore
SplineSet
445 -10 m 0
 141 -10 141 171 141 243 c 0
 141 266 142 289 142 305 c 2
 142 694 l 1
 265 694 l 1
 265 254 l 2
 265 212 268 177 300 147 c 0
 314 134 355 102 445 102 c 0
 538 102 602 135 620 195 c 0
 625 213 626 233 626 254 c 2
 626 694 l 1
 749 694 l 1
 749 305 l 2
 749 285 750 264 750 243 c 0
 750 168 742 -10 445 -10 c 0
193 829 m 1
 678 829 l 1
 678 726 l 1
 193 726 l 1
 193 829 l 1
EndSplineSet
EndChar

StartChar: umacron
Encoding: 363 363 308
Width: 654
VWidth: 0
Flags: W
HStem: -10 112<237.115 405.808> 0 21G<468.909 567> 462 20G<88 208 447 567> 548 103<143 515>
VStem: 88 120<132.365 482> 447 120<121.854 482>
LayerCount: 3
Fore
SplineSet
447 482 m 1xbc
 567 482 l 1
 567 0 l 1
 478 0 l 1x7c
 463 33 l 1
 384 -1 318 -10 274 -10 c 0
 110 -10 88 99 88 197 c 2
 88 482 l 1
 208 482 l 1
 208 198 l 2
 208 166 212 102 316 102 c 0
 365 102 417 118 447 129 c 1
 447 482 l 1xbc
143 651 m 1
 515 651 l 1
 515 548 l 1
 143 548 l 1
 143 651 l 1
EndSplineSet
EndChar

StartChar: Ubreve
Encoding: 364 364 309
Width: 851
VWidth: 0
Flags: W
HStem: -10 112<340.332 554.424> 674 20G<142 265 626 749> 720 108<336.974 472.644>
VStem: 142 123<163.271 694> 626 123<166.699 694>
LayerCount: 3
Fore
SplineSet
179 876 m 1
 273 926 l 1
 284 908 l 2
 294 890 331 828 402 828 c 0
 460 828 515 874 546 911 c 1
 559 926 l 1
 655 866 l 1
 642 849 l 1
 586 781 493 720 393 720 c 0
 278 720 210 793 185 860 c 2
 179 876 l 1
445 -10 m 0
 142 -10 141 172 141 243 c 0
 141 264 142 285 142 305 c 2
 142 694 l 1
 265 694 l 1
 265 254 l 2
 265 212 268 177 300 147 c 0
 314 134 355 102 445 102 c 0
 538 102 602 135 620 195 c 0
 625 213 626 233 626 254 c 2
 626 694 l 1
 749 694 l 1
 749 305 l 2
 749 285 750 264 750 243 c 0
 750 168 742 -10 445 -10 c 0
EndSplineSet
EndChar

StartChar: ubreve
Encoding: 365 365 310
Width: 654
VWidth: 0
Flags: W
HStem: -10 112<237.115 405.808> 0 21G<468.909 567> 462 20G<88 208 447 567> 508 108<253.721 401.051>
VStem: 88 120<132.365 482> 447 120<121.854 482>
LayerCount: 3
Fore
SplineSet
447 482 m 1xbc
 567 482 l 1
 567 0 l 1
 478 0 l 1x7c
 463 33 l 1
 384 -1 318 -10 274 -10 c 0
 110 -10 88 99 88 197 c 2
 88 482 l 1
 208 482 l 1
 208 198 l 2
 208 166 212 102 316 102 c 0
 365 102 417 118 447 129 c 1
 447 482 l 1xbc
97 664 m 1
 191 714 l 1
 200 696 l 2
 209 678 249 616 325 616 c 0
 387 616 445 662 473 699 c 2
 485 714 l 1
 573 654 l 1
 561 637 l 1
 509 569 422 508 315 508 c 0
 195 508 128 580 103 648 c 2
 97 664 l 1
EndSplineSet
EndChar

StartChar: Uring
Encoding: 366 366 311
Width: 851
VWidth: 0
Flags: W
HStem: -10 112<340.332 554.424> 674 20G<142 265 626 749> 721 84<392.64 474.446> 896 84<392.578 474.328>
VStem: 142 123<163.271 694> 291 94<814.283 887.159> 482 96<812.267 887.517> 626 123<166.699 694>
LayerCount: 3
Fore
SplineSet
435 980 m 0
 513 980 578 923 578 851 c 0
 578 779 514 721 435 721 c 0
 357 721 291 779 291 851 c 0
 291 922 356 980 435 980 c 0
435 896 m 0
 407 896 385 875 385 851 c 0
 385 827 406 805 435 805 c 0
 466 805 482 831 482 851 c 0
 482 874 462 896 435 896 c 0
445 -10 m 0
 142 -10 141 172 141 243 c 0
 141 264 142 285 142 305 c 2
 142 694 l 1
 265 694 l 1
 265 254 l 2
 265 212 268 177 300 147 c 0
 314 134 355 102 445 102 c 0
 538 102 602 135 620 195 c 0
 625 213 626 233 626 254 c 2
 626 694 l 1
 749 694 l 1
 749 305 l 2
 749 285 750 264 750 243 c 0
 750 168 742 -10 445 -10 c 0
EndSplineSet
EndChar

StartChar: uring
Encoding: 367 367 312
Width: 654
VWidth: 0
Flags: W
HStem: -10 112<237.115 405.808> 0 21G<468.909 567> 462 20G<88 208 447 567> 509 84<285.573 371.728> 684 84<287.279 371.552>
VStem: 88 120<132.365 482> 182 96<602.283 674.844> 380 97<602.283 675.336> 447 120<121.854 482>
LayerCount: 3
Fore
SplineSet
447 482 m 1xbc80
 567 482 l 1
 567 0 l 1
 478 0 l 1x7c80
 463 33 l 1
 384 -1 318 -10 274 -10 c 0
 110 -10 88 99 88 197 c 2
 88 482 l 1
 208 482 l 1
 208 198 l 2
 208 166 212 102 316 102 c 0
 365 102 417 118 447 129 c 1
 447 482 l 1xbc80
330 768 m 0
 413 768 477 711 477 639 c 0
 477 567 414 509 330 509 c 0
 247 509 182 567 182 639 c 0x3b
 182 710 246 768 330 768 c 0
330 684 m 0
 300 684 278 663 278 639 c 0
 278 615 299 593 330 593 c 0
 358 593 380 615 380 639 c 0
 380 663 358 684 330 684 c 0
EndSplineSet
EndChar

StartChar: Wcircumflex
Encoding: 372 372 313
Width: 1172
VWidth: 0
Flags: W
HStem: 0 21G<291.372 423.382 772.71 904.493> 674 20G<68 205.004 552.458 679.191 1025.68 1157>
LayerCount: 3
Fore
SplineSet
68 694 m 1
 199 694 l 1
 359 161 l 1
 560 694 l 1
 673 694 l 1
 838 161 l 1
 1033 694 l 1
 1157 694 l 1
 897 0 l 1
 779 0 l 1
 612 531 l 1
 416 0 l 1
 298 0 l 1
 68 694 l 1
620 955 m 1
 784 785 l 1
 701 714 l 1
 613 809 l 1
 521 715 l 1
 439 780 l 1
 620 955 l 1
EndSplineSet
EndChar

StartChar: wcircumflex
Encoding: 373 373 314
Width: 942
VWidth: 0
Flags: W
HStem: 0 21G<207.282 332.818 583.487 709.585> 462 20G<29 164.443 414.597 537.425 793.285 931>
LayerCount: 3
Fore
SplineSet
29 482 m 1
 158 482 l 1
 273 125 l 1
 423 482 l 1
 531 482 l 1
 646 124 l 1
 802 482 l 1
 931 482 l 1
 700 0 l 1
 590 0 l 1
 477 347 l 1
 324 0 l 1
 215 0 l 1
 29 482 l 1
480 743 m 1
 650 573 l 1
 564 502 l 1
 474 597 l 1
 380 504 l 1
 294 569 l 1
 480 743 l 1
EndSplineSet
EndChar

StartChar: Ycircumflex
Encoding: 374 374 315
Width: 696
VWidth: 0
Flags: W
HStem: 0 21G<306 444> 674 20G<49 207.829 554.948 710>
VStem: 306 138<0 324>
LayerCount: 3
Fore
SplineSet
49 694 m 1
 194 694 l 1
 380 425 l 1
 569 694 l 1
 710 694 l 1
 444 324 l 1
 444 0 l 1
 306 0 l 1
 306 324 l 1
 49 694 l 1
389 953 m 1
 559 783 l 1
 476 712 l 1
 381 807 l 1
 283 713 l 1
 202 778 l 1
 389 953 l 1
EndSplineSet
EndChar

StartChar: ycircumflex
Encoding: 375 375 316
Width: 592
VWidth: 0
Flags: W
HStem: 462 20G<24 159.703 452 587>
LayerCount: 3
Fore
SplineSet
24 482 m 1
 151 482 l 1
 312 112 l 1
 460 482 l 1
 587 482 l 1
 269 -259 l 1
 124 -259 l 1
 244 1 l 1
 24 482 l 1
316 741 m 1
 487 571 l 1
 405 500 l 1
 308 595 l 1
 208 501 l 1
 127 566 l 1
 316 741 l 1
EndSplineSet
EndChar

StartChar: Zacute
Encoding: 377 377 317
Width: 743
VWidth: 0
Flags: W
HStem: 0 113<252 714> 581 113<90 514>
LayerCount: 3
Fore
SplineSet
90 694 m 1
 701 694 l 1
 701 619 l 1
 252 113 l 1
 714 113 l 1
 714 0 l 1
 76 0 l 1
 76 76 l 1
 514 581 l 1
 90 581 l 1
 90 694 l 1
530 973 m 1
 590 877 l 1
 274 713 l 1
 218 800 l 1
 530 973 l 1
EndSplineSet
EndChar

StartChar: zacute
Encoding: 378 378 318
Width: 606
VWidth: 0
Flags: W
HStem: 0 103<245 533> 379 103<73 345>
LayerCount: 3
Fore
SplineSet
73 482 m 1
 521 482 l 1
 521 420 l 1
 245 103 l 1
 533 103 l 1
 533 0 l 1
 73 0 l 1
 73 62 l 1
 345 379 l 1
 73 379 l 1
 73 482 l 1
394 765 m 1
 468 681 l 1
 218 501 l 1
 150 581 l 1
 394 765 l 1
EndSplineSet
EndChar

StartChar: Zdotaccent
Encoding: 379 379 319
Width: 743
VWidth: 0
Flags: W
HStem: 0 113<252 714> 581 113<90 514> 750 143<307 466>
VStem: 307 159<750 893>
LayerCount: 3
Fore
SplineSet
90 694 m 1
 701 694 l 1
 701 619 l 1
 252 113 l 1
 714 113 l 1
 714 0 l 1
 76 0 l 1
 76 76 l 1
 514 581 l 1
 90 581 l 1
 90 694 l 1
307 893 m 1
 466 893 l 1
 466 750 l 1
 307 750 l 1
 307 893 l 1
EndSplineSet
EndChar

StartChar: zdotaccent
Encoding: 380 380 320
Width: 606
VWidth: 0
Flags: W
HStem: 0 103<245 533> 379 103<73 345> 562 132<215 380>
VStem: 215 165<562 694>
LayerCount: 3
Fore
SplineSet
73 482 m 1
 521 482 l 1
 521 420 l 1
 245 103 l 1
 533 103 l 1
 533 0 l 1
 73 0 l 1
 73 62 l 1
 345 379 l 1
 73 379 l 1
 73 482 l 1
215 694 m 1
 380 694 l 1
 380 562 l 1
 215 562 l 1
 215 694 l 1
EndSplineSet
EndChar

StartChar: gcommaaccent
Encoding: 291 291 321
Width: 654
VWidth: 1023
Flags: W
HStem: -265 107<147.07 371.366> -10 105<251.334 439.542> 386 105<244.506 439.466> 462 20G<467.818 566>
VStem: 62 119<166.667 322.418> 441 125<-87.8073 11 106.391 373.641>
LayerCount: 3
Fore
SplineSet
213 525 m 1xcc
 321 755 l 1
 473 755 l 1
 364 525 l 1
 213 525 l 1xcc
181 247 m 0
 181 163 233 95 343 95 c 0
 381 95 415 104 441 113 c 1
 441 368 l 1
 390 383 355 386 332 386 c 0xec
 241 386 181 332 181 247 c 0
326 491 m 0
 348 491 392 490 467 460 c 1
 476 482 l 1
 566 482 l 1xdc
 566 -11 l 2
 566 -125 515 -265 283 -265 c 0
 233 -265 170 -256 112 -232 c 1
 94 -225 l 1
 130 -130 l 1
 149 -137 l 2
 175 -147 220 -158 271 -158 c 0
 448 -158 441 -26 441 11 c 1
 405 -1 363 -10 317 -10 c 0
 192 -10 62 55 62 239 c 0
 62 430 218 491 326 491 c 0
EndSplineSet
EndChar

StartChar: eng
Encoding: 331 331 322
Width: 654
VWidth: 1023
Flags: W
HStem: -169 107<268.07 431.215> -151 99<271.021 377.303> 0 21G<88 213> 380 112<250.323 418.552> 462 20G<88 187>
VStem: 88 125<0 360.477> 446 120<-48.6463 350.044>
LayerCount: 3
Fore
SplineSet
341 380 m 0xb6
 317 380 273 375 213 353 c 1
 213 0 l 1
 88 0 l 1
 88 482 l 1
 177 482 l 1x2e
 193 450 l 1
 274 484 339 492 379 492 c 0
 561 492 566 346 566 292 c 2
 566 12 l 2
 566 -84 535 -169 406 -169 c 0xb6
 379 -169 337 -166 271 -151 c 2
 249 -146 l 1
 272 -49 l 1
 295 -52 l 1x66
 357 -61 363 -62 378 -62 c 0
 435 -62 446 -30 446 12 c 2
 446 284 l 2
 446 318 442 380 341 380 c 0xb6
EndSplineSet
EndChar

StartChar: uni0237
Encoding: 567 567 323
Width: 295
VWidth: 1023
Flags: W
HStem: 462 20G<95 215>
VStem: 95 120<-124.777 482>
LayerCount: 3
Fore
SplineSet
95 482 m 1
 215 482 l 1
 215 -47 l 2
 215 -109 210 -210 73 -260 c 1
 56 -266 l 1
 9 -171 l 1
 27 -162 l 2
 92 -131 95 -81 95 -55 c 2
 95 482 l 1
EndSplineSet
EndChar

StartChar: Eng
Encoding: 330 330 324
Width: 884
VWidth: 1023
Flags: W
HStem: -178 107<470.391 638.847> -161 99<473.298 574.336> 0 21G<142 269> 602 122<386.858 588.136> 674 20G<142 239.769>
VStem: 142 127<0 554.045> 659 123<-50.3505 528.369>
LayerCount: 3
Fore
SplineSet
659 14 m 2xa6
 659 413 l 2
 659 473 659 602 492 602 c 0xb6
 449 602 383 591 269 546 c 1
 269 0 l 1
 142 0 l 1
 142 694 l 1
 229 694 l 1x2e
 250 655 l 1
 389 711 468 724 528 724 c 0
 679 724 763 638 779 523 c 0
 782 497 782 472 782 447 c 2
 782 3 l 2
 782 -137 691 -178 600 -178 c 0xb6
 574 -178 534 -176 473 -161 c 2
 452 -156 l 1
 474 -58 l 1
 496 -62 l 2x66
 536 -69 561 -71 575 -71 c 0
 658 -71 659 -14 659 14 c 2xa6
EndSplineSet
EndChar

StartChar: Lslash
Encoding: 321 321 325
Width: 633
VWidth: 1023
Flags: W
HStem: 0 113<276 616> 674 20G<142 265>
VStem: 142 134<113 242> 142 123<438 694>
LayerCount: 3
Fore
SplineSet
142 694 m 1xd0
 265 694 l 1
 265 438 l 1xd0
 418 511 l 1
 418 381 l 1
 276 313 l 1
 276 113 l 1xe0
 616 113 l 1
 616 0 l 1
 142 0 l 1xd0
 142 242 l 1xe0
 71 204 l 1
 71 327 l 1
 142 365 l 1
 142 694 l 1xd0
EndSplineSet
EndChar

StartChar: lslash
Encoding: 322 322 326
Width: 322
VWidth: 1023
Flags: W
HStem: -9.90039 104.22<141.5 304.592> 673.75 20<69.3868 189.4>
VStem: 69 120.145<102.826 693.75>
LayerCount: 3
Fore
SplineSet
4.5 193.1 m 5
 4.5 312.1 l 5
 296.5 461.1 l 5
 296.5 341.1 l 5
 4.5 193.1 l 5
EndSplineSet
Refer: 10 108 N 1 0 0 1 0 0 2
EndChar

StartChar: kgreenlandic
Encoding: 312 312 327
Width: 603
VWidth: 0
Flags: W
HStem: 0 21G<88 208 421.013 593> 462 20G<88 208 409.863 567>
VStem: 88 120<0 223 271 482>
LayerCount: 3
Fore
SplineSet
208 271 m 1
 431 482 l 1
 567 482 l 1
 336 256 l 1
 593 0 l 1
 442 0 l 1
 208 223 l 1
 208 0 l 1
 88 0 l 1
 88 482 l 1
 208 482 l 1
 208 271 l 1
EndSplineSet
EndChar

StartChar: napostrophe
Encoding: 329 329 328
Width: 737
VWidth: 1023
Flags: W
HStem: 0 21G<170 291 529 649> 380 112<331.534 499.665> 462 20G<170 268.485> 674 20G<34 147>
VStem: 34 113<442 694> 170 121<0 360.146> 529 120<0 349.635>
LayerCount: 3
Fore
SplineSet
170 482 m 1xbe
 260 482 l 1xbe
 274 449 l 1
 353 483 419 492 463 492 c 0
 627 492 649 383 649 285 c 2
 649 0 l 1
 529 0 l 1
 529 283 l 2
 529 317 524 380 421 380 c 0xde
 372 380 321 364 291 353 c 1
 291 0 l 1
 170 0 l 1
 170 482 l 1xbe
34 694 m 1
 147 694 l 1
 147 442 l 1
 34 442 l 1
 34 694 l 1
EndSplineSet
EndChar

StartChar: ogonek
Encoding: 731 731 329
Width: 529
VWidth: 0
Flags: W
HStem: -286 105<318.129 406.753>
VStem: 205 110<-178.159 -92.5619>
LayerCount: 3
Fore
SplineSet
205 -164 m 0
 205 -63 301 54 433 90 c 1
 453 95 l 1
 477 3 l 1
 459 -3 l 2
 364 -38 315 -108 315 -147 c 0
 315 -167 326 -181 347 -181 c 0
 358 -181 379 -177 417 -155 c 2
 435 -144 l 1
 476 -222 l 1
 462 -232 l 2
 441 -247 382 -286 323 -286 c 0
 252 -286 205 -233 205 -164 c 0
EndSplineSet
EndChar

StartChar: hungarumlaut
Encoding: 733 733 330
Width: 806
VWidth: 1023
Flags: W
HStem: 533 278
LayerCount: 3
Fore
SplineSet
168 533 m 5
 106 623 l 5
 375 811 l 5
 433 729 l 5
 168 533 l 5
629 811 m 5
 691 721 l 5
 422 533 l 5
 365 615 l 5
 629 811 l 5
EndSplineSet
EndChar

StartChar: uni02EE
Encoding: 750 750 331
Width: 407
VWidth: 1023
Flags: W
HStem: 509 249<34 164 224 354>
VStem: 34 130<509 758> 224 130<509 758>
LayerCount: 3
Fore
SplineSet
224 758 m 1
 354 758 l 1
 354 509 l 1
 224 509 l 1
 224 758 l 1
34 758 m 1
 164 758 l 1
 164 509 l 1
 34 509 l 1
 34 758 l 1
EndSplineSet
EndChar

StartChar: uni0302
Encoding: 770 770 332
Width: 0
VWidth: 1023
Flags: W
HStem: 541 241
VStem: -384 319
LayerCount: 3
Fore
SplineSet
-218 782 m 5
 -65 612 l 5
 -139 541 l 5
 -225 636 l 5
 -311 542 l 5
 -384 607 l 5
 -218 782 l 5
EndSplineSet
EndChar

StartChar: Tbar
Encoding: 358 358 333
Width: 670
VWidth: 1023
Flags: W
HStem: 0 21G<293 417> 274 114<111 293 417 599> 581 113<42 293 417 668>
VStem: 293 124<0 274 388 581>
LayerCount: 3
Fore
SplineSet
42 694 m 1
 668 694 l 1
 668 581 l 1
 417 581 l 1
 417 388 l 1
 599 388 l 1
 599 274 l 1
 417 274 l 1
 417 0 l 1
 293 0 l 1
 293 274 l 1
 111 274 l 1
 111 388 l 1
 293 388 l 1
 293 581 l 1
 42 581 l 1
 42 694 l 1
EndSplineSet
EndChar

StartChar: tbar
Encoding: 359 359 334
Width: 448
VWidth: 1023
Flags: W
HStem: -10 103<253.393 412.414> 214 93<34 99 234 406> 379 103<34 99 234 406>
VStem: 99 135<110.837 214 307 379 482 621>
LayerCount: 3
Back
SplineSet
257.812 515.137 m 5xd0
 359.375 745.605 l 5
 508.301 745.605 l 5xc8
 402.344 515.137 l 5
 257.812 515.137 l 5xd0
99.1211 620.605 m 5
 234.375 620.605 l 5
 234.375 482.422 l 5
 406.25 482.422 l 5
 406.25 379.395 l 5
 234.375 379.395 l 5
 234.375 163.086 l 6
 234.375 133.789 237.793 92.7734 306.641 92.7734 c 4
 322.754 92.7734 330.078 93.75 389.648 102.539 c 5
 408.691 105.957 l 5
 427.734 13.6719 l 5
 409.18 8.78906 l 5
 349.121 -5.85938 305.176 -9.76562 276.855 -9.76562 c 4
 130.371 -9.76562 99.1211 69.3359 99.1211 154.785 c 6
 99.1211 379.395 l 5
 34.1797 379.395 l 5
 34.1797 482.422 l 5
 99.1211 482.422 l 5
 99.1211 620.605 l 5
EndSplineSet
Fore
SplineSet
409 9 m 2
 352 -6 317 -10 289 -10 c 0
 164 -10 99 36 99 157 c 2
 99 214 l 1
 34 214 l 1
 34 307 l 1
 99 307 l 1
 99 379 l 1
 34 379 l 1
 34 482 l 1
 99 482 l 1
 99 621 l 1
 234 621 l 1
 234 482 l 1
 406 482 l 1
 406 379 l 1
 234 379 l 1
 234 307 l 1
 406 307 l 1
 406 214 l 1
 234 214 l 1
 234 162 l 2
 234 134 246 93 318 93 c 0
 331 93 338 94 390 103 c 1
 409 106 l 1
 428 14 l 1
 409 9 l 2
EndSplineSet
EndChar

StartChar: Hbar
Encoding: 294 294 335
Width: 861
VWidth: 1023
Flags: W
HStem: 0 21G<142 265 636 759> 301 114<265 636> 523 102<68 142 759 832> 533 88<265 636> 674 20G<142 265 636 759>
VStem: 142 123<0 301 415 523 625 694> 636 123<0 301 415 523 625 694>
LayerCount: 3
Fore
SplineSet
636 694 m 1xde
 759 694 l 1
 759 625 l 1
 832 625 l 1
 832 523 l 1
 759 523 l 1
 759 0 l 1
 636 0 l 1
 636 301 l 1
 265 301 l 1
 265 0 l 1
 142 0 l 1
 142 523 l 1
 68 523 l 1
 68 625 l 1
 142 625 l 1xee
 142 694 l 1
 265 694 l 1
 265 621 l 1
 636 621 l 1
 636 694 l 1xde
636 415 m 1
 636 533 l 1
 265 533 l 1xde
 265 415 l 1
 636 415 l 1
EndSplineSet
EndChar

StartChar: hbar
Encoding: 295 295 336
Width: 661
VWidth: 1023
Flags: W
HStem: 0 21G<93 213 447 574> 380 111<245.191 416.317> 535 103<27 93 213 398> 718 20G<93 213>
VStem: 93 120<0 360.477 458 535 638 738> 447 127<0 348.956>
LayerCount: 3
Back
SplineSet
276.855 56.1523 m 4xbe
 235.352 56.1523 198.242 69.8242 172.852 83.4961 c 5
 172.852 405.762 l 5
 196.777 416.504 235.84 429.199 277.832 429.199 c 4
 347.168 429.199 438.477 392.578 438.477 245.605 c 4
 438.477 91.7969 341.309 56.1523 276.855 56.1523 c 4xbe
516.602 232.91 m 4
 516.602 403.32 416.504 492.188 289.551 492.188 c 4
 242.676 492.188 205.078 480.469 172.852 466.309 c 5
 172.852 574.707 l 5
 303.711 574.707 l 5
 303.711 637.695 l 5
 172.852 637.695 l 5
 172.852 737.793 l 5
 92.7734 737.793 l 5
 92.7734 637.695 l 5
 26.8555 637.695 l 5
 26.8555 574.707 l 5
 92.7734 574.707 l 5
 92.7734 0 l 5
 148.438 0 l 5x7e
 161.621 30.2734 l 5
 210.449 1.46484 260.742 -9.76562 303.223 -9.76562 c 4
 398.926 -9.76562 516.602 49.8047 516.602 232.91 c 4
EndSplineSet
Fore
SplineSet
93 738 m 1
 213 738 l 1
 213 638 l 1
 398 638 l 1
 398 535 l 1
 213 535 l 1
 213 458 l 1
 255 474 316 491 378 491 c 0
 538 491 574 392 574 286 c 2
 574 0 l 1
 447 0 l 1
 447 284 l 2
 447 316 443 380 341 380 c 0
 316 380 273 375 213 353 c 1
 213 0 l 1
 93 0 l 1
 93 535 l 1
 27 535 l 1
 27 638 l 1
 93 638 l 1
 93 738 l 1
EndSplineSet
EndChar

